<?xml version="1.0" encoding="UTF-8" standalone="no"?>
<svg
   xmlns:dc="http://purl.org/dc/elements/1.1/"
   xmlns:cc="http://creativecommons.org/ns#"
   xmlns:rdf="http://www.w3.org/1999/02/22-rdf-syntax-ns#"
   xmlns:svg="http://www.w3.org/2000/svg"
   xmlns="http://www.w3.org/2000/svg"
   xmlns:sodipodi="http://sodipodi.sourceforge.net/DTD/sodipodi-0.dtd"
   xmlns:inkscape="http://www.inkscape.org/namespaces/inkscape"
   width="24.146635"
   height="27.990494"
   viewBox="0 0 24.146635 27.990494"
   fill="none"
   version="1.1"
   id="svg10"
   sodipodi:docname="fone-icon.svg"
   inkscape:version="1.0.2-2 (e86c870879, 2021-01-15)">
  <metadata
     id="metadata16">
    <rdf:RDF>
      <cc:Work
         rdf:about="">
        <dc:format>image/svg+xml</dc:format>
        <dc:type
           rdf:resource="http://purl.org/dc/dcmitype/StillImage" />
        <dc:title></dc:title>
      </cc:Work>
    </rdf:RDF>
  </metadata>
  <defs
     id="defs14" />
  <sodipodi:namedview
     pagecolor="#ffffff"
     bordercolor="#666666"
     borderopacity="1"
     objecttolerance="10"
     gridtolerance="10"
     guidetolerance="10"
     inkscape:pageopacity="0"
     inkscape:pageshadow="2"
     inkscape:window-width="1600"
     inkscape:window-height="837"
     id="namedview12"
     showgrid="false"
     fit-margin-top="0"
     fit-margin-left="0"
     fit-margin-right="0"
     fit-margin-bottom="0"
     inkscape:zoom="17.374624"
     inkscape:cx="6.247216"
     inkscape:cy="12.386528"
     inkscape:window-x="-8"
     inkscape:window-y="-8"
     inkscape:window-maximized="1"
     inkscape:current-layer="svg10" />
  <g
     id="g11121"
     transform="matrix(0.59194653,0,0,0.59194653,-176.32489,-25.241067)"
     style="fill:#e78b2f;fill-opacity:1">
    <path
       style="fill:#a3d900;fill-opacity:1;stroke:none;stroke-width:0.106066;stroke-linecap:round;stroke-linejoin:round"
       d="m 310.3063,217.91563 c -1.39006,-0.19098 -3.91891,-2.88451 -5.14082,-5.47558 -0.57391,-1.21699 -1.34354,-2.8491 -1.71029,-3.62692 -0.55924,-1.18608 -0.6597,-2.18416 -0.62274,-6.18718 0.0242,-2.62513 0.23645,-5.72757 0.4716,-6.89429 0.23515,-1.16673 0.50345,-2.91682 0.59621,-3.88909 0.0932,-0.97714 0.6334,-2.65959 1.20777,-3.7618 0.57151,-1.09672 1.03911,-2.15412 1.03911,-2.34979 0,-0.69957 3.2435,-6.97947 4.67072,-9.0432 2.6909,-3.89099 5.25528,-6.99938 8.21863,-9.96214 3.50964,-3.50893 8.96644,-7.86203 11.65401,-9.29684 0.76208,-0.40686 1.47815,-0.8647 1.59125,-1.01743 0.35667,-0.4816 8.26474,-4.53915 12.93304,-6.63581 1.16673,-0.52401 3.09544,-1.41586 4.28603,-1.98189 1.19059,-0.56604 2.41422,-1.02916 2.71917,-1.02916 0.30496,0 0.64262,-0.14262 0.75035,-0.31693 0.35011,-0.5665 3.02687,-1.80439 3.90174,-1.80439 0.46867,0 0.93347,-0.1316 1.03288,-0.29246 0.0994,-0.16085 1.18272,-0.5771 2.40735,-0.925 1.22463,-0.34789 2.7039,-0.84278 3.28726,-1.09976 1.52955,-0.67378 7.93568,-2.63225 8.61601,-2.63406 0.31701,-8.5e-4 1.69007,-0.39524 3.05125,-0.87643 1.36118,-0.48119 3.11127,-0.87746 3.88909,-0.88059 0.77782,-0.003 2.13016,-0.2324 3.0052,-0.50946 3.44595,-1.09107 6.61973,-1.67146 7.86385,-1.43806 0.76935,0.14433 2.01141,0.0311 3.15488,-0.2877 1.03728,-0.28916 3.16601,-0.61506 4.73051,-0.72422 3.10167,-0.21641 4.15374,-0.48457 3.84719,-0.98058 -0.20279,-0.32812 2.54452,-0.17835 7.79469,0.4249 1.55053,0.17816 3.77792,0.32772 4.94974,0.33236 1.17183,0.005 2.76699,0.17747 3.54481,0.38407 0.77782,0.2066 3.39565,0.63303 5.8174,0.94761 3.20658,0.41653 4.57573,0.74452 5.03813,1.20692 0.34923,0.34922 0.84109,0.63495 1.09302,0.63495 1.09261,0 7.10311,3.48946 10.67887,6.19973 4.9261,3.73377 11.52092,11.31167 14.11037,16.2138 0.5028,0.95186 1.04549,1.90645 1.20599,2.12132 0.51482,0.68922 1.19872,5.07865 0.96037,6.16385 -0.49019,2.23183 -3.82248,5.39396 -7.78775,7.39008 -0.97431,0.49047 -1.8987,1.11024 -2.0542,1.37726 -0.1555,0.26702 -0.58849,0.48549 -0.96219,0.48549 -0.3737,0 -1.5399,0.38053 -2.59156,0.84562 -1.05166,0.4651 -2.60741,0.96038 -3.45723,1.10064 -0.84982,0.14026 -1.70422,0.37823 -1.89867,0.52882 -0.39764,0.30795 -2.3727,0.61648 -5.96521,0.93184 -2.43247,0.21354 -3.87458,-0.0468 -6.69011,-1.20762 -2.4405,-1.00623 -4.72029,-3.71706 -5.71498,-6.79549 -0.34557,-1.0695 -0.84817,-2.46702 -1.11689,-3.10559 -0.26872,-0.63857 -0.48858,-1.75485 -0.48858,-2.48063 0,-2.23645 -1.83653,-6.44596 -3.34503,-7.66714 -1.18534,-0.95957 -1.60758,-1.07778 -4.24506,-1.18842 -1.61084,-0.0676 -4.02245,0.0663 -5.35914,0.29746 -1.33669,0.23118 -3.70314,0.55759 -5.25877,0.72536 -5.11466,0.55157 -10.5598,1.3203 -13.43503,1.89671 -1.55563,0.31187 -3.54437,0.66783 -4.41942,0.79102 -0.87504,0.12319 -2.02061,0.44028 -2.5457,0.70464 -0.5251,0.26435 -1.38616,0.48065 -1.91347,0.48065 -0.99697,0 -4.46339,0.90915 -5.51327,1.44599 -0.3318,0.16966 -1.28639,0.41274 -2.12132,0.54017 -0.83492,0.12743 -1.67714,0.34979 -1.8716,0.49412 -0.19445,0.14434 -1.46724,0.62633 -2.82842,1.07108 -1.36118,0.44476 -2.63398,0.91395 -2.82843,1.04264 -0.19445,0.12869 -1.14905,0.5218 -2.12132,0.87358 -0.97227,0.35178 -2.01894,0.85647 -2.32594,1.12154 -0.30699,0.26507 -0.82722,0.48194 -1.15607,0.48194 -0.32885,0 -1.19137,0.3696 -1.9167,0.82133 -0.72534,0.45173 -1.58045,0.91759 -1.90022,1.03525 -1.04821,0.38567 -7.01998,4.18997 -7.01998,4.47205 0,0.15146 -0.36621,0.44224 -0.81379,0.64617 -1.69263,0.77122 -6.42485,4.91811 -7.90187,6.92449 -1.38052,1.87531 -1.53739,2.2895 -1.53739,4.0592 0,1.17236 0.26684,2.55317 0.65864,3.40826 1.7623,3.84612 2.99832,9.51248 2.79939,12.83341 -0.19139,3.19484 -1.49803,4.40398 -6.81679,6.30806 -0.97227,0.34807 -2.08159,0.8425 -2.46515,1.09874 -0.38356,0.25624 -1.06189,0.4659 -1.5074,0.4659 -0.44551,0 -1.08628,0.13569 -1.42394,0.30153 -1.98346,0.97419 -6.53749,2.64526 -9.337,3.42614 -0.9086,0.25344 -1.94275,0.61015 -2.29809,0.79268 -0.77536,0.39828 -3.80031,0.70159 -5.14899,0.51628 z"
       id="path11107"
       transform="matrix(0.26458333,0,0,0.26458333,217.75038,15.407729)" />
    <path
       style="fill:#e78b2f;fill-opacity:1;stroke:none;stroke-width:0.106066;stroke-linecap:round;stroke-linejoin:round"
       d="m 318.42589,140.86364 c -3.93372,-3.82884 -7.4296,-7.36879 -7.76861,-7.86656 -0.81025,-1.18967 -0.78091,-2.21083 0.1139,-3.9648 l 0.73494,-1.44061 2.05485,0.14863 2.05485,0.14864 7.14339,6.87452 c 3.92887,3.78099 7.28733,7.14249 7.46326,7.47001 0.88678,1.65088 0.12997,4.22123 -1.47928,5.02403 -2.44381,1.21914 -2.58684,1.1305 -10.3173,-6.39386 z"
       id="path11109"
       transform="matrix(0.26458333,0,0,0.26458333,217.75038,15.407729)" />
    <path
       style="fill:#e78b2f;fill-opacity:1;stroke:none;stroke-width:0.106066;stroke-linecap:round;stroke-linejoin:round"
       d="m 350.34132,137.21857 c 0,-0.19445 -0.23898,-0.35355 -0.53106,-0.35355 -0.45518,0 -2.13625,-2.04421 -4.06514,-4.94328 -0.29168,-0.43839 -0.96785,-1.4133 -1.5026,-2.16647 -0.53475,-0.75318 -0.97227,-1.46089 -0.97227,-1.5727 0,-0.11181 -1.14469,-1.74395 -2.54377,-3.62698 -3.12251,-4.20264 -3.70495,-5.64306 -2.93656,-7.26231 0.97497,-2.0546 3.45351,-2.90485 5.56419,-1.90876 0.51257,0.24189 1.45075,1.31581 2.08484,2.38648 0.63409,1.07067 1.91697,3.10322 2.85085,4.51676 0.93388,1.41355 1.69796,2.62682 1.69796,2.69616 0,0.0693 1.1137,1.7678 2.47488,3.77436 2.52465,3.72168 2.8967,4.90925 2.26955,7.24426 -0.26929,1.00263 -4.39087,2.14408 -4.39087,1.21603 z"
       id="path11111"
       transform="matrix(0.26458333,0,0,0.26458333,217.75038,15.407729)" />
    <path
       style="fill:#e78b2f;fill-opacity:1;stroke:none;stroke-width:0.106066;stroke-linecap:round;stroke-linejoin:round"
       d="m 375.5904,129.29141 c -0.59986,-0.26118 -1.44197,-0.9215 -1.87136,-1.46739 -0.76919,-0.97786 -0.77918,-1.13896 -0.67712,-10.91339 0.0969,-9.27933 0.14932,-9.98218 0.8107,-10.86897 1.86163,-2.4961 4.91062,-2.26572 6.49713,0.49091 0.82406,1.43183 0.83524,1.583 0.78977,10.67751 -0.0525,10.49176 -0.17887,11.07798 -2.59722,12.04561 -1.59823,0.63949 -1.56608,0.6391 -2.9519,0.0357 z"
       id="path11113"
       transform="matrix(0.26458333,0,0,0.26458333,217.75038,15.407729)" />
    <path
       style="fill:#e78b2f;fill-opacity:1;stroke:none;stroke-width:0.106066;stroke-linecap:round;stroke-linejoin:round"
       d="m 400.84264,126.53591 c -1.61053,-0.67076 -1.64306,-2.67209 -0.1146,-7.05082 0.70199,-2.01107 1.41081,-4.13379 1.57514,-4.71716 0.77923,-2.76608 3.39385,-9.66946 4.04903,-10.69061 0.69769,-1.08741 0.84406,-1.14489 2.92614,-1.14905 2.09315,-0.004 2.23434,0.0515 3.13946,1.23818 1.15035,1.50818 1.06124,3.02231 -0.3423,5.81671 -0.50766,1.01072 -0.92301,2.05784 -0.92301,2.32695 0,0.26911 -0.22537,1.01176 -0.50083,1.65033 -0.27546,0.63858 -0.75276,1.74194 -1.06066,2.45191 -0.30791,0.70998 -0.55983,1.59829 -0.55983,1.97401 0,0.37573 -0.11338,0.79652 -0.25195,0.93509 -0.42056,0.42056 -1.51522,3.52959 -1.51553,4.30435 -1.6e-4,0.39938 -0.54351,1.25265 -1.20745,1.89617 -1.34305,1.30173 -3.51049,1.72325 -5.21361,1.01394 z"
       id="path11115"
       transform="matrix(0.26458333,0,0,0.26458333,217.75038,15.407729)" />
    <path
       style="fill:#abe2fb;fill-opacity:1;stroke:none;stroke-width:0.106066;stroke-linecap:round;stroke-linejoin:round"
       d="m 374.7365,257.22049 c -0.48613,-0.26974 -1.1709,-0.49279 -1.52171,-0.49566 -0.73533,-0.006 -4.09811,-1.814 -5.48202,-2.9474 -1.26513,-1.03612 -3.22961,-3.02836 -4.30998,-4.37088 -1.87358,-2.32821 -4.06361,-6.81903 -4.45102,-9.12716 -0.13055,-0.77782 -0.40014,-1.61904 -0.59908,-1.86938 -0.38851,-0.48887 0.15553,-4.34737 0.98266,-6.96946 0.24536,-0.77782 0.70989,-2.25739 1.03227,-3.28794 0.32239,-1.03055 1.01786,-2.37986 1.5455,-2.99848 1.70913,-2.00381 4.74613,-4.8265 5.42466,-5.04186 0.36366,-0.11542 0.66121,-0.36217 0.66121,-0.54833 0,-0.18617 0.43407,-0.50352 0.96461,-0.70523 0.53054,-0.20171 1.73685,-0.75462 2.6807,-1.22868 0.94385,-0.47407 1.95154,-0.86194 2.23932,-0.86194 0.28778,0 1.30346,-0.2552 2.25706,-0.56711 1.9663,-0.64314 6.10411,-0.5229 9.71275,0.28225 2.33584,0.52116 6.54074,2.32638 6.54074,2.80801 0,0.1679 0.23865,0.30527 0.53033,0.30527 0.29168,0 0.53033,0.16603 0.53033,0.36896 0,0.20292 0.58067,0.99654 1.29038,1.7636 2.56936,2.77698 4.78468,6.74656 5.61683,10.06467 0.30713,1.22464 0.68586,3.87191 0.84162,5.88281 0.28996,3.74327 0.1761,4.31617 -1.39559,7.02225 -0.16941,0.29168 -0.65785,1.22636 -1.08543,2.07706 -0.81968,1.63082 -5.55823,6.76178 -6.24465,6.76178 -0.22123,0 -0.52947,0.19887 -0.68497,0.44194 -0.3616,0.56522 -4.69352,2.74036 -5.45723,2.74018 -0.31807,-8e-5 -1.03401,0.23753 -1.59099,0.52801 -1.35731,0.70789 -8.73959,0.68781 -10.0283,-0.0273 z"
       id="path11117"
       transform="matrix(0.26458333,0,0,0.26458333,217.75038,15.407729)" />
    <path
       style="fill:#00b2ff;fill-opacity:1;stroke:none;stroke-width:0.0280633;stroke-linecap:round;stroke-linejoin:round"
       d="m 302.28942,89.869016 c -0.1345,-0.08313 -0.11629,-3.729622 0.0226,-4.522431 0.12149,-0.693539 0.0701,-2.457963 -0.0794,-2.725091 -0.0536,-0.09585 -0.04,-0.275797 0.0374,-0.492292 0.067,-0.187674 0.12375,-0.495644 0.12601,-0.684382 0.004,-0.364998 -0.0559,-0.275556 1.71252,-2.541127 0.47523,-0.608819 0.96929,-1.263034 1.09791,-1.453809 0.21385,-0.317182 1.25832,-1.641644 1.55839,-1.976149 0.0692,-0.07717 0.40203,-0.498123 0.73955,-0.935442 0.33753,-0.437319 0.7689,-0.982147 0.9586,-1.210728 0.18971,-0.228579 0.40806,-0.502195 0.48524,-0.608036 0.11707,-0.160568 0.1428,-0.693293 0.15534,-3.216474 0.008,-1.663218 0.0371,-3.046087 0.064,-3.07304 0.10389,-0.103889 10.04804,-0.158342 12.40911,-0.06795 1.01743,0.03895 1.7826,0.02133 2.24506,-0.0517 0.38588,-0.06093 0.84892,-0.09728 1.02899,-0.08077 0.18008,0.01651 0.8397,0.01807 1.46582,0.0034 0.80168,-0.01873 1.15868,0.0062 1.20691,0.08423 0.0377,0.06095 0.0728,1.462053 0.0781,3.113553 0.009,2.822654 0.0206,3.019562 0.19409,3.283365 0.10149,0.154347 0.20981,0.301681 0.24073,0.327406 0.1505,0.125264 2.65327,3.522247 3.27307,4.442516 0.62186,0.923319 1.24595,1.779293 1.39878,1.918499 0.0282,0.02572 0.1212,0.156704 0.20656,0.291068 0.0854,0.134363 0.4507,0.610658 0.81185,1.058436 l 0.65663,0.814142 -0.0565,1.896887 c -0.0337,1.13056 -0.0201,2.006757 0.0335,2.168843 0.0518,0.156242 0.0735,1.127696 0.051,2.283156 l -0.0391,2.011203 H 318.3772 c -8.79723,0 -16.03671,-0.0258 -16.08771,-0.05732 z m 16.9486,-4.337939 c 2.20335,-0.373962 3.23778,-0.90751 4.61592,-2.380853 0.47682,-0.509765 1.21349,-1.606653 1.32324,-1.970284 0.0388,-0.128624 0.11331,-0.28725 0.16554,-0.352501 0.10171,-0.127059 0.18684,-0.474036 0.40694,-1.658702 0.16202,-0.872033 0.1084,-2.324627 -0.11568,-3.133736 -0.77207,-2.787777 -3.24468,-4.938842 -6.25564,-5.44213 -2.28822,-0.382479 -4.84231,0.501674 -6.5695,2.274171 -0.6995,0.717838 -1.61439,2.210154 -1.61528,2.634726 -2e-4,0.09259 -0.0578,0.282019 -0.12802,0.420949 -0.0702,0.13893 -0.18224,0.657868 -0.24894,1.153197 -0.10646,0.790628 -0.10213,1.00194 0.0355,1.730571 0.25588,1.354831 0.56356,2.423784 0.76394,2.654088 0.0671,0.07717 0.25236,0.392888 0.41159,0.701583 0.61015,1.182939 1.77586,2.180616 3.14122,2.68841 1.4734,0.547978 2.00039,0.681463 3.18051,0.805622 0.0514,0.0054 0.45135,-0.05089 0.88867,-0.125111 z"
       id="path11119" />
  </g>
</svg>
