<?xml version="1.0" encoding="UTF-8" standalone="no"?>
<svg
   xmlns:dc="http://purl.org/dc/elements/1.1/"
   xmlns:cc="http://creativecommons.org/ns#"
   xmlns:rdf="http://www.w3.org/1999/02/22-rdf-syntax-ns#"
   xmlns:svg="http://www.w3.org/2000/svg"
   xmlns="http://www.w3.org/2000/svg"
   xmlns:sodipodi="http://sodipodi.sourceforge.net/DTD/sodipodi-0.dtd"
   xmlns:inkscape="http://www.inkscape.org/namespaces/inkscape"
   width="200"
   height="200"
   viewBox="0 0 52.916665 52.916668"
   version="1.1"
   id="svg11267"
   inkscape:version="1.0.2-2 (e86c870879, 2021-01-15)"
   sodipodi:docname="ico_cursoslivres.svg">
  <defs
     id="defs11261" />
  <sodipodi:namedview
     id="base"
     pagecolor="#262626"
     bordercolor="#666666"
     borderopacity="1.0"
     inkscape:pageopacity="0.18039216"
     inkscape:pageshadow="2"
     inkscape:zoom="2.8"
     inkscape:cx="185.91086"
     inkscape:cy="86.438553"
     inkscape:document-units="px"
     inkscape:current-layer="layer1"
     inkscape:document-rotation="0"
     showgrid="false"
     units="px"
     fit-margin-top="0"
     fit-margin-left="0"
     fit-margin-right="0"
     fit-margin-bottom="0"
     inkscape:window-width="1600"
     inkscape:window-height="837"
     inkscape:window-x="-8"
     inkscape:window-y="-8"
     inkscape:window-maximized="1"
     inkscape:pagecheckerboard="true" />
  <metadata
     id="metadata11264">
    <rdf:RDF>
      <cc:Work
         rdf:about="">
        <dc:format>image/svg+xml</dc:format>
        <dc:type
           rdf:resource="http://purl.org/dc/dcmitype/StillImage" />
        <dc:title></dc:title>
      </cc:Work>
    </rdf:RDF>
  </metadata>
  <g
     inkscape:label="Layer 1"
     inkscape:groupmode="layer"
     id="layer1"
     transform="translate(-35.897881,-89.759291)">
    <g
       id="g10277"
       transform="matrix(0.94404068,0,0,0.94404068,564.32152,156.77948)"
       style="stroke:none">
      <g
         id="g8024"
         style="stroke:none">
        <path
           style="fill:#ffffff;fill-opacity:1;stroke:none;stroke-width:0.286043;stroke-linecap:round;stroke-linejoin:round;stroke-miterlimit:4;stroke-dasharray:none;stroke-opacity:0.5"
           d="m -541.49436,-19.353938 c -0.0829,-0.01772 -0.0791,-0.04059 0.025,-0.149197 0.15538,-0.162258 0.44177,-0.677501 0.53374,-0.960257 0.18733,-0.575817 0.21913,-0.822763 0.21759,-1.687602 0,-0.588014 -0.0185,-0.910328 -0.0642,-1.197807 -0.0783,-0.490619 -0.19268,-1.000145 -0.25913,-1.154325 -0.028,-0.06458 -0.0506,-0.142596 -0.0506,-0.173372 0,-0.03076 -0.0235,-0.106657 -0.0523,-0.168624 -0.029,-0.06197 -0.10041,-0.244495 -0.15923,-0.405605 -0.15303,-0.41914 -0.29917,-0.721238 -0.57942,-1.197437 -0.71622,-1.21706 -1.55592,-1.934829 -2.67732,-2.288493 l -0.12512,-0.03944 0.12432,-0.05188 c 0.0684,-0.02851 0.22932,-0.07548 0.35759,-0.104341 0.12827,-0.02886 0.32169,-0.07527 0.42983,-0.103138 0.19962,-0.05143 0.60115,-0.144773 1.0548,-0.245214 0.13765,-0.03046 0.45944,-0.09545 0.71512,-0.144378 0.62147,-0.11895 0.97576,-0.190228 1.34084,-0.269765 0.54407,-0.11854 1.51603,-0.303685 1.78774,-0.340533 0.0885,-0.01203 0.27351,-0.04394 0.41121,-0.07093 0.13761,-0.02701 0.45141,-0.08318 0.69721,-0.124831 0.24579,-0.04164 0.54347,-0.09913 0.66145,-0.127728 0.11803,-0.02861 0.31914,-0.06711 0.44696,-0.08558 0.12782,-0.01847 0.32089,-0.05036 0.42909,-0.07088 0.10814,-0.02052 0.39778,-0.07 0.64358,-0.109952 0.6631,-0.107781 1.01984,-0.169713 1.3587,-0.235898 0.16717,-0.03265 0.4246,-0.07987 0.57209,-0.10495 0.14749,-0.02506 0.4532,-0.08007 0.67937,-0.12221 0.22613,-0.04214 0.54792,-0.09938 0.71508,-0.127208 0.8758,-0.145807 1.69382,-0.294839 1.85544,-0.338037 0.12364,-0.03305 0.38997,-0.08748 0.96925,-0.198117 0.14749,-0.02816 0.43711,-0.08419 0.6436,-0.124482 0.20649,-0.04029 0.49611,-0.09584 0.64359,-0.123428 0.25769,-0.04818 0.58561,-0.120852 1.19782,-0.265361 0.91927,-0.216995 1.13258,-0.263698 1.35962,-0.297694 0.23651,-0.0354 0.26581,-0.03186 0.50058,0.06104 0.77321,0.305907 1.58176,0.980108 2.15506,1.797005 0.28304,0.403314 0.86535,1.512318 0.86535,1.648064 0,0.02097 0.0228,0.09092 0.0506,0.155497 0.22416,0.520187 0.22749,0.554657 0.0737,0.761017 -0.29009,0.389294 -0.41262,1.128472 -0.28647,1.728174 0.0679,0.322834 0.19532,0.58768 0.41219,0.856805 0.12846,0.159417 0.1634,0.225947 0.13213,0.251615 -0.0518,0.04259 -0.28974,0.113313 -0.73972,0.219941 -0.18682,0.04429 -0.41208,0.102124 -0.50058,0.128561 -0.0885,0.02646 -0.26547,0.07937 -0.39331,0.117612 -0.30954,0.09263 -0.67029,0.194686 -1.01903,0.288308 -0.40821,0.109588 -0.58375,0.160475 -1.1084,0.321305 -0.60732,0.186164 -1.09992,0.331611 -1.51962,0.448689 -0.18682,0.05212 -0.39599,0.116563 -0.46482,0.143215 -0.2083,0.08066 -0.3969,0.140035 -1.23356,0.388335 -0.63396,0.18815 -0.77477,0.23396 -0.89929,0.292571 -0.062,0.02916 -0.12819,0.05304 -0.14718,0.05304 -0.019,0 -0.21766,0.05742 -0.44152,0.127598 -0.22388,0.07018 -0.59208,0.18523 -0.81823,0.255679 -0.22615,0.07044 -0.48361,0.156337 -0.57208,0.190877 -0.0885,0.03455 -0.2816,0.09831 -0.42909,0.141727 -0.14749,0.04344 -0.33252,0.09974 -0.41116,0.125172 -0.0787,0.02541 -0.28784,0.0894 -0.46483,0.142141 -0.177,0.05275 -0.354,0.110352 -0.39329,0.128012 -0.0737,0.03305 -0.86591,0.285512 -1.34083,0.427244 -0.14749,0.04404 -0.50149,0.157191 -0.78663,0.251496 -0.28514,0.0943 -0.57478,0.187382 -0.64363,0.206844 -0.50133,0.141742 -1.03482,0.301684 -1.32291,0.396603 -0.50353,0.165893 -0.71807,0.23045 -1.25146,0.376581 -0.26547,0.07274 -0.54707,0.153306 -0.6257,0.179044 -0.0787,0.02571 -0.28784,0.08924 -0.46484,0.141109 -0.177,0.05187 -0.37097,0.109823 -0.43108,0.128785 -0.10785,0.034 -1.00522,0.268626 -1.21367,0.317322 -0.059,0.01378 -0.1354,0.01902 -0.16985,0.01168 z"
           id="path19060" />
        <path
           style="fill:#ffffff;fill-opacity:0.4;stroke:none;stroke-width:0.286043;stroke-linecap:round;stroke-linejoin:round;stroke-miterlimit:4;stroke-dasharray:none;stroke-opacity:0.5"
           d="m -543.38047,-19.447365 c -0.54707,-0.214273 -0.91903,-0.5664 -1.31781,-1.247566 -0.26952,-0.460382 -0.389,-0.771462 -0.54587,-1.421622 -0.0694,-0.287714 -0.0819,-0.43737 -0.0833,-0.999835 0,-0.607946 0.005,-0.681731 0.0844,-0.911767 0.13326,-0.387651 0.28763,-0.598604 0.56544,-0.772615 0.18598,-0.116508 0.52664,-0.100751 0.765,0.0354 0.32254,0.184197 0.54323,0.433965 0.74119,0.838861 0.26557,0.543218 0.34152,0.845686 0.34261,1.364344 0,0.389034 -0.008,0.447415 -0.0922,0.62572 -0.11619,0.245604 -0.21005,0.344578 -0.36808,0.388205 -0.3106,0.08577 -0.60359,-0.136774 -0.83251,-0.632336 -0.11194,-0.242403 -0.12851,-0.315928 -0.14224,-0.631876 -0.013,-0.30436 -0.005,-0.375923 0.0529,-0.481022 0.12532,-0.226107 0.35714,-0.212661 0.52215,0.03031 0.098,0.144333 0.20107,0.428068 0.20107,0.553703 0,0.112005 0.10714,0.200948 0.24205,0.200948 0.1424,0 0.16142,-0.03475 0.15578,-0.284598 -0.0105,-0.463378 -0.29388,-0.965724 -0.63654,-1.128342 -0.17755,-0.08424 -0.49519,-0.05966 -0.64957,0.05024 -0.41965,0.298818 -0.44677,1.392384 -0.052,2.098639 0.13431,0.240322 0.40951,0.523262 0.62426,0.641828 0.15922,0.0879 0.23052,0.105139 0.42933,0.103776 0.20022,-0.0015 0.26587,-0.01862 0.40992,-0.107696 0.23017,-0.142306 0.37636,-0.343748 0.48061,-0.662318 0.0752,-0.229721 0.0862,-0.328185 0.0836,-0.747281 0,-0.399634 -0.019,-0.544457 -0.0969,-0.841567 -0.16686,-0.637558 -0.32399,-0.95079 -0.71088,-1.417113 -0.24445,-0.294664 -0.68637,-0.537911 -1.06528,-0.586337 -0.29024,-0.0371 -0.78503,0.169707 -0.96193,0.40205 -0.0424,0.05554 -0.14549,0.18884 -0.22937,0.296216 l -0.15253,0.195226 -0.39229,0.101745 c -0.45285,0.117447 -0.77549,0.20298 -1.17896,0.312513 -0.67134,0.182294 -0.70904,0.188121 -0.76066,0.117557 -0.0857,-0.117163 0.0245,-1.109209 0.19337,-1.744645 0.16781,-0.630634 0.29163,-0.918452 0.59215,-1.376587 0.23232,-0.354109 0.3511,-0.486759 0.65042,-0.726377 0.2786,-0.223016 0.47352,-0.319812 0.8086,-0.401565 0.65421,-0.159622 1.36305,-0.01603 2.00014,0.40515 0.32219,0.212996 0.87599,0.743148 1.05634,1.011204 0.0587,0.08719 0.16671,0.241605 0.24015,0.34314 0.22917,0.316802 0.66111,1.196589 0.81344,1.656796 0.26956,0.814325 0.46583,1.933745 0.46638,2.659807 0,0.655278 -0.22657,1.62244 -0.47097,2.006276 -0.18674,0.293365 -0.41386,0.505567 -0.68363,0.638876 -0.2462,0.121646 -0.28304,0.129605 -0.58197,0.125731 -0.23446,-0.003 -0.37131,-0.02457 -0.51581,-0.08116 z"
           id="path19062" />
        <path
           style="fill:#ffffff;fill-opacity:0.4;stroke:none;stroke-width:0.286043;stroke-linecap:round;stroke-linejoin:round;stroke-miterlimit:4;stroke-dasharray:none;stroke-opacity:0.5"
           d="m -520.56849,-25.231549 c -0.2626,-0.08257 -0.59308,-0.293361 -0.7995,-0.509936 -0.0765,-0.08027 -0.20488,-0.282716 -0.28525,-0.449872 -0.14459,-0.30067 -0.14616,-0.308329 -0.14748,-0.716121 -0.001,-0.419565 0.0142,-0.489709 0.18968,-0.855551 0.17006,-0.354538 0.59903,-0.712681 1.03425,-0.863496 0.28291,-0.09803 0.77279,-0.0981 1.0541,-1.34e-4 0.40175,0.139895 0.8494,0.509746 1.01804,0.841137 0.11978,0.235353 0.22328,0.634572 0.22328,0.861193 0,0.219372 -0.10242,0.624098 -0.21263,0.840249 -0.10533,0.206575 -0.50415,0.597735 -0.737,0.722876 -0.39737,0.213535 -0.91209,0.263434 -1.33749,0.12967 z"
           id="path19064" />
        <path
           style="fill:#ffffff;fill-opacity:0.4;stroke:none;stroke-width:0.286043;stroke-linecap:round;stroke-linejoin:round;stroke-miterlimit:4;stroke-dasharray:none;stroke-opacity:0.5"
           d="m -520.1141,-18.852555 c -0.0355,-0.06498 0.0382,-5.736088 0.075,-5.772906 0.0617,-0.0617 0.53737,-0.132585 0.57471,-0.08564 0.0458,0.05762 0.10519,0.441938 0.14691,0.951115 0.0201,0.245818 0.0529,0.58371 0.0729,0.750866 0.033,0.276754 0.0675,0.668404 0.17785,2.020182 0.0209,0.255649 0.0616,0.692764 0.0905,0.971366 0.0605,0.5834 0.0672,0.905794 0.0187,0.905794 -0.0186,0 -0.12992,-0.05632 -0.24737,-0.125146 -0.11743,-0.06883 -0.24598,-0.125146 -0.28565,-0.125146 -0.0465,0 -0.15015,0.09547 -0.29128,0.268167 -0.2005,0.245389 -0.29323,0.312743 -0.33222,0.24135 z"
           id="path19066" />
        <path
           style="fill:#ffffff;fill-opacity:0.4;stroke:none;stroke-width:0.286043;stroke-linecap:round;stroke-linejoin:round;stroke-miterlimit:4;stroke-dasharray:none;stroke-opacity:0.5"
           d="m -518.29743,-22.142057 c -0.109,-0.350803 -0.35893,-1.061557 -0.41175,-1.170985 -0.0474,-0.09819 -0.39082,-1.103552 -0.45084,-1.319888 -0.0566,-0.204023 -0.0423,-0.231469 0.17033,-0.327367 l 0.14898,-0.06718 0.0747,0.09946 c 0.0411,0.0547 0.20454,0.351957 0.36325,0.66056 0.25256,0.491068 0.55388,1.071963 0.86604,1.669523 0.0514,0.09833 0.11648,0.2066 0.14468,0.240601 0.0912,0.110008 -0.0307,0.124672 -0.36091,0.04339 -0.13111,-0.03225 -0.18835,0.02172 -0.23981,0.226117 -0.0908,0.360544 -0.18076,0.344527 -0.30467,-0.05424 z"
           id="path19068" />
        <path
           style="fill:#ffffff;fill-opacity:0.979675;stroke:none;stroke-width:0.286043;stroke-linecap:round;stroke-linejoin:round;stroke-miterlimit:4;stroke-dasharray:none;stroke-opacity:0.5"
           d="m -517.88493,-26.206949 c -0.0331,-0.03989 -0.0322,-0.06976 0.004,-0.134084 0.0321,-0.05674 0.0469,-0.23436 0.0472,-0.565431 0,-0.544861 -0.0545,-0.761042 -0.2952,-1.162054 -0.16388,-0.273014 -0.58676,-0.699419 -0.79527,-0.801913 -0.27066,-0.133045 -0.61071,-0.252868 -0.71761,-0.252868 -0.11706,0 -0.26667,-0.141014 -0.30042,-0.28313 -0.0567,-0.238874 -0.40725,-1.103942 -0.61697,-1.522518 -0.4908,-0.979585 -0.86992,-1.527831 -1.46764,-2.122281 -0.18498,-0.183982 -0.32273,-0.346574 -0.30613,-0.361323 0.0308,-0.02736 0.29496,-0.117372 0.5844,-0.199165 0.74709,-0.211119 1.33261,-0.396638 2.82469,-0.894995 1.54739,-0.516846 2.17257,-0.729382 2.35985,-0.802268 0.25001,-0.0973 0.42601,-0.159297 1.10025,-0.387576 0.30032,-0.101685 0.57385,-0.200768 0.60784,-0.22019 0.068,-0.03885 0.2057,-0.08843 0.74115,-0.266819 0.19666,-0.06552 0.51846,-0.179094 0.71511,-0.252394 0.54784,-0.204193 1.13037,-0.411087 1.26932,-0.45082 0.0688,-0.01967 0.17585,-0.05888 0.23782,-0.08713 0.062,-0.02826 0.13194,-0.05135 0.1555,-0.05135 0.0236,0 0.0935,-0.02342 0.15549,-0.05203 0.062,-0.02861 0.17702,-0.0747 0.25569,-0.102398 0.0787,-0.02771 0.25566,-0.09095 0.39331,-0.140574 0.13766,-0.04963 0.379,-0.131517 0.53633,-0.182 0.15733,-0.05048 0.39868,-0.133334 0.53633,-0.184117 0.13767,-0.05078 0.51577,-0.182938 0.84025,-0.293685 0.52801,-0.180202 0.62753,-0.20291 0.94752,-0.216136 0.7814,-0.0323 1.56962,0.309253 2.28064,0.988247 1.1041,1.054392 1.91674,2.893667 2.11672,4.790809 0.0681,0.645812 0.0681,0.920999 0,1.416156 -0.15831,1.153445 -0.68385,2.050518 -1.34261,2.291768 -0.27747,0.101619 -1.06348,0.306906 -1.69618,0.443001 -0.19666,0.04229 -0.50237,0.108395 -0.67935,0.14688 -0.17699,0.03849 -0.44248,0.09572 -0.58997,0.127188 -0.14749,0.03145 -0.36471,0.08021 -0.4827,0.108315 -0.3061,0.07291 -1.3874,0.278607 -2.25259,0.428518 -0.17699,0.03066 -0.42638,0.07952 -0.55421,0.108559 -0.12783,0.02906 -0.36113,0.07553 -0.51845,0.103298 -0.15733,0.02776 -0.46303,0.08247 -0.67936,0.121546 -0.21631,0.03909 -0.49789,0.08732 -0.62572,0.107212 -0.50047,0.07787 -1.31773,0.222372 -1.73413,0.306606 -0.36889,0.07462 -0.92402,0.176987 -2.02018,0.372503 -0.22615,0.04034 -0.53991,0.09702 -0.69723,0.125959 -0.15734,0.02896 -0.2881,0.05293 -0.29062,0.05332 -0.002,3.95e-4 -0.0237,-0.02242 -0.0472,-0.05065 z"
           id="path19070" />
      </g>
      <g
         id="g19475"
         transform="matrix(0.92528689,0,0,0.92528689,-40.591134,-4.6817873)"
         style="stroke:none">
        <path
           id="path19394-3"
           style="fill:#ffffff;fill-opacity:1;stroke:none;stroke-width:0.484119;stroke-linecap:round;stroke-linejoin:round;stroke-miterlimit:4;stroke-dasharray:none;stroke-opacity:0.5"
           d="m -534.74935,-67.493681 c -0.22714,0 -0.43455,0.0299 -1.29294,0.18707 -3.85172,0.70523 -7.32943,2.23655 -10.3482,4.556827 -2.799,2.15138 -4.89251,4.80155 -6.21977,7.873427 -0.78946,1.82714 -1.34464,4.427826 -1.34464,6.298321 0,0.608529 -0.11702,1.454126 -0.36946,2.667537 l -0.12817,0.614434 -0.20981,0.175183 -0.45474,2.044835 c 0.017,0.03645 0.0315,0.08974 0.0449,0.170532 0.0532,0.32021 0.45361,1.450597 0.65733,1.856219 0.9874,1.965894 2.44788,3.282064 4.69067,4.227647 0.53581,0.225904 1.70019,0.571313 2.36522,0.701249 2.25509,0.440624 5.47735,0.431991 8.04862,-0.0217 2.09698,-0.370012 3.05102,-0.606407 5.02293,-1.244368 1.64351,-0.531722 2.74479,-0.977362 4.23593,-1.714108 2.17596,-1.075121 3.71655,-2.118635 5.09839,-3.453535 0.36806,-0.355568 0.55858,-0.505648 0.5824,-0.449585 l 0.15761,-0.180351 0.0176,0.01137 -5.1e-4,-0.08475 0.17415,0.01033 c 0.0958,0.0056 0.30171,0.02927 0.45784,0.05271 0.35502,0.05332 0.5343,0.0098 0.76946,-0.188103 0.10173,-0.0856 0.21259,-0.138814 0.24651,-0.117822 0.0391,0.02416 0.062,0.547984 0.062,1.426784 0,1.567186 -0.0334,1.48018 0.48371,1.270725 l 0.27234,-0.110072 0.0305,-1.474845 c 0.026,-1.272135 0.0426,-1.471499 0.12091,-1.450039 0.0499,0.01369 0.26787,0.03644 0.48422,0.05013 0.37515,0.02375 0.40309,0.01585 0.60513,-0.171567 l 0.21188,-0.196887 0.003,0.111623 0.0842,-0.168466 h 0.27596 c 0.0131,-0.02406 0.15451,-0.04289 0.34623,-0.04289 0.50591,0 1.69664,-0.152194 2.05827,-0.263033 0.93644,-0.28701 1.82478,-1.268569 2.40038,-2.651519 0.24075,-0.578464 0.40839,-1.15637 0.70538,-2.431376 0.16735,-0.718349 0.23908,-0.78854 0.28318,-0.19327 l 0.34984,-1.981274 c -0.50758,-3.118939 -2.41319,-7.371436 -4.06279,-8.981366 -1.456,-1.42097 -3.16312,-2.408877 -4.88756,-2.828247 -1.1157,-0.27133 -1.4428,-0.30693 -2.79104,-0.30593 -1.36446,0.001 -1.77753,0.0499 -3.14709,0.37207 -0.4359,0.10253 -1.99255,0.610817 -2.08775,0.681617 -0.0333,0.0248 -0.22352,0.10877 -0.42322,0.18707 -0.82788,0.32472 -2.21142,1.08696 -3.32846,1.83348 -2.71174,1.81221 -5.28423,4.366987 -6.72415,6.678657 -0.78396,1.25855 -1.59898,2.912839 -2.05155,4.163057 -0.1151,0.317981 -0.24765,0.639341 -0.29456,0.71365 -0.1497,0.23682 -0.70281,2.23003 -0.70281,2.533697 -6e-5,0.108477 -0.23588,0.422818 -0.24287,0.324528 -0.003,-0.03329 -0.0298,-0.183023 -0.0605,-0.332799 -0.12449,-0.609737 -0.18066,-1.936268 -0.12145,-2.888194 0.13542,-2.177489 0.65366,-4.112949 1.61645,-6.037869 2.39247,-4.783347 7.2276,-8.491964 12.81729,-9.830924 1.29455,-0.3101 1.49841,-0.34992 2.34611,-0.45786 0.18516,-0.0236 0.27406,-0.0602 0.24805,-0.10232 -0.0597,-0.0965 -1.85264,-0.0106 -2.8856,0.1385 -0.90763,0.131 -1.13332,0.17881 -2.22004,0.46973 -0.94689,0.25347 -2.21282,0.67434 -2.75227,0.91468 -0.13365,0.0596 -0.488,0.21194 -0.78756,0.33899 -1.6604,0.7043 -3.7568,1.939367 -5.44619,3.208077 -3.24879,2.43982 -5.20067,4.852627 -6.74222,8.334887 -0.63193,1.427518 -1.27381,3.339593 -1.60816,4.792476 l -0.0419,0.181901 -0.0873,-0.167431 c -0.0552,-0.104992 -0.0974,-0.41447 -0.11369,-0.834057 -0.0143,-0.367072 -0.0401,-0.690364 -0.0574,-0.718304 -0.067,-0.108442 0.0887,-1.832517 0.23823,-2.636015 0.087,-0.4674 0.29401,-1.25213 0.46252,-1.75493 1.43568,-4.283647 4.81677,-8.173557 9.70481,-11.165724 0.54735,-0.33504 2.61602,-1.39019 3.08613,-1.57407 0.19971,-0.0781 0.52636,-0.21464 0.72607,-0.30334 0.19968,-0.0887 0.63558,-0.25209 0.9684,-0.36328 0.70781,-0.2365 0.8106,-0.30179 0.47593,-0.30179 z" />
        <path
           id="path19394-3-40"
           style="fill:#ffffff;fill-opacity:0.5;stroke:none;stroke-width:0.484119;stroke-linecap:round;stroke-linejoin:round;stroke-miterlimit:4;stroke-dasharray:none;stroke-opacity:0.5"
           d="m -513.7713,-51.77629 -0.34984,1.981274 c 0.0113,0.15331 0.0218,0.321937 0.0305,0.568957 0.0361,1.026674 -0.0447,1.769105 -0.26508,2.428793 -0.57436,1.719512 -1.63489,2.619383 -3.34502,2.839104 v -5.19e-4 c -0.55743,0.07217 -0.52091,0.07218 -1.12501,0 -0.53274,-0.06366 -1.05503,-0.181443 -1.09553,-0.247012 -0.002,-0.0026 0.005,-0.0048 0.007,-0.0072 h -0.27596 l -0.0842,0.168466 0.0449,2.001943 c 0.0283,1.294805 0.0245,2.162397 -0.0103,2.239658 -0.0452,0.100515 -0.43564,0.25132 -1.92339,0.742072 h 0.002 c -1.02669,0.338666 -1.88357,0.61495 -1.90376,0.61495 -0.0514,-7.76e-4 -0.11194,-1.701255 -0.12194,-3.389456 l -0.008,-1.337386 -0.0176,-0.01137 -0.15761,0.180351 c 0.0195,0.04605 -0.0728,0.230394 -0.2744,0.558107 -0.89702,1.458182 -2.36794,2.80149 -4.30311,3.930507 -0.55911,0.326213 -1.60528,0.865092 -1.92029,0.989086 -0.13314,0.05241 -0.39158,0.163399 -0.57465,0.2465 -0.18306,0.08311 -0.56457,0.238508 -0.84749,0.345196 -0.28291,0.106675 -0.56851,0.215614 -0.6351,0.242364 -0.21228,0.0853 -0.47199,0.170378 -0.93792,0.30644 -0.24964,0.07291 -0.60397,0.181192 -0.78703,0.240813 -0.33997,0.110731 -0.67924,0.196083 -1.69447,0.426331 -1.57838,0.35796 -2.51405,0.497618 -4.82815,0.721403 -0.74295,0.07183 -3.52226,0.0662 -4.24883,-0.0088 -1.31996,-0.136234 -2.59424,-0.339207 -3.32846,-0.529686 -0.90435,-0.234603 -1.66418,-0.504227 -2.54146,-0.902269 -0.35181,-0.159625 -1.22102,-0.688467 -1.54305,-0.938961 -1.23478,-0.960482 -2.06576,-2.204505 -2.33114,-3.490743 -0.14986,-0.72635 -0.17224,-2.205778 -0.0341,-2.258777 0.0352,-0.0135 0.0614,0.0034 0.0832,0.05013 l 0.45474,-2.044835 -0.76687,0.639236 c -2.74844,2.291633 -4.87413,4.43257 -5.40898,5.447213 -0.15923,0.301125 -0.16624,0.353436 -0.16124,1.132747 0.004,0.702654 0.0276,0.891434 0.16642,1.34824 0.44107,1.451139 1.41129,2.76075 2.68251,3.62045 0.70419,0.476218 1.35271,0.760111 2.95487,1.294495 1.33744,0.446093 1.88439,0.635881 3.6313,1.260904 1.22832,0.439473 2.13151,0.665297 3.17706,0.794268 v -5.18e-4 c 0.87357,0.108082 1.4101,0.107995 2.32751,0 0.83765,-0.09861 1.43002,-0.208296 2.13527,-0.395325 0.2413,-0.064 0.65,-0.171492 0.90794,-0.23926 0.46871,-0.123124 1.80052,-0.529915 2.31461,-0.706935 2.59479,-0.893529 3.85061,-1.355492 5.2343,-1.924431 0.26628,-0.109471 0.55242,-0.218895 0.63561,-0.243395 0.0832,-0.02449 0.28731,-0.10627 0.45373,-0.181901 0.77095,-0.350396 2.9812,-1.201195 3.69126,-1.420585 0.23296,-0.07197 0.66886,-0.206391 0.9684,-0.298691 0.29956,-0.0923 0.77594,-0.228322 1.05886,-0.302824 0.28292,-0.07448 0.58291,-0.159014 0.66609,-0.187584 0.0832,-0.02857 0.54576,-0.162301 1.02838,-0.29714 1.24675,-0.348361 2.54204,-0.746861 4.44831,-1.368909 2.66547,-0.869794 5.16184,-1.914507 5.89833,-2.468581 0.87953,-0.661662 2.75717,-2.412042 3.47681,-3.241146 1.30019,-1.497954 1.65658,-2.349048 1.71357,-4.092258 0.0334,-1.021204 -0.0603,-1.564108 -0.38756,-2.245857 -0.22984,-0.478856 -0.90019,-1.14481 -1.4211,-1.411801 l -0.40206,-0.206189 -0.0692,-0.547254 c -0.0169,-0.133916 -0.0405,-0.273624 -0.063,-0.412377 z" />
      </g>
    </g>
  </g>
</svg>
