<?xml version="1.0" encoding="UTF-8" standalone="no"?>
<svg
   xmlns:dc="http://purl.org/dc/elements/1.1/"
   xmlns:cc="http://creativecommons.org/ns#"
   xmlns:rdf="http://www.w3.org/1999/02/22-rdf-syntax-ns#"
   xmlns:svg="http://www.w3.org/2000/svg"
   xmlns="http://www.w3.org/2000/svg"
   xmlns:sodipodi="http://sodipodi.sourceforge.net/DTD/sodipodi-0.dtd"
   xmlns:inkscape="http://www.inkscape.org/namespaces/inkscape"
   width="200"
   height="200"
   viewBox="0 0 52.916665 52.916668"
   version="1.1"
   id="svg11267"
   inkscape:version="1.0.2-2 (e86c870879, 2021-01-15)"
   sodipodi:docname="ico_unisatc.svg">
  <defs
     id="defs11261" />
  <sodipodi:namedview
     id="base"
     pagecolor="#262626"
     bordercolor="#666666"
     borderopacity="1.0"
     inkscape:pageopacity="0.18039216"
     inkscape:pageshadow="2"
     inkscape:zoom="1.4"
     inkscape:cx="179.75226"
     inkscape:cy="114.69674"
     inkscape:document-units="px"
     inkscape:current-layer="layer1"
     inkscape:document-rotation="0"
     showgrid="false"
     units="px"
     fit-margin-top="0"
     fit-margin-left="0"
     fit-margin-right="0"
     fit-margin-bottom="0"
     inkscape:window-width="1600"
     inkscape:window-height="837"
     inkscape:window-x="-8"
     inkscape:window-y="-8"
     inkscape:window-maximized="1"
     inkscape:pagecheckerboard="true" />
  <metadata
     id="metadata11264">
    <rdf:RDF>
      <cc:Work
         rdf:about="">
        <dc:format>image/svg+xml</dc:format>
        <dc:type
           rdf:resource="http://purl.org/dc/dcmitype/StillImage" />
        <dc:title></dc:title>
      </cc:Work>
    </rdf:RDF>
  </metadata>
  <g
     inkscape:label="Layer 1"
     inkscape:groupmode="layer"
     id="layer1"
     transform="translate(-35.897881,-89.759291)">
    <g
       id="g19260"
       transform="matrix(0.92250227,0,0,0.92250227,921.69456,129.21394)">
      <g
         id="g19258"
         transform="matrix(0.49928608,0,0,0.49928608,-432.87293,-109.77458)"
         style="fill:#ffffff">
        <path
           style="opacity:1;fill:#ffffff;fill-opacity:1;stroke:none;stroke-width:0.572905;stroke-linecap:round;stroke-linejoin:round;stroke-miterlimit:4;stroke-dasharray:none;stroke-opacity:0.5"
           d="m -1020.3183,232.71794 c -0.1661,-0.0355 -0.1584,-0.0813 0.05,-0.29882 0.3112,-0.32498 0.8848,-1.35694 1.069,-1.92326 0.3752,-1.15328 0.4389,-1.64788 0.4358,-3.38003 0,-1.17771 -0.037,-1.82326 -0.1286,-2.39904 -0.1568,-0.98264 -0.3859,-2.00315 -0.519,-2.31195 -0.056,-0.12934 -0.1014,-0.2856 -0.1014,-0.34724 0,-0.0616 -0.047,-0.21362 -0.1048,-0.33773 -0.058,-0.12412 -0.2011,-0.48969 -0.3189,-0.81237 -0.3065,-0.83948 -0.5992,-1.44454 -1.1605,-2.3983 -1.4345,-2.4376 -3.1163,-3.87519 -5.3623,-4.58353 l -0.2506,-0.079 0.249,-0.1039 c 0.137,-0.0571 0.4593,-0.15118 0.7162,-0.20898 0.2569,-0.0578 0.6443,-0.15076 0.8609,-0.20657 0.3998,-0.10301 1.204,-0.28996 2.1126,-0.49113 0.2757,-0.061 0.9202,-0.19117 1.4323,-0.28917 1.2447,-0.23824 1.9543,-0.381 2.6855,-0.5403 1.0897,-0.23742 3.0364,-0.60824 3.5806,-0.68204 0.1772,-0.0241 0.5478,-0.088 0.8236,-0.14206 0.2756,-0.0541 0.9041,-0.1666 1.3964,-0.25002 0.4923,-0.0834 1.0885,-0.19854 1.3248,-0.25582 0.2364,-0.0573 0.6392,-0.13441 0.8952,-0.1714 0.256,-0.037 0.6427,-0.10087 0.8594,-0.14196 0.2166,-0.0411 0.7967,-0.1402 1.289,-0.22022 1.3281,-0.21587 2.0426,-0.33991 2.7213,-0.47247 0.3348,-0.0654 0.8504,-0.15997 1.1458,-0.2102 0.2954,-0.0502 0.9077,-0.16037 1.3607,-0.24477 0.4529,-0.0844 1.0974,-0.19905 1.4322,-0.25478 1.7541,-0.29203 3.39247,-0.59052 3.71619,-0.67704 0.24762,-0.0662 0.78105,-0.17521 1.94127,-0.3968 0.29539,-0.0564 0.87546,-0.16862 1.28903,-0.24932 0.41357,-0.0807 0.99364,-0.19195 1.28902,-0.24721 0.51612,-0.0965 1.1729,-0.24205 2.39906,-0.53148 1.84118,-0.43461 2.2684,-0.52815 2.72314,-0.59624 0.47369,-0.0709 0.53237,-0.0638 1.00259,0.12226 1.54863,0.61269 3.16804,1.96302 4.31628,3.59915 0.56689,0.80778 1.73318,3.02896 1.73318,3.30084 0,0.042 0.0456,0.18209 0.10133,0.31144 0.44895,1.04186 0.45562,1.1109 0.14764,1.52421 -0.581,0.7797 -0.82642,2.26017 -0.57375,3.46129 0.13602,0.64659 0.39119,1.17704 0.82556,1.71606 0.25728,0.31929 0.32726,0.45254 0.26463,0.50395 -0.10382,0.0853 -0.58031,0.22695 -1.48156,0.44051 -0.37417,0.0887 -0.82534,0.20454 -1.00259,0.25749 -0.17721,0.053 -0.5317,0.15896 -0.78774,0.23556 -0.61997,0.18552 -1.34249,0.38993 -2.04097,0.57744 -0.81759,0.21949 -1.16917,0.32141 -2.21998,0.64353 -1.21637,0.37286 -2.20298,0.66417 -3.04359,0.89866 -0.37417,0.10439 -0.79311,0.23346 -0.93096,0.28684 -0.41719,0.16155 -0.79494,0.28047 -2.47065,0.77778 -1.26974,0.37684 -1.55176,0.46859 -1.80115,0.58598 -0.12412,0.0584 -0.25675,0.10623 -0.29478,0.10623 -0.038,0 -0.43595,0.115 -0.88431,0.25556 -0.44839,0.14056 -1.18584,0.37099 -1.6388,0.51209 -0.45294,0.14109 -0.96859,0.31312 -1.14579,0.3823 -0.1773,0.0692 -0.564,0.19691 -0.8594,0.28386 -0.2954,0.087 -0.666,0.19976 -0.8235,0.2507 -0.1576,0.0509 -0.5765,0.17905 -0.931,0.28469 -0.3545,0.10565 -0.709,0.22102 -0.7877,0.25639 -0.1475,0.0662 -1.7343,0.57184 -2.6855,0.85571 -0.2954,0.0882 -1.0044,0.31483 -1.5755,0.50371 -0.5711,0.18887 -1.1512,0.3753 -1.2891,0.41428 -1.0041,0.28389 -2.0726,0.60423 -2.6496,0.79434 -1.0085,0.33226 -1.4382,0.46156 -2.5065,0.75424 -0.5317,0.14568 -1.0957,0.30705 -1.2532,0.3586 -0.1576,0.0515 -0.5765,0.17873 -0.931,0.28262 -0.3545,0.10389 -0.743,0.21996 -0.8634,0.25794 -0.216,0.0681 -2.0133,0.53802 -2.4308,0.63555 -0.1182,0.0276 -0.2712,0.0381 -0.3402,0.0234 z"
           id="path19242" />
        <path
           style="opacity:1;fill:#ffffff;fill-opacity:0.4;stroke:none;stroke-width:0.572905;stroke-linecap:round;stroke-linejoin:round;stroke-miterlimit:4;stroke-dasharray:none;stroke-opacity:0.5"
           d="m -1024.0959,232.53082 c -1.0957,-0.42916 -1.8407,-1.13442 -2.6394,-2.4987 -0.5398,-0.92208 -0.7791,-1.54513 -1.0933,-2.84731 -0.1391,-0.57625 -0.1641,-0.87599 -0.1669,-2.00253 0,-1.21763 0.011,-1.36541 0.169,-1.82614 0.2669,-0.77641 0.5761,-1.19892 1.1325,-1.54744 0.3725,-0.23335 1.0548,-0.20179 1.5322,0.0709 0.646,0.36892 1.088,0.86917 1.4845,1.68012 0.5319,1.08799 0.684,1.69379 0.6862,2.73259 0,0.77918 -0.016,0.89611 -0.1846,1.25323 -0.2327,0.49191 -0.4207,0.69014 -0.7372,0.77752 -0.6221,0.17178 -1.2089,-0.27394 -1.6674,-1.26648 -0.2242,-0.4855 -0.2574,-0.63276 -0.2849,-1.26556 -0.026,-0.60959 -0.011,-0.75292 0.106,-0.96342 0.251,-0.45286 0.7153,-0.42593 1.0458,0.0607 0.1963,0.28908 0.4027,0.85736 0.4027,1.10899 0,0.22433 0.2146,0.40247 0.4848,0.40247 0.2852,0 0.3233,-0.0696 0.312,-0.57001 -0.021,-0.92808 -0.5886,-1.93421 -1.2749,-2.25991 -0.3556,-0.16872 -0.9918,-0.1195 -1.301,0.10062 -0.8405,0.59849 -0.8948,2.78875 -0.1042,4.20328 0.269,0.48133 0.8202,1.04802 1.2503,1.28549 0.3189,0.17606 0.4617,0.21058 0.8599,0.20785 0.401,-0.003 0.5325,-0.0373 0.821,-0.2157 0.461,-0.28502 0.7538,-0.68848 0.9626,-1.32653 0.1506,-0.4601 0.1726,-0.65731 0.1674,-1.4967 0,-0.80041 -0.038,-1.09047 -0.194,-1.68554 -0.3342,-1.27694 -0.6489,-1.9043 -1.4238,-2.83828 -0.4896,-0.59017 -1.3747,-1.07736 -2.1336,-1.17435 -0.5813,-0.0743 -1.5723,0.3399 -1.9266,0.80525 -0.085,0.11124 -0.2914,0.37822 -0.4594,0.59328 l -0.3055,0.39101 -0.7857,0.20378 c -0.907,0.23523 -1.5532,0.40654 -2.3613,0.62592 -1.3446,0.36511 -1.4201,0.37678 -1.5235,0.23545 -0.1716,-0.23466 0.049,-2.22159 0.3873,-3.49428 0.3361,-1.26307 0.5841,-1.83953 1.186,-2.75711 0.4653,-0.70923 0.7032,-0.97491 1.3027,-1.45483 0.558,-0.44667 0.9484,-0.64054 1.6195,-0.80428 1.3103,-0.3197 2.73,-0.0321 4.006,0.81146 0.6453,0.4266 1.7545,1.48842 2.1157,2.0253 0.1175,0.17463 0.3339,0.4839 0.481,0.68726 0.459,0.63451 1.3241,2.3966 1.6292,3.31833 0.5399,1.63098 0.933,3.87302 0.9341,5.32722 0,1.31243 -0.4538,3.24952 -0.9433,4.01829 -0.374,0.58757 -0.8289,1.01258 -1.3692,1.27958 -0.4931,0.24364 -0.5669,0.25958 -1.1656,0.25182 -0.4696,-0.006 -0.7437,-0.0492 -1.0331,-0.16255 z"
           id="path19244" />
        <path
           style="opacity:1;fill:#ffffff;fill-opacity:0.4;stroke:none;stroke-width:0.572905;stroke-linecap:round;stroke-linejoin:round;stroke-miterlimit:4;stroke-dasharray:none;stroke-opacity:0.5"
           d="m -978.40671,220.94591 c -0.52594,-0.16538 -1.18785,-0.58756 -1.60129,-1.02133 -0.15324,-0.16077 -0.41034,-0.56624 -0.57131,-0.90103 -0.28959,-0.6022 -0.29274,-0.61754 -0.29538,-1.43429 -0.003,-0.84033 0.0284,-0.98082 0.37991,-1.71355 0.3406,-0.71009 1.19976,-1.4274 2.07145,-1.72946 0.56663,-0.19635 1.54779,-0.19648 2.11122,-2.7e-4 0.80465,0.28019 1.70122,1.02095 2.03898,1.68468 0.2399,0.47138 0.4472,1.27096 0.4472,1.72485 0,0.43937 -0.20513,1.24998 -0.42587,1.6829 -0.21095,0.41374 -1.00973,1.19718 -1.47611,1.44782 -0.79587,0.42768 -1.82679,0.52762 -2.6788,0.25971 z"
           id="path19246" />
        <path
           style="opacity:1;fill:#ffffff;fill-opacity:0.4;stroke:none;stroke-width:0.572905;stroke-linecap:round;stroke-linejoin:round;stroke-miterlimit:4;stroke-dasharray:none;stroke-opacity:0.5"
           d="m -977.49662,233.72214 c -0.0711,-0.13014 0.0764,-11.48858 0.15017,-11.56232 0.12359,-0.12358 1.07628,-0.26555 1.15105,-0.17153 0.0918,0.11541 0.21068,0.88514 0.29424,1.90495 0.0403,0.49234 0.10599,1.16909 0.14594,1.50388 0.0661,0.5543 0.13521,1.33872 0.35621,4.04614 0.0418,0.51203 0.12335,1.38751 0.18124,1.94551 0.12123,1.16847 0.1346,1.81418 0.0375,1.81418 -0.0373,0 -0.26021,-0.1128 -0.49543,-0.25065 -0.23521,-0.13786 -0.49268,-0.25065 -0.57213,-0.25065 -0.0931,0 -0.30073,0.19122 -0.58338,0.5371 -0.40159,0.49148 -0.5873,0.62638 -0.6654,0.48339 z"
           id="path19248" />
        <path
           style="opacity:1;fill:#ffffff;fill-opacity:0.4;stroke:none;stroke-width:0.572905;stroke-linecap:round;stroke-linejoin:round;stroke-miterlimit:4;stroke-dasharray:none;stroke-opacity:0.5"
           d="m -973.8581,227.13373 c -0.21831,-0.70261 -0.71887,-2.12615 -0.82468,-2.34532 -0.095,-0.19665 -0.78274,-2.21026 -0.90297,-2.64355 -0.1134,-0.40863 -0.0848,-0.4636 0.34115,-0.65567 l 0.2984,-0.13456 0.1496,0.19921 c 0.0823,0.10956 0.40968,0.70492 0.72755,1.32301 0.50583,0.98354 1.10934,2.14699 1.73455,3.34382 0.1029,0.19694 0.23329,0.41379 0.28977,0.48189 0.18275,0.22033 -0.0615,0.2497 -0.72284,0.0869 -0.2626,-0.0646 -0.37724,0.0435 -0.48032,0.45288 -0.18185,0.72212 -0.36203,0.69004 -0.61021,-0.10864 z"
           id="path19250" />
        <path
           style="opacity:1;fill:#ffffff;fill-opacity:0.979675;stroke:none;stroke-width:0.572905;stroke-linecap:round;stroke-linejoin:round;stroke-miterlimit:4;stroke-dasharray:none;stroke-opacity:0.5"
           d="m -973.03191,218.99232 c -0.0664,-0.0799 -0.0645,-0.13972 0.008,-0.26855 0.0643,-0.11365 0.094,-0.46939 0.0945,-1.13248 0,-1.09128 -0.10912,-1.52426 -0.59124,-2.32743 -0.32824,-0.54681 -1.1752,-1.40084 -1.59282,-1.60612 -0.5421,-0.26647 -1.22317,-0.50646 -1.43727,-0.50646 -0.23445,0 -0.53411,-0.28243 -0.60169,-0.56707 -0.11356,-0.47843 -0.81568,-2.21104 -1.23571,-3.04939 -0.983,-1.96197 -1.74233,-3.06003 -2.93947,-4.25063 -0.37049,-0.36849 -0.6464,-0.69414 -0.61314,-0.72368 0.0617,-0.0548 0.59076,-0.23508 1.17046,-0.3989 1.49633,-0.42284 2.66904,-0.79441 5.65746,-1.79255 3.09922,-1.03517 4.35136,-1.46085 4.72646,-1.60683 0.50072,-0.19488 0.85323,-0.31905 2.20363,-0.77626 0.60151,-0.20366 1.14935,-0.40211 1.21743,-0.44101 0.13621,-0.0778 0.41198,-0.17711 1.48442,-0.5344 0.39389,-0.13122 1.03841,-0.3587 1.43227,-0.50551 1.09723,-0.40897 2.26396,-0.82335 2.54227,-0.90293 0.13785,-0.0394 0.35219,-0.11793 0.47631,-0.1745 0.12411,-0.0566 0.26426,-0.10284 0.31144,-0.10284 0.0472,0 0.18732,-0.0469 0.31144,-0.10421 0.12409,-0.0573 0.35454,-0.14961 0.5121,-0.20509 0.15756,-0.0555 0.51205,-0.18217 0.78774,-0.28155 0.27573,-0.0994 0.75909,-0.26341 1.07421,-0.36452 0.3151,-0.10111 0.79849,-0.26705 1.07418,-0.36876 0.27573,-0.10171 1.03302,-0.3664 1.68291,-0.58821 1.05752,-0.36092 1.25685,-0.4064 1.89775,-0.43289 1.56504,-0.0647 3.14373,0.61939 4.5678,1.97932 2.21136,2.1118 3.83897,5.79561 4.23949,9.59532 0.13634,1.29347 0.1364,1.84463 0,2.83636 -0.31707,2.31019 -1.36966,4.1069 -2.68906,4.59009 -0.55573,0.20353 -2.13,0.61469 -3.3972,0.88727 -0.39388,0.0847 -1.00618,0.2171 -1.36064,0.29418 -0.35449,0.0771 -0.88623,0.19171 -1.18163,0.25474 -0.29541,0.063 -0.73047,0.16065 -0.96679,0.21694 -0.61307,0.14603 -2.77876,0.55801 -4.51162,0.85826 -0.35449,0.0614 -0.85397,0.15926 -1.11001,0.21743 -0.25601,0.0582 -0.72329,0.15127 -1.03838,0.20689 -0.3151,0.0556 -0.92739,0.16518 -1.36065,0.24344 -0.43325,0.0783 -0.99721,0.17489 -1.25323,0.21473 -1.00237,0.15597 -2.63924,0.44538 -3.47323,0.61409 -0.73883,0.14946 -1.85068,0.35448 -4.04614,0.74607 -0.45294,0.0808 -1.08136,0.19432 -1.39645,0.25228 -0.31512,0.058 -0.57703,0.10602 -0.58206,0.1068 -0.005,7.9e-4 -0.0475,-0.0449 -0.0945,-0.10144 z"
           id="path19252" />
        <path
           style="opacity:1;fill:#ffffff;fill-opacity:1;stroke:none;stroke-width:0.81021;stroke-linecap:round;stroke-linejoin:round;stroke-miterlimit:4;stroke-dasharray:none;stroke-opacity:0.5"
           d="m -1043.333,205.33851 c -0.4028,-0.0736 -0.834,-0.20513 -0.9584,-0.2922 -0.3578,-0.25067 -0.587,-0.95033 -0.4862,-1.4841 0.076,-0.40323 0.1617,-0.88218 0.5136,-2.87852 0.059,-0.33421 0.1709,-0.92668 0.2489,-1.31659 0.338,-1.68926 0.4549,-2.31687 0.7076,-3.79786 0.1474,-0.86338 0.4199,-2.34454 0.6057,-3.29148 0.1858,-0.94693 0.4359,-2.31416 0.5558,-3.03828 0.2747,-1.65928 0.3547,-1.91719 0.7743,-2.49484 0.3362,-0.46289 0.3409,-0.48405 0.3409,-1.54672 v -1.07742 l -0.3908,-0.42816 c -0.4623,-0.5066 -0.5726,-0.70747 -0.6625,-1.20592 -0.1418,-0.78586 0.1413,-1.36298 1.0409,-2.12227 l 0.3162,-0.26684 v -3.51235 c 0,-2.05485 -0.04,-3.58788 -0.097,-3.69436 -0.1009,-0.18857 -0.3737,-0.32044 -1.0673,-0.51605 -0.4185,-0.11804 -0.4685,-0.13162 -1.8229,-0.49503 -0.9727,-0.26098 -1.7804,-0.4928 -2.3294,-0.66851 -0.4579,-0.14657 -0.7368,-0.22465 -2.38,-0.66642 -0.6406,-0.17221 -1.5065,-0.4179 -1.9242,-0.54598 -0.4178,-0.12807 -1.466,-0.42411 -2.3294,-0.65787 -0.8634,-0.23376 -1.9116,-0.53195 -2.3293,-0.66263 -0.4178,-0.13069 -0.8508,-0.25262 -0.9622,-0.27096 -0.6233,-0.10262 0.1344,-0.49336 1.9243,-0.99232 1.0719,-0.2988 3.2202,-0.92675 3.6459,-1.06571 0.2785,-0.0909 1.2812,-0.39344 2.2281,-0.67232 1.657,-0.48798 3.9721,-1.17213 7.9502,-2.34942 1.0305,-0.30496 2.4205,-0.72022 3.0889,-0.9228 0.6684,-0.20258 1.4432,-0.43105 1.7217,-0.50772 0.2785,-0.0767 0.8938,-0.26048 1.3672,-0.40846 0.7679,-0.24001 2.4665,-0.73384 3.2915,-0.95694 0.1671,-0.0452 0.828,-0.24849 1.4685,-0.45178 0.6406,-0.20329 1.347,-0.41912 1.5698,-0.47962 0.6051,-0.16432 1.1776,-0.33282 2.6332,-0.77499 0.7241,-0.21998 1.59,-0.47722 1.9242,-0.57163 0.3342,-0.0944 1.0862,-0.32086 1.6711,-0.5032 0.5849,-0.18234 1.3596,-0.41191 1.7217,-0.51015 0.362,-0.0982 0.7722,-0.21541 0.9115,-0.26038 0.1392,-0.045 0.5266,-0.15908 0.8608,-0.25357 0.3342,-0.0945 0.79,-0.23322 1.0128,-0.30831 0.3634,-0.12247 1.0867,-0.33442 2.7851,-0.81613 0.3063,-0.0869 0.876,-0.26113 1.2659,-0.38718 0.8908,-0.28797 1.665,-0.51603 2.38,-0.70108 0.3064,-0.0793 0.9216,-0.26516 1.3672,-0.41307 0.4457,-0.14791 1.0381,-0.33172 1.3166,-0.40847 1.3904,-0.38313 2.1357,-0.60182 3.3261,-0.97595 l 1.3006,-0.40875 1.0288,0.21261 c 0.5658,0.11693 1.3478,0.28278 1.7377,0.36855 0.69475,0.15283 2.84645,0.57415 3.8487,0.75361 0.2785,0.0499 0.8026,0.15666 1.16468,0.23732 1.3244,0.29501 2.61485,0.56011 4.00039,0.82181 0.77984,0.14729 1.73691,0.33697 2.1268,0.42152 0.38992,0.0846 0.9824,0.21332 1.3166,0.28616 1.22695,0.2674 3.41606,0.69615 4.49749,0.88085 0.30123,0.0514 0.57994,0.11348 0.61936,0.13784 0.0394,0.0244 0.75002,0.17814 1.57912,0.34173 2.08063,0.41054 3.6237,0.71999 4.34313,0.871 0.66061,0.13866 3.04414,0.62247 4.65873,0.94564 0.557,0.11149 1.67357,0.34015 2.48126,0.50814 0.80767,0.16799 2.28883,0.46763 3.29147,0.66586 1.00264,0.19823 2.23314,0.44883 2.73447,0.5569 0.50131,0.10806 1.95969,0.40448 3.24083,0.65871 1.28114,0.25424 2.73952,0.55063 3.24083,0.65866 0.79047,0.17033 3.86043,0.7885 5.06381,1.01966 0.42227,0.0811 3.64019,0.72558 4.60808,0.92288 0.30637,0.0625 0.80767,0.1716 1.11403,0.24256 0.30636,0.071 1.55967,0.32176 2.78509,0.55735 1.22544,0.23558 2.29314,0.44748 2.37265,0.47088 0.28247,0.0831 -0.11936,0.31647 -1.35988,0.7897 -0.66842,0.25498 -1.30646,0.50651 -1.41788,0.55895 -0.25754,0.12123 -3.45477,1.39755 -5.11445,2.04168 -0.69625,0.27022 -1.3571,0.53531 -1.46849,0.58908 -0.30824,0.14876 -3.74679,1.51283 -4.60806,1.82799 -0.41778,0.15288 -1.10138,0.42371 -1.51916,0.60185 -0.41775,0.17814 -1.73942,0.70942 -2.937,1.18063 -1.19759,0.4712 -2.72434,1.07988 -3.39276,1.35261 -0.66841,0.27273 -1.53431,0.61739 -1.92423,0.7659 -0.38992,0.14852 -0.90186,0.35694 -1.13763,0.46317 -0.23577,0.10622 -0.89659,0.37217 -1.46852,0.59099 -0.57189,0.21883 -1.90571,0.74863 -2.96404,1.17735 -1.05834,0.42871 -2.20883,0.88857 -2.55665,1.0219 -1.84634,0.70777 -5.03147,1.97915 -5.54995,2.21532 -0.16957,0.0772 -0.6709,0.27437 -1.11403,0.43806 -0.44315,0.1637 -1.26148,0.48853 -1.81848,0.72184 -0.55703,0.23331 -1.21785,0.4936 -1.46852,0.57841 -0.25066,0.0848 -0.60385,0.21804 -0.78488,0.29606 -0.18103,0.078 -0.50007,0.21329 -0.70893,0.30062 -0.20889,0.0873 -0.47096,0.1997 -0.58234,0.24975 -0.11142,0.05 -1.31914,0.52785 -2.68383,1.06178 -1.3647,0.53394 -2.61798,1.03273 -2.78509,1.10842 -0.47918,0.21705 -2.07406,0.82808 -2.65879,1.01863 -0.61103,0.19913 -0.41148,0.23393 -2.91143,-0.50767 -1.05835,-0.31396 -2.5852,-0.75225 -3.39285,-0.97399 -0.80775,-0.22173 -1.69645,-0.47132 -1.97495,-0.55464 -0.8998,-0.26917 -1.0916,-0.3238 -2.5826,-0.73547 -0.8076,-0.22301 -1.7191,-0.47938 -2.0255,-0.56972 -0.6646,-0.19598 -1.5544,-0.44898 -1.9749,-0.56151 -0.1671,-0.0447 -0.6684,-0.17805 -1.114,-0.29628 -0.4456,-0.11822 -0.9242,-0.25538 -1.0634,-0.30479 -0.3503,-0.12428 -1.1103,-0.33944 -2.8864,-0.81714 -0.8355,-0.22473 -1.6331,-0.44925 -1.7723,-0.49894 -0.3102,-0.1107 -1.0609,-0.32524 -2.3294,-0.66577 -1.1405,-0.30619 -1.9261,-0.53036 -2.4812,-0.70804 -0.458,-0.14656 -0.7368,-0.22465 -2.38,-0.66642 -0.6406,-0.17221 -1.5293,-0.42463 -1.9749,-0.56094 -0.4456,-0.1363 -0.9697,-0.29045 -1.1647,-0.34256 -0.1949,-0.0521 -1.1748,-0.32804 -2.1774,-0.61319 -1.0027,-0.28514 -2.2332,-0.62677 -2.7345,-0.75919 -0.5013,-0.13241 -1.2988,-0.35772 -1.7723,-0.5007 -0.4735,-0.14297 -1.2798,-0.37249 -1.7918,-0.51004 -0.512,-0.13754 -1.5602,-0.4344 -2.3293,-0.65968 -2.6076,-0.76375 -2.9532,-0.84156 -3.1206,-0.70264 -0.1289,0.10696 -0.1515,0.62369 -0.1515,3.46006 v 3.33432 l 0.2455,0.22327 c 0.135,0.12279 0.3836,0.34942 0.5524,0.50361 0.1826,0.16681 0.3767,0.50156 0.4792,0.82657 0.2306,0.73168 0.074,1.31542 -0.5353,2.00209 l -0.438,0.49306 v 1.10713 c 0,1.07524 0.01,1.11672 0.2916,1.43981 0.3118,0.35575 0.6199,1.13371 0.6199,1.5651 0,0.14477 0.043,0.42801 0.095,0.62943 0.052,0.20142 0.1689,0.77639 0.2596,1.2777 0.091,0.50132 0.205,1.09379 0.2539,1.31659 0.049,0.22281 0.2088,1.08872 0.3555,1.92425 0.1466,0.83553 0.3067,1.74702 0.3559,2.02553 0.088,0.49744 0.2742,1.48435 0.5647,2.98764 0.406,2.10125 0.8602,4.72664 0.9213,5.32576 0.056,0.54523 -0.086,0.95583 -0.4404,1.27459 -0.1032,0.0929 -0.5687,0.24087 -1.0344,0.32891 -1.0799,0.20417 -5.2585,0.20698 -6.3673,0.004 z"
           id="path19254" />
        <path
           style="opacity:1;fill:#ffffff;fill-opacity:0.5;stroke:none;stroke-width:0.81021;stroke-linecap:round;stroke-linejoin:round;stroke-miterlimit:4;stroke-dasharray:none;stroke-opacity:0.5"
           d="m -1005.6854,202.08443 c -4.749,-0.20952 -7.8134,-0.56761 -11.4949,-1.34326 -2.6949,-0.5678 -2.9592,-0.63732 -4.9839,-1.31121 -2.6692,-0.88838 -4.834,-2.01564 -6.15,-3.20242 -0.243,-0.21913 -0.8517,-1.03147 -1.0245,-1.36723 -0.2369,-0.46028 -0.3643,-1.95679 -0.3278,-3.8485 0.029,-1.49005 0.034,-2.85858 0.017,-4.05105 -0.01,-0.36206 0.01,-2.51544 0.03,-4.7853 0.036,-3.70195 0.056,-4.127 0.202,-4.127 0.2039,0 6.7865,1.84809 7.9332,2.22729 0.1392,0.046 0.7317,0.20631 1.3166,0.35613 0.5848,0.14982 1.4052,0.37639 1.823,0.50349 1.2404,0.37738 1.8109,0.54053 3.0382,0.86891 1.439,0.38499 2.8093,0.78594 3.1225,0.9136 0.1298,0.0529 0.6084,0.18409 1.0634,0.29145 1.5145,0.35734 1.7381,0.42026 1.835,0.5164 0.053,0.0525 0.2352,0.0975 0.4051,0.0999 0.3392,0.005 1.077,0.1951 1.4736,0.37987 0.1392,0.0649 0.595,0.20797 1.0127,0.31798 0.4178,0.11001 1.0103,0.2736 1.3166,0.36353 0.3064,0.0899 0.6938,0.20163 0.8609,0.2482 0.1671,0.0466 0.6228,0.17825 1.0127,0.29261 0.39,0.11436 1.2331,0.34189 1.8737,0.50563 0.6405,0.16374 1.41535,0.38856 1.72175,0.4996 0.6482,0.23496 1.9037,0.55815 2.81685,0.72513 0.3516,0.0643 0.7916,0.20248 0.9778,0.30705 0.28372,0.15937 0.97423,0.36038 1.91898,0.55862 0.10671,0.0224 0.38904,-0.0481 0.62743,-0.15674 0.23839,-0.1086 0.45736,-0.19745 0.48662,-0.19745 0.0293,0 0.3166,-0.11654 0.63855,-0.25897 0.70361,-0.31129 0.86955,-0.38009 1.39554,-0.57862 0.22281,-0.0841 0.70134,-0.27198 1.06339,-0.41752 0.36208,-0.14554 0.71467,-0.26449 0.78354,-0.26433 0.22672,5.3e-4 2.2161,-0.78309 2.61932,-1.03177 0.21725,-0.13398 0.66844,-0.32712 1.00267,-0.42921 0.67661,-0.20669 2.18672,-0.77888 2.88636,-1.09368 0.25067,-0.11278 0.86593,-0.35602 1.36724,-0.54054 0.91958,-0.33848 4.08101,-1.59298 4.45613,-1.76828 0.53941,-0.25205 2.33805,-0.90897 2.48878,-0.90897 0.15738,0 0.17682,0.45291 0.24667,5.74743 0.0753,5.70884 0.0392,7.50254 -0.16687,8.27932 -0.12856,0.48464 -0.82558,1.49101 -1.37898,1.99097 -0.80987,0.73167 -2.0973,1.49192 -3.91208,2.31014 -0.74999,0.33815 -3.73054,1.30009 -4.87323,1.57279 -1.49534,0.35686 -4.40563,0.92673 -5.62081,1.10062 -4.90894,0.70245 -10.42255,0.94703 -15.90055,0.70535 z"
           id="path19256" />
      </g>
    </g>
  </g>
</svg>
