<?xml version="1.0" encoding="UTF-8" standalone="no"?>
<svg
   xmlns:dc="http://purl.org/dc/elements/1.1/"
   xmlns:cc="http://creativecommons.org/ns#"
   xmlns:rdf="http://www.w3.org/1999/02/22-rdf-syntax-ns#"
   xmlns:svg="http://www.w3.org/2000/svg"
   xmlns="http://www.w3.org/2000/svg"
   xmlns:sodipodi="http://sodipodi.sourceforge.net/DTD/sodipodi-0.dtd"
   xmlns:inkscape="http://www.inkscape.org/namespaces/inkscape"
   width="200"
   height="200"
   viewBox="0 0 52.916665 52.916668"
   version="1.1"
   id="svg11267"
   inkscape:version="1.0.2-2 (e86c870879, 2021-01-15)"
   sodipodi:docname="ico_financeiro.svg">
  <defs
     id="defs11261" />
  <sodipodi:namedview
     id="base"
     pagecolor="#262626"
     bordercolor="#666666"
     borderopacity="1.0"
     inkscape:pageopacity="0.18039216"
     inkscape:pageshadow="2"
     inkscape:zoom="1.979899"
     inkscape:cx="162.87319"
     inkscape:cy="76.527377"
     inkscape:document-units="px"
     inkscape:current-layer="g10179"
     inkscape:document-rotation="0"
     showgrid="false"
     units="px"
     fit-margin-top="0"
     fit-margin-left="0"
     fit-margin-right="0"
     fit-margin-bottom="0"
     inkscape:window-width="1600"
     inkscape:window-height="837"
     inkscape:window-x="1358"
     inkscape:window-y="-8"
     inkscape:window-maximized="1"
     inkscape:pagecheckerboard="true" />
  <metadata
     id="metadata11264">
    <rdf:RDF>
      <cc:Work
         rdf:about="">
        <dc:format>image/svg+xml</dc:format>
        <dc:type
           rdf:resource="http://purl.org/dc/dcmitype/StillImage" />
        <dc:title></dc:title>
      </cc:Work>
    </rdf:RDF>
  </metadata>
  <g
     inkscape:label="Layer 1"
     inkscape:groupmode="layer"
     id="layer1"
     transform="translate(-35.897881,-89.759291)">
    <g
       id="g10179"
       style="display:inline"
       transform="matrix(0.89126861,0,0,0.89126861,565.69071,-237.25665)">
      <g
         id="g10409"
         transform="matrix(1.2096238,0,0,1.2096238,117.37682,-83.022055)"
         style="display:inline">
        <path
           style="display:inline;fill:#ffffff;fill-opacity:0.399194;stroke:none;stroke-width:0.598286px;stroke-linecap:butt;stroke-linejoin:miter;stroke-opacity:1"
           d="m -548.41217,388.8534 -16.18173,-15.54713 c -1.23237,-0.76645 -2.32832,-0.7143 -3.27868,0.21143 l -4.97087,4.86507 z"
           id="path10269-9"
           sodipodi:nodetypes="ccccc" />
        <path
           style="display:inline;fill:#ffffff;fill-opacity:0.600807;stroke:none;stroke-width:0.598286px;stroke-linecap:butt;stroke-linejoin:miter;stroke-opacity:1"
           d="m -552.21967,390.01683 -24.21971,-11.10515 c -1.82809,-0.41622 -2.71231,0.42607 -3.27867,1.69218 l -4.23055,9.41297 z"
           id="path10271-3"
           sodipodi:nodetypes="ccccc" />
        <path
           id="path10275-9"
           style="display:inline;fill:#ffffff;stroke:none;stroke-width:2.26124px;stroke-linecap:butt;stroke-linejoin:miter;stroke-opacity:1"
           d="m 927.26562,2452.9375 c -4.04999,0.8179 -7.31318,2.686 -7.99414,7.9961 v 87.9414 c 0.16252,5.646 2.63524,9.6614 9.19336,10.793 h 155.49606 c 7.6239,-1.3049 8.1326,-5.7724 9.1934,-9.9942 v -89.541 c -1.545,-4.3047 -4.237,-7.0308 -8.793,-7.1953 z m 23.98438,12.793 h 109.127 c 1.7438,11.0799 9.1888,17.228 20.7871,19.7851 v 42.9727 c -10.8559,2.0026 -17.5929,8.3907 -20.1875,19.1875 H 949.05078 c -0.81252,-11.1435 -6.58604,-18.0354 -18.58789,-19.5879 v -44.3711 c 13.61019,-0.6509 19.13398,-7.7698 20.78711,-17.9863 z"
           transform="matrix(0.26458333,0,0,0.26458333,-830.13361,-256.7687)" />
        <g
           id="g10401">
          <path
             id="path10279-3"
             style="display:inline;fill:#ffffff;fill-opacity:0.5;stroke:none;stroke-width:0.226124;stroke-linecap:round;stroke-linejoin:round;stroke-miterlimit:4;stroke-dasharray:none;stroke-opacity:1"
             d="m 1005.5645,2471.9629 a 34.201251,34.201251 0 0 0 -34.08012,34.2012 34.201251,34.201251 0 0 0 34.20112,34.2011 34.201251,34.201251 0 0 0 34.2012,-34.2011 34.201251,34.201251 0 0 0 -34.2012,-34.2012 34.201251,34.201251 0 0 0 -0.121,0 z m 0.121,4.5 a 29.70125,29.70125 0 0 1 29.7012,29.7012 29.70125,29.70125 0 0 1 -29.7012,29.7011 29.70125,29.70125 0 0 1 -29.70112,-29.7011 29.70125,29.70125 0 0 1 29.70112,-29.7012 z"
             transform="matrix(0.26458333,0,0,0.26458333,-830.13361,-256.7687)" />
          <path
             id="path10279-3-2"
             style="display:inline;fill:#ffffff;fill-opacity:1;stroke:none;stroke-width:0.168321;stroke-linecap:round;stroke-linejoin:round;stroke-miterlimit:4;stroke-dasharray:none;stroke-opacity:1"
             d="m 1005.5781,2480.7051 a 25.45861,25.45861 0 0 0 -25.35154,25.459 25.45861,25.45861 0 0 0 25.45894,25.4589 25.45861,25.45861 0 0 0 25.4571,-25.4589 25.45861,25.45861 0 0 0 -25.4571,-25.459 25.45861,25.45861 0 0 0 -0.1074,0 z m -1.4433,6.1347 h 1.5293 c 1.4598,0 1.5346,0.01 1.6308,0.1172 0.09,0.1051 0.1008,0.2908 0.1016,1.7422 0,1.1726 0.022,1.6639 0.072,1.7656 0.085,0.1648 0.3719,0.2757 0.916,0.3536 0.4562,0.065 1.0232,0.1899 1.4707,0.3222 0.1769,0.053 0.4006,0.1173 0.498,0.1426 0.097,0.026 0.2352,0.076 0.3047,0.1133 0.07,0.038 0.1775,0.068 0.2402,0.068 0.063,0 0.1459,0.04 0.1856,0.088 0.04,0.048 0.1171,0.088 0.1719,0.088 0.1636,0 1.4077,0.655 1.9394,1.0215 0.7798,0.5374 1.6529,1.3306 2.1309,1.9356 0.127,0.161 0.2589,0.319 0.2929,0.3515 0.056,0.053 0.5653,0.813 0.8125,1.2129 0.054,0.087 0.098,0.2641 0.098,0.3926 0,0.1954 -0.029,0.2555 -0.1895,0.373 -0.1046,0.078 -0.2708,0.1813 -0.3671,0.2285 -0.1917,0.095 -0.8728,0.464 -1.1993,0.6504 -0.1126,0.065 -0.4161,0.228 -0.6738,0.3633 -0.7324,0.3847 -1.2836,0.6831 -1.3476,0.7305 -0.1769,0.1308 -0.633,0.3535 -0.7266,0.3535 -0.1758,0 -0.3398,-0.1787 -0.5645,-0.6152 -0.2025,-0.3939 -0.4104,-0.7556 -0.5058,-0.8789 -0.023,-0.03 -0.1487,-0.1926 -0.2735,-0.3555 -0.2214,-0.2888 -0.8556,-0.7986 -1.2089,-0.9727 -0.097,-0.048 -0.2618,-0.1295 -0.3692,-0.1836 -0.1069,-0.054 -0.2523,-0.099 -0.3223,-0.1 -0.07,0 -0.1981,-0.036 -0.2832,-0.08 -0.2418,-0.1267 -0.9473,-0.1814 -1.0312,-0.08 -0.05,0.061 -0.071,1.0284 -0.074,3.6504 0,1.9629 0.012,3.6109 0.031,3.6621 0.04,0.1039 0.3602,0.2139 0.8477,0.291 0.178,0.026 0.4957,0.092 0.7051,0.1426 0.2093,0.051 0.4844,0.1133 0.6132,0.1386 0.4074,0.079 1.329,0.3438 1.5899,0.4551 0.1017,0.043 0.2356,0.078 0.2969,0.078 0.061,0 0.1354,0.023 0.166,0.051 0.03,0.026 0.202,0.095 0.3789,0.1504 0.3046,0.096 0.6256,0.2321 1.2285,0.5176 0.2302,0.1092 1.0323,0.6029 1.1133,0.6855 0.019,0.019 0.2226,0.1865 0.459,0.377 0.2362,0.1909 0.5992,0.547 0.8086,0.791 0.3753,0.4373 1.0742,1.5201 1.0742,1.6641 0,0.041 0.038,0.1251 0.086,0.1875 0.047,0.062 0.087,0.1722 0.088,0.2422 0,0.071 0.024,0.1412 0.053,0.1582 0.049,0.03 0.2338,0.7144 0.3555,1.3144 0.09,0.4465 0.076,1.9993 -0.023,2.5606 -0.046,0.26 -0.1386,0.6689 -0.2071,0.9082 -0.068,0.2392 -0.1388,0.5062 -0.1562,0.5937 -0.019,0.087 -0.068,0.1895 -0.1133,0.2266 -0.045,0.038 -0.082,0.1205 -0.082,0.1836 0,0.063 -0.038,0.186 -0.084,0.2715 -0.046,0.085 -0.1765,0.3521 -0.291,0.5937 -0.1145,0.2415 -0.2884,0.5714 -0.3848,0.7324 -0.096,0.161 -0.1986,0.3457 -0.2285,0.4102 -0.027,0.064 -0.1028,0.1705 -0.1621,0.2344 -0.059,0.064 -0.1865,0.2321 -0.2832,0.375 -0.2661,0.3927 -1.3503,1.4667 -1.8457,1.8281 -0.7593,0.554 -1.5233,0.9867 -2.2539,1.2773 -0.064,0.026 -0.1918,0.077 -0.2832,0.1133 -0.091,0.038 -0.3288,0.1197 -0.5274,0.1836 -0.1984,0.064 -0.4407,0.1417 -0.539,0.1738 -0.2926,0.096 -1.4499,0.3299 -2,0.4043 -0.1678,0.023 -0.3263,0.063 -0.3516,0.088 -0.026,0.026 -0.055,0.8227 -0.064,1.7735 -0.015,1.4528 -0.03,1.751 -0.1093,1.8691 l -0.092,0.1406 h -1.5137 -1.5156 l -0.1172,-0.2422 c -0.1202,-0.2362 -0.1239,-0.3051 -0.1035,-1.8691 0.011,-0.8931 0.01,-1.6387 -0.016,-1.6582 -0.045,-0.045 -0.5878,-0.1854 -0.9317,-0.2402 -0.5597,-0.089 -1.7613,-0.4186 -2.1465,-0.5899 -0.1016,-0.045 -0.2141,-0.082 -0.25,-0.082 -0.034,0 -0.1101,-0.027 -0.166,-0.057 -0.056,-0.03 -0.2335,-0.1112 -0.3945,-0.1777 -0.93749,-0.3881 -2.1342,-1.1247 -2.8926,-1.7812 -0.32466,-0.2812 -1.25633,-1.212 -1.5,-1.4981 -0.32655,-0.3832 -1.14062,-1.5375 -1.14062,-1.6172 0,-0.023 -0.0753,-0.16 -0.16602,-0.3086 -0.0907,-0.1485 -0.20969,-0.3848 -0.26562,-0.5254 -0.0903,-0.2286 -0.0924,-0.2696 -0.0156,-0.3886 0.048,-0.073 0.33325,-0.2575 0.63281,-0.4082 0.63236,-0.3194 0.71339,-0.3619 0.85157,-0.4414 0.0567,-0.03 0.14107,-0.077 0.18945,-0.098 0.048,-0.023 0.74754,-0.362 1.55274,-0.7598 0.80515,-0.3978 1.51563,-0.7237 1.58007,-0.7226 0.14551,0 0.35856,0.1768 0.44141,0.3594 0.13493,0.297 0.69911,1.2874 0.76171,1.3379 0.019,0.019 0.054,0.069 0.076,0.1171 0.1607,0.3591 0.8713,1.183 1.2989,1.5059 0.5197,0.3924 1.4881,0.8359 1.8242,0.8359 0.072,0 0.1464,0.026 0.166,0.059 0.019,0.03 0.1385,0.059 0.2617,0.059 0.1837,0 0.231,-0.025 0.2578,-0.1308 0.047,-0.1883 0.055,-7.0687 0.01,-7.2539 -0.046,-0.1807 -0.2105,-0.2684 -0.7324,-0.3868 -0.5663,-0.1281 -0.7535,-0.1726 -1.1406,-0.2773 -0.1932,-0.052 -0.4571,-0.1218 -0.586,-0.1543 -0.1289,-0.03 -0.2604,-0.085 -0.291,-0.1152 -0.03,-0.03 -0.1096,-0.054 -0.1758,-0.055 -0.066,-1e-4 -0.1952,-0.04 -0.2871,-0.088 -0.093,-0.048 -0.2026,-0.088 -0.2461,-0.088 -0.043,0 -0.1787,-0.042 -0.3008,-0.094 -0.122,-0.052 -0.30195,-0.1275 -0.39837,-0.1679 -0.21694,-0.091 -1.59523,-0.7752 -1.75586,-0.8711 -0.93528,-0.5588 -1.83964,-1.3909 -2.38476,-2.1934 -0.48382,-0.7122 -1.03822,-1.9484 -1.04102,-2.3222 0,-0.066 -0.0394,-0.2247 -0.0859,-0.3536 -0.10167,-0.2812 -0.12107,-2.4177 -0.0273,-2.8398 0.0302,-0.1448 0.0825,-0.3995 0.10937,-0.5645 0.0265,-0.1651 0.0778,-0.3534 0.11328,-0.4199 0.034,-0.066 0.0645,-0.1748 0.0645,-0.2402 0,-0.066 0.0378,-0.2047 0.082,-0.3106 0.045,-0.1058 0.12728,-0.3122 0.18359,-0.457 0.36624,-0.9487 0.66086,-1.4903 1.22461,-2.2519 0.38808,-0.5243 1.38405,-1.5176 1.7461,-1.7422 0.15269,-0.095 0.27734,-0.1971 0.27734,-0.2266 0,-0.026 0.0275,-0.055 0.0566,-0.055 0.0302,0 0.16793,-0.075 0.30664,-0.1679 0.36926,-0.2476 1.51018,-0.8262 1.62888,-0.8262 0.056,0 0.1326,-0.038 0.17,-0.082 0.038,-0.045 0.1385,-0.095 0.2265,-0.1113 0.087,-0.019 0.3051,-0.085 0.4825,-0.1543 0.1768,-0.069 0.4258,-0.1519 0.5546,-0.1855 0.7549,-0.1954 0.9806,-0.2442 1.377,-0.293 0.5575,-0.069 0.7552,-0.1493 0.8281,-0.3398 0.034,-0.09 0.053,-0.7935 0.045,-1.7344 -0.011,-1.2114 0.01,-1.6188 0.064,-1.7422 z m -0.459,9.043 c -0.042,0.019 -0.2137,0.048 -0.3809,0.07 -0.167,0.023 -0.3724,0.076 -0.4551,0.1192 -0.083,0.043 -0.1829,0.078 -0.2226,0.078 -0.1032,0 -0.6385,0.3324 -0.9844,0.6094 -0.5153,0.4131 -0.9057,0.9772 -1.2012,1.7343 -0.049,0.1259 -0.087,0.5146 -0.1,1.0098 -0.019,0.6568 0,0.8297 0.07,0.9356 0.05,0.072 0.092,0.1761 0.092,0.2324 0,0.1746 0.3563,0.7044 0.7012,1.0429 0.4085,0.4009 0.7741,0.6006 1.6699,0.9122 0.7995,0.2781 0.9926,0.3041 1.0762,0.1503 0.034,-0.067 0.06,-1.3742 0.066,-3.4082 l 0.012,-3.3007 -0.1328,-0.1075 c -0.073,-0.059 -0.1682,-0.094 -0.2109,-0.078 z m 3.8828,13.3438 c -0.044,0.012 -0.069,0.044 -0.1,0.1015 -0.089,0.1667 -0.085,6.7509 0.01,6.918 0.065,0.1223 0.2558,0.135 0.6074,0.045 0.1289,-0.03 0.3284,-0.084 0.4434,-0.1133 0.1149,-0.026 0.2863,-0.093 0.3808,-0.1425 0.094,-0.049 0.1943,-0.09 0.2207,-0.09 0.1202,0 0.9092,-0.5695 1.2071,-0.8691 0.3844,-0.3867 0.8051,-1.0631 0.9707,-1.5625 0.1436,-0.4337 0.1632,-1.5186 0.033,-1.8438 -0.3796,-0.954 -0.7907,-1.4062 -1.6641,-1.834 -0.3073,-0.1504 -0.5905,-0.2734 -0.6289,-0.2734 -0.038,0 -0.204,-0.044 -0.3691,-0.096 -0.4903,-0.1535 -0.6403,-0.1904 -0.8965,-0.2305 -0.1062,-0.015 -0.1689,-0.022 -0.2129,-0.01 z"
             transform="matrix(0.26458333,0,0,0.26458333,-830.13361,-256.7687)" />
        </g>
      </g>
    </g>
  </g>
</svg>
