<?xml version="1.0" encoding="UTF-8" standalone="no"?>
<svg
   xmlns:dc="http://purl.org/dc/elements/1.1/"
   xmlns:cc="http://creativecommons.org/ns#"
   xmlns:rdf="http://www.w3.org/1999/02/22-rdf-syntax-ns#"
   xmlns:svg="http://www.w3.org/2000/svg"
   xmlns="http://www.w3.org/2000/svg"
   xmlns:sodipodi="http://sodipodi.sourceforge.net/DTD/sodipodi-0.dtd"
   xmlns:inkscape="http://www.inkscape.org/namespaces/inkscape"
   width="200"
   height="200"
   viewBox="0 0 52.916665 52.916668"
   version="1.1"
   id="svg11267"
   inkscape:version="1.0.2-2 (e86c870879, 2021-01-15)"
   sodipodi:docname="ico_propostas.svg">
  <defs
     id="defs11261" />
  <sodipodi:namedview
     id="base"
     pagecolor="#262626"
     bordercolor="#666666"
     borderopacity="1.0"
     inkscape:pageopacity="0.18039216"
     inkscape:pageshadow="2"
     inkscape:zoom="1.979899"
     inkscape:cx="162.87319"
     inkscape:cy="76.527377"
     inkscape:document-units="px"
     inkscape:current-layer="layer1"
     inkscape:document-rotation="0"
     showgrid="false"
     units="px"
     fit-margin-top="0"
     fit-margin-left="0"
     fit-margin-right="0"
     fit-margin-bottom="0"
     inkscape:window-width="1600"
     inkscape:window-height="837"
     inkscape:window-x="1358"
     inkscape:window-y="-8"
     inkscape:window-maximized="1"
     inkscape:pagecheckerboard="true" />
  <metadata
     id="metadata11264">
    <rdf:RDF>
      <cc:Work
         rdf:about="">
        <dc:format>image/svg+xml</dc:format>
        <dc:type
           rdf:resource="http://purl.org/dc/dcmitype/StillImage" />
        <dc:title></dc:title>
      </cc:Work>
    </rdf:RDF>
  </metadata>
  <g
     inkscape:label="Layer 1"
     inkscape:groupmode="layer"
     id="layer1"
     transform="translate(-35.897881,-89.759291)">
    <g
       id="g10179"
       style="display:inline"
       transform="matrix(0.89126861,0,0,0.89126861,565.69071,-237.25665)">
      <g
         id="g10584"
         style="display:inline"
         transform="matrix(1.2670346,0,0,1.2670346,47.373502,-108.51256)">
        <path
           id="path10481-1"
           style="display:inline;fill:#ffffff;stroke:none;stroke-width:0.969379px;stroke-linecap:butt;stroke-linejoin:miter;stroke-opacity:1"
           d="M 61.201172 5.8359375 L 61.201172 5.8378906 C 57.470084 5.9484344 56.354663 8.0061997 56.109375 10.710938 L 41.373047 168.70898 C 40.930189 172.02961 42.277454 174.29748 46.513672 174.875 L 165.05469 185.37305 C 167.75955 185.07001 170.87065 183.42647 171.60938 179.67383 L 178.11914 116.51953 C 177.99629 116.76791 177.86557 117.04645 177.75391 117.30664 C 177.51959 117.85245 177.19661 118.4905 177.03711 118.72461 C 176.87834 118.9585 176.41296 119.88422 176.00391 120.78125 C 175.59502 121.67849 175.16037 122.41406 175.03711 122.41406 C 174.91333 122.41406 174.72811 122.79095 174.62695 123.25391 C 174.5258 123.7167 174.15541 124.5218 173.80273 125.04102 C 173.45062 125.56023 173.01671 126.40094 172.83984 126.9082 C 172.66272 127.41589 172.25895 128.16069 171.94141 128.56445 C 171.62343 128.96822 171.36264 129.44127 171.36328 129.61523 C 171.36337 129.89351 166.09049 140.60097 165.41016 141.70312 C 165.26547 141.93702 164.88942 142.70415 164.57422 143.40625 C 164.25881 144.10852 163.8839 144.87344 163.74023 145.10742 C 163.48842 145.51673 162.26584 148.15015 161.36719 150.21484 C 161.12903 150.76073 160.4084 151.8013 159.76562 152.52734 C 159.12302 153.25343 158.59766 154.04098 158.59766 154.27734 C 158.59766 155.12456 158.22719 155.63743 157.21484 156.19531 C 155.50696 157.136 152.96011 159.009 151.87695 160.12109 C 151.3329 160.67906 150.8963 160.81544 149.53516 160.85352 C 148.5217 160.88339 147.57717 161.08691 147.14062 161.37305 C 145.93326 162.16418 144.71594 161.87212 142.56836 160.27734 C 142.10023 159.93035 141.24177 159.49481 140.66016 159.30859 C 139.28617 158.86868 138.26047 159.44141 137.46289 161.0918 C 136.99912 162.05319 136.70036 162.31205 135.81836 162.51367 C 134.93712 162.71598 134.63372 162.66478 134.15625 162.23242 C 133.44698 161.59101 132.63669 160.03858 132.37305 158.81641 C 132.26549 158.32024 132.00116 157.76715 131.78516 157.58789 C 131.46462 157.32199 131.12852 157.81125 129.96094 160.25 C 127.66888 165.03766 126.02192 166.36119 124.42578 164.69531 C 123.40899 163.63405 123.20597 162.83309 122.59375 157.44922 C 122.27876 154.67922 121.73431 151.55535 121.31445 150.11133 C 120.91282 148.72868 120.58234 147.45286 120.58008 147.27539 C 120.55874 146.668 118.7416 144.84403 117.95508 144.66016 C 117.28631 144.50309 116.99066 144.66071 115.96875 145.71484 C 114.27009 147.46698 113.5423 148.48609 113.34375 149.39062 C 113.24857 149.82226 112.98737 150.32834 112.76172 150.51562 C 112.53594 150.70257 112.14524 151.57255 111.89453 152.44922 C 111.64399 153.32601 111.25993 154.24836 111.04102 154.49805 C 110.82206 154.74816 110.45273 155.96073 110.21875 157.19336 C 109.98528 158.42577 109.58408 160.06975 109.32812 160.84766 C 109.00033 161.84413 108.84539 163.44657 108.80664 166.26953 C 108.77676 168.47302 108.66285 170.42019 108.55273 170.59766 C 108.2497 171.08832 107.46187 171.39075 106.7832 171.27734 L 106.78516 171.27344 C 106.45054 171.21881 105.93973 170.91055 105.65039 170.58984 C 105.18807 170.07793 105.12337 169.50223 105.12695 165.85352 C 105.12695 162.73725 105.25019 161.3455 105.60547 160.28125 C 105.86625 159.50104 106.23132 157.9692 106.41797 156.87695 C 106.60491 155.78492 106.98113 154.44454 107.25391 153.89844 C 107.52706 153.35255 107.84087 152.48189 107.95312 151.96289 C 108.29457 150.38267 110.33316 146.64601 112.28906 144.01562 C 113.73881 142.06613 116.50351 140.2832 118.07617 140.2832 C 119.59442 140.2832 123.10435 142.76724 123.13086 143.86133 C 123.13086 144.03547 123.37747 144.48134 123.66992 144.85352 C 124.24676 145.5875 125.74989 150.652 126.26953 153.61133 C 126.73911 156.28354 126.43198 156.27679 129.18555 153.6875 C 130.34762 152.59474 130.60304 152.48047 131.91211 152.48047 C 133.26975 152.48047 133.4022 152.54792 134.13281 153.58984 C 134.56056 154.19937 135.25905 154.90518 135.68359 155.16016 C 136.38412 155.58056 136.53457 155.5845 137.30078 155.19141 C 137.76549 154.95069 138.50266 154.75639 138.93945 154.75977 C 139.90921 154.78111 142.85612 155.72991 143.79297 156.34375 C 144.2806 156.66343 144.81384 156.74157 145.65039 156.61523 C 146.2965 156.51749 147.4012 156.36789 148.10352 156.28125 C 148.80562 156.19503 149.53941 155.91851 149.73438 155.66797 C 149.94138 155.40164 150.08789 154.37834 150.08789 153.20508 C 150.08789 151.74039 150.24148 150.91332 150.65625 150.14062 C 150.97593 149.54501 151.22266 148.53976 151.22266 147.8418 C 151.22266 146.90819 151.6169 145.80441 152.81641 143.37305 C 155.09019 138.76439 158.47093 131.9838 158.82031 131.33398 C 158.98463 131.03052 160.09515 128.80307 161.28906 126.38477 C 162.48319 123.96612 163.57502 121.79665 163.71484 121.5625 C 163.85441 121.32861 164.24362 120.56143 164.58008 119.85938 C 165.24684 118.4675 166.39115 116.2809 166.80469 115.60547 C 166.94767 115.37158 168.0414 113.19985 169.23438 110.78125 C 170.42722 108.3629 171.57005 106.06571 171.77539 105.67578 C 171.98111 105.2861 172.61731 103.94547 173.18945 102.69727 C 173.76142 101.44902 174.34231 100.2361 174.48047 100.00195 C 174.61876 99.768061 175.4414 98.157242 176.30859 96.421875 C 177.176 94.686423 178.07539 93.109734 178.30664 92.917969 C 178.88347 92.4396 180.06383 89.879662 180.30664 88.582031 C 180.4159 87.995552 180.73092 87.228634 181.00391 86.878906 C 181.07056 86.793475 181.13812 86.667714 181.20703 86.558594 L 187.7168 23.390625 C 187.90758 19.974224 185.92466 18.240445 182.57812 17.5625 L 62.964844 5.9121094 C 62.319848 5.8451002 61.734172 5.8201455 61.201172 5.8359375 z M 75.130859 30.013672 L 165.00781 38.123047 C 166.86798 38.29121 168.20844 39.920123 168.01172 41.777344 C 167.81496 43.634608 166.15704 44.993951 164.29688 44.826172 L 74.417969 36.71875 C 72.557845 36.550587 71.221252 34.919678 71.417969 33.0625 C 71.614728 31.205279 73.270821 29.84585 75.130859 30.013672 z M 71.841797 64.207031 L 161.7207 72.316406 C 163.58083 72.484569 164.91942 74.115392 164.72266 75.972656 C 164.5259 77.82992 162.86794 79.189263 161.00781 79.021484 L 71.130859 70.912109 C 69.270736 70.743946 67.932019 69.113038 68.128906 67.255859 C 68.325666 65.398596 69.981759 64.03921 71.841797 64.207031 z M 69.212891 98.236328 L 159.08984 106.3457 C 160.95005 106.51387 162.28851 108.14469 162.0918 110.00195 C 161.89504 111.85917 160.23907 113.2186 158.37891 113.05078 L 68.5 104.94141 C 66.639834 104.77324 65.301159 103.14425 65.498047 101.28711 C 65.694806 99.429846 67.352895 98.068506 69.212891 98.236328 z "
           transform="matrix(0.23429628,0,0,0.23429628,-506.53632,375.22512)" />
        <path
           id="path10483-2"
           style="display:inline;fill:#ffffff;fill-opacity:0.5;stroke:none;stroke-width:0.308136px;stroke-linecap:butt;stroke-linejoin:miter;stroke-opacity:1"
           d="m -495.07519,380.2615 -9.6413,0.59945 c -0.56333,0.0567 -1.13085,0.12535 -1.14346,1.03453 l 2.50539,37.14965 c 0.14732,1.18629 0.89058,1.47869 1.90659,1.36193 l 20.09987,-1.47086 -14.38068,-1.19824 c -1.77187,-0.24873 -2.71214,-1.36101 -2.59629,-3.57007 l -0.74748,0.029 c -0.43724,0.0169 -0.8026,-0.32109 -0.8197,-0.7583 -0.017,-0.43724 0.32107,-0.80322 0.75833,-0.82032 l 0.94126,-0.0367 0.68427,-7.09435 -1.9451,0.0758 c -0.43725,0.017 -0.80326,-0.32107 -0.82029,-0.75832 -0.017,-0.43721 0.32104,-0.80322 0.75828,-0.82028 l 2.15998,-0.0842 0.6933,-7.18582 -3.41777,0.1336 c -0.43726,0.0169 -0.80326,-0.3217 -0.8203,-0.75891 -0.0169,-0.43725 0.32167,-0.80263 0.75891,-0.81971 l 3.63203,-0.14143 0.68188,-7.06966 -4.68826,0.18295 c -0.43724,0.0169 -0.80326,-0.32105 -0.82029,-0.7583 -0.0169,-0.43724 0.32166,-0.80324 0.7589,-0.82028 l 4.9031,-0.19139 z" />
        <path
           id="path10464-0"
           style="display:inline;fill:#ffffff;fill-opacity:0.6;stroke:none;stroke-width:0.377031;stroke-linecap:round;stroke-linejoin:round;stroke-miterlimit:4;stroke-dasharray:none;stroke-opacity:1"
           d="m -460.80783,390.94524 c -0.17033,0 -0.26746,0.0622 -0.48627,0.31162 -0.15037,0.17137 -0.34343,0.37325 -0.42892,0.44855 -0.64709,0.5701 -0.99317,0.99208 -1.26452,1.54255 -0.15955,0.32356 -0.31687,0.63352 -0.34986,0.68831 -0.033,0.0549 -0.0932,0.18542 -0.13436,0.29043 -0.0412,0.10502 -0.15671,0.34431 -0.25632,0.53174 -0.0996,0.18743 -0.20381,0.41566 -0.23202,0.50696 -0.0251,0.081 -0.0874,0.19667 -0.14573,0.28009 l -0.6785,6.95307 c 0.0206,-0.0396 0.0473,-0.10144 0.0605,-0.12145 0.0361,-0.0548 0.1248,-0.23389 0.19741,-0.39843 0.0726,-0.16449 0.16084,-0.34415 0.19584,-0.39894 0.16097,-0.25154 1.66558,-3.37701 1.70378,-3.53933 0.0495,-0.21016 0.20011,-0.24247 0.2594,-0.0558 0.0539,0.17012 0.19143,0.21354 0.42013,0.13385 0.15987,-0.0557 0.26837,-0.22823 0.69969,-1.1126 0.28081,-0.57573 0.51057,-1.07045 0.51057,-1.09916 0,-0.0286 0.0696,-0.14716 0.15452,-0.26355 0.085,-0.11636 0.18751,-0.31602 0.22788,-0.44389 0.0404,-0.12798 0.1193,-0.35248 0.17521,-0.49869 0.1392,-0.36475 0.13123,-0.69926 -0.0259,-1.1126 -0.17865,-0.46879 -0.18111,-1.30106 -0.006,-1.68722 0.1214,-0.26561 0.12118,-0.28281 0.005,-0.54314 -0.13634,-0.30458 -0.29366,-0.41237 -0.60151,-0.41237 z m -0.21343,3.82304 0.0465,0.14727 v 0.003 c 0.0254,0.0809 0.019,0.19577 -0.0146,0.25527 -0.0554,0.0977 -0.0637,0.0977 -0.10129,0 -0.0222,-0.0588 -0.0161,-0.17359 0.014,-0.25527 z m -0.37622,0.96168 c 0.0395,0 0.0521,0.0302 0.0295,0.0667 -0.0225,0.0363 -0.0541,0.0661 -0.0703,0.0661 -0.0167,0 -0.0294,-0.0297 -0.0294,-0.0661 0,-0.0363 0.0316,-0.0667 0.0703,-0.0667 z m -0.75911,1.41904 c 0.014,-0.003 0.0257,0.0177 0.0413,0.0584 v 0 c 0.0204,0.0531 0.0135,0.13404 -0.0151,0.18034 -0.0771,0.12576 -0.15656,-0.0361 -0.0822,-0.16899 0.0251,-0.0454 0.0418,-0.0686 0.0558,-0.0703 z" />
      </g>
    </g>
  </g>
</svg>
