<?xml version="1.0" encoding="UTF-8" standalone="no"?>
<svg
   xmlns:dc="http://purl.org/dc/elements/1.1/"
   xmlns:cc="http://creativecommons.org/ns#"
   xmlns:rdf="http://www.w3.org/1999/02/22-rdf-syntax-ns#"
   xmlns:svg="http://www.w3.org/2000/svg"
   xmlns="http://www.w3.org/2000/svg"
   xmlns:sodipodi="http://sodipodi.sourceforge.net/DTD/sodipodi-0.dtd"
   xmlns:inkscape="http://www.inkscape.org/namespaces/inkscape"
   width="200"
   height="200"
   viewBox="0 0 52.916665 52.916668"
   version="1.1"
   id="svg11267"
   inkscape:version="1.0.2-2 (e86c870879, 2021-01-15)"
   sodipodi:docname="ico_talentos.svg">
  <defs
     id="defs11261" />
  <sodipodi:namedview
     id="base"
     pagecolor="#262626"
     bordercolor="#666666"
     borderopacity="1.0"
     inkscape:pageopacity="0.18039216"
     inkscape:pageshadow="2"
     inkscape:zoom="2.8"
     inkscape:cx="185.91086"
     inkscape:cy="86.438553"
     inkscape:document-units="px"
     inkscape:current-layer="layer1"
     inkscape:document-rotation="0"
     showgrid="false"
     units="px"
     fit-margin-top="0"
     fit-margin-left="0"
     fit-margin-right="0"
     fit-margin-bottom="0"
     inkscape:window-width="1600"
     inkscape:window-height="837"
     inkscape:window-x="-8"
     inkscape:window-y="-8"
     inkscape:window-maximized="1"
     inkscape:pagecheckerboard="true" />
  <metadata
     id="metadata11264">
    <rdf:RDF>
      <cc:Work
         rdf:about="">
        <dc:format>image/svg+xml</dc:format>
        <dc:type
           rdf:resource="http://purl.org/dc/dcmitype/StillImage" />
        <dc:title></dc:title>
      </cc:Work>
    </rdf:RDF>
  </metadata>
  <g
     inkscape:label="Layer 1"
     inkscape:groupmode="layer"
     id="layer1"
     transform="translate(-35.897881,-89.759291)">
    <g
       id="g7869"
       transform="matrix(0.96123207,0,0,0.96123207,498.57683,157.75557)"
       style="stroke:none">
      <path
         d="m -471.2302,-44.124532 c -1.34835,-0.342573 -3.66487,-0.445269 -4.62518,-1.718518 l -0.69041,0.152106 0.41644,0.854944 3.87425,7.581139 c -0.80968,-0.06013 -1.89366,0.605171 -2.6321,1.705637 -0.94292,1.385569 -0.99528,2.965877 -0.14385,3.528378 0.85306,0.529141 2.30816,-0.149452 3.24528,-1.541443 0.71085,-1.069068 0.92414,-2.250686 0.56782,-2.990826 -0.0495,-0.126383 -0.11796,-0.239038 -0.17792,-0.353039 l -2.99199,-5.865177 -0.23101,-0.426405 c -0.0475,-0.100891 5.42572,-0.411133 6.37424,1.980513 0.4863,1.26599 0.28311,2.495639 0.28311,2.495639 l 0.26541,-0.143358 c 0,0 0.0501,-0.121534 0.0822,-0.231337 0.003,-0.120027 0.0832,-1.109743 -0.26837,-2.311326 -0.43642,-1.532481 -1.91948,-2.305755 -3.34863,-2.71692"
         style="fill:#ffffff;fill-opacity:0.65;fill-rule:evenodd;stroke:none;stroke-width:0.301345"
         id="path7723" />
      <g
         id="g7739"
         transform="matrix(0.61027956,0,0,0.61027956,-176.27774,-33.711204)"
         style="stroke:none">
        <path
           id="path7735"
           style="fill:#ffffff;fill-opacity:1;fill-rule:nonzero;stroke:none;stroke-width:1.26022"
           d="m -1146.9121,-315.53125 c -0.15,-0.003 -0.2946,0.037 -0.3418,0.13281 -0.092,0.1928 -0.1817,0.52065 -0.022,0.71094 0.1625,0.19155 0.1379,0.32864 0.068,0.38281 -0.069,0.0555 -0.3002,-0.0551 -0.459,-0.16601 -0.1652,-0.10711 -0.5574,-0.24445 -0.9707,-0.35157 -0.4159,-0.11089 -1.225,-0.16489 -1.5703,-0.24804 -0.3477,-0.0832 -0.8082,-0.1359 -0.8535,0.4375 0,0 -0.4643,-0.13616 -0.6016,0.0566 -0.1399,0.18901 -0.3231,0.40936 -0.1856,0.8164 l 0.1856,0.4375 c 0,0 -0.5069,-0.0274 -0.5762,0.16407 -0.071,0.1903 -0.2113,0.32694 0.068,0.68359 0.2774,0.3541 1.4312,1.63998 1.6152,1.77734 0.1863,0.13357 0.2777,0.4359 0.6934,0.68165 0.4159,0.24449 0.8983,-0.0559 1.4062,0.1621 0.5079,0.21801 0.9929,0.54746 1.4063,2.13282 0.4184,1.58409 1.573,6.03551 1.7129,7.94726 0.1349,1.91176 0.8769,5.6281 0.8769,7.21094 0,0 0.279,2.40598 0.094,2.51562 -0.1864,0.10836 -0.7866,-0.65793 -1.3399,-0.76757 -0.557,-0.10711 -1.0664,-0.38004 -1.4785,-0.98243 -0.4171,-0.59986 -1.618,-2.23801 -2.3086,-2.34765 -0.6931,-0.10965 -0.5981,-8.8e-4 -1.3379,-1.20313 -0.7397,-1.20225 -1.6188,-2.51369 -2.7265,-2.24023 -1.1065,0.27473 -2.3534,1.09304 -3.0918,0.60156 -0.7423,-0.49148 -2.4517,-0.16459 -2.8184,0.54492 -0.3693,0.71077 -0.3684,2.24201 -1.1094,2.78516 -0.7372,0.54946 -1.7072,0.27481 -2.4004,1.04102 -0.6906,0.76495 -1.0619,0.32606 -0.6914,1.91015 0.3666,1.58662 0.8316,1.8044 0.2305,2.67774 -0.5998,0.87585 -0.8778,-0.001 -1.2949,0.76367 -0.4159,0.76495 -0.5049,2.13023 -0.2754,2.67969 l -0.047,0.49023 c 0,0 -1.1537,-1.96622 -1.4297,-3.22266 -0.2774,-1.25769 -0.7398,-5.19071 -1.5703,-7.54101 -0.8317,-2.34905 -1.9385,-7.15491 -2.125,-8.4668 -0.1841,-1.31189 -1.1553,-3.82468 -0.3223,-4.15234 0.8267,-0.32893 2.4471,-1.03884 3.1856,-1.36524 0.7372,-0.32764 1.8912,-0.6015 2.9082,-1.14843 1.0183,-0.54316 2.9117,-1.47256 3.0957,-1.80274 0.1841,-0.3264 0.089,-0.5715 -0.023,-0.62695 l -0.1172,-0.0547 c 0,0 0.5993,0.0272 0.7871,-0.0547 0.1825,-0.0832 0.1598,-0.76712 -0.1172,-0.92968 -0.2774,-0.16385 -0.5078,-0.0801 -0.5078,-0.0801 0,0 0.067,-0.54934 -0.7383,-0.33008 -0.8078,0.21929 -1.2246,0.41016 -1.2246,0.41016 0,0 0.163,-0.35703 -0.4141,-0.2461 -0.5771,0.10965 -1.9171,0.46496 -2.1465,0.54688 0,0 -0.4149,-0.49077 -0.8535,-0.27149 -0.4398,0.21801 -1.3183,0.54688 -1.3183,0.54688 0,0 -1.5702,0.0533 -2.3301,0.46289 -0.7637,0.41083 -1.317,0.54495 -2.2168,1.44726 -0.9023,0.90232 -1.2691,2.15792 -1.3145,3.03125 -0.049,0.87459 0.6659,10.791 1.0137,13.90625 0.3455,3.114 1.0366,7.86385 2.2149,11.38868 1.1783,3.52357 5.1276,11.88173 6.3046,14.25976 1.1771,2.37677 2.2172,3.44239 2.2852,5.98047 0.069,2.54186 0.6227,7.29476 0.416,9.42578 -0.088,0.90323 -0.2123,1.96122 -0.3769,2.97656 4.2465,4.31728 6.5846,8.59858 15.4492,13.13086 0.1214,-0.26641 3.6667,-8.0686 4.4844,-12.25586 0.8304,-4.26205 1.9405,-13.22135 1.6621,-14.75 -0.2774,-1.53116 -0.091,-2.95089 0.6465,-6.66601 0,0 0.1818,-1.42264 0.4628,-8.30469 0.2759,-6.88457 0.531,-12.72928 -0.1621,-15.51562 -0.6931,-2.78634 -3.3268,-11.96122 -3.6015,-13.43946 -0.2759,-1.47319 -0.8539,-3.71478 -1.0391,-4.26172 -0.1852,-0.54693 -0.1402,-0.81608 -0.1855,-1.47265 -0.045,-0.65532 -0.6944,-1.36692 -1.1543,-1.47656 -0.4613,-0.10965 -0.9701,-0.219 -1.1075,-0.38282 -0.07,-0.0819 -0.2269,-0.12935 -0.3769,-0.13281 z m -59.8652,11.74609 c -0.175,-0.004 -0.3425,0.0167 -0.4805,0.0781 -0.557,0.24574 -1.2481,1.39319 -1.3867,2.70508 -0.1387,1.30936 -0.484,5.57057 0,6.63672 0.4827,1.06488 2.008,1.96776 1.7988,3.52539 -0.2067,1.55511 -2.1465,2.37766 -2.1465,3.35937 0,0.98297 -0.068,3.03128 0.209,3.93359 0.2774,0.90106 0.069,2.45852 2.0098,2.13086 l 4.9746,0.16211 c 0.9167,-2.48192 1.5915,-4.52948 4.998,-6.20898 0.1642,-0.15033 0.7228,-0.73535 0.4844,-1.6543 -0.277,-1.0674 -1.869,-1.80358 -2.7676,-3.27929 -0.9023,-1.47446 -3.4656,-4.83668 -4.0176,-6.72071 -0.5532,-1.88528 -1.0416,-3.76885 -1.9414,-4.17969 -0.3087,-0.14032 -0.4049,-0.21073 -0.4101,-0.24609 h -0.2149 c 0,0 -0.5844,-0.23066 -1.1093,-0.24219 z m 1.3242,0.24219 h 0.3398 c 0,0 -0.3499,-0.0678 -0.3398,0 z m 45.9375,136.48438 c -0.011,0.0362 -0.6407,2.18094 -0.2735,2.93945 0.3682,0.76369 1.8476,2.40212 2.8633,2.72852 1.0158,0.32893 6.7423,0.21897 7.666,-0.10743 0.9238,-0.32893 1.4767,-1.63808 1.1075,-2.40429 -0.3704,-0.76496 -2.3075,-2.51319 -3.2325,-2.94922 h 0.4356 c -0.9511,-0.14358 -1.8536,-0.20764 -2.6504,-0.0488 -2.0787,0.17443 -4.0589,0.036 -5.916,-0.1582 z"
           transform="matrix(0.26458333,0,0,0.26458333,-153.59018,22.811404)" />
        <path
           id="path7737"
           style="fill:#ffffff;fill-opacity:0.5;fill-rule:nonzero;stroke:none;stroke-width:0.333433"
           d="m -469.80652,-53.420117 c -0.0486,0.0021 -0.10666,0.02798 -0.17984,0.08217 l -0.27543,0.108519 c 0,0 0.0112,-0.01079 0.0181,-0.01705 -0.9013,0.444367 -1.07984,0.986118 -1.32239,1.642792 h 0.004 c 0,0 -0.1288,0.781005 -0.32451,1.185458 -0.19508,0.405122 -0.53726,0.231405 0.0496,0.751893 0.58618,0.519821 2.39419,1.792205 3.32279,2.717146 0.92792,0.925275 1.31972,0.521388 2.29701,2.776059 0.97764,2.255004 1.90598,4.33587 2.5895,5.550564 0.68554,1.213694 0.73351,1.329481 0.97825,1.532207 0.24474,0.20206 0.36639,0.114721 0.36639,0.114721 l 5.1e-4,0.08733 c 0,0 0.2927,5.723892 0.34107,6.388758 0.0497,0.665197 0.46495,3.613476 0.61132,4.134631 0.14637,0.520155 0.66008,4.596474 0.73276,4.856551 l 0.22016,0.115755 c 0,0 -5e-4,0.003 -5.3e-4,0.0031 0.49136,0.05138 1.01481,0.08801 1.56478,0.04186 0.21082,-0.04202 0.4496,-0.02507 0.70125,0.01292 h 0.15399 c 0,0 0.51273,0.05786 0.293,-0.347266 -0.21971,-0.404452 -0.65964,-0.607171 -0.70901,-1.156001 -0.0487,-0.549164 -1.8e-4,-0.809543 -0.14623,-2.747121 -0.14637,-1.936576 -0.48991,-2.774842 -0.48991,-3.526399 0,-0.752223 0.34343,-4.944176 0.53848,-5.637381 0.19572,-0.694206 1.05125,-4.01891 1.22164,-4.481381 l 0.14676,-0.665075 0.14677,0.05788 c 0,0 0.0103,-0.02256 0.0108,-0.02377 -2.34542,-1.199166 -2.96404,-2.331926 -4.0876,-3.474207 -0.0592,0.364803 -0.14025,0.707052 -0.26717,0.8816 -0.21974,0.303757 -0.67776,-0.04286 -0.8785,-0.389639 -0.20206,-0.346771 -0.55121,-0.694131 -1.10072,-1.605071 -0.54983,-0.910603 -1.66791,-2.623499 -2.10735,-3.034956 -0.44014,-0.412456 -1.57567,-1.929527 -2.23552,-2.580722 -0.65987,-0.650192 -1.72225,-2.471391 -1.86862,-2.861839 -0.11078,-0.292838 -0.16944,-0.5002 -0.31522,-0.494027 z" />
      </g>
      <g
         id="g7745"
         transform="matrix(0.72922489,0,0,0.72922489,-117.37777,-20.840804)"
         style="stroke:none">
        <path
           id="path7741"
           style="fill:#ffffff;fill-opacity:1;fill-rule:nonzero;stroke:none;stroke-width:0.483817"
           d="m -1103.043,-276.22461 c -1.0179,-0.001 -2.1664,0.25107 -3.4316,0.89649 -5.0617,2.58116 -2.6944,8.21144 -2.5508,8.63671 0.1427,0.42528 0.8828,1.88868 0.8828,1.88868 -1.8635,-0.73299 -0.3242,2.1914 -0.3242,2.1914 0.673,2.44859 2.0332,2.20117 2.0332,2.20117 l 0.2481,1.72071 c 0,0 -0.1789,0.36012 -1.2051,0.70507 -1.0257,0.34497 -4.4338,3.44338 -5.9356,4.60938 -1.5022,1.16649 -2.1679,4.00687 -3.0644,5.81055 -0.8962,1.80464 -0.9918,3.48971 -0.6192,4.59765 0.3725,1.10698 -0.4985,1.73151 -0.875,2.84961 -0.3764,1.11908 -0.1843,2.04433 -0.3105,2.29688 -0.1259,0.25303 -0.437,1.74132 -0.2363,2.33593 0.1991,0.59365 0.1824,4.34097 -0.1661,5.04493 -0.3484,0.70299 0.011,4.32449 -0.3593,7.42383 -0.3697,3.10078 1.5187,5.59171 2.1718,6.90624 0.6513,1.31308 1.0065,2.99547 1.6582,4.03907 0.6509,1.04311 0.4219,2.5039 0.4219,2.5039 0,0 0.099,0.29655 -1.125,0.94922 -1.2246,0.65171 -1.257,1.62578 -1.209,2.34571 0.047,0.72089 -0.3491,0.70319 -1.1933,1.76953 -0.8443,1.06488 -1.651,2.41805 -2.4512,3.16797 -0.7997,0.74943 -1.6699,2.45507 -1.6699,2.45507 l -1.3731,2.26563 c 0,0 -1.4399,-2.76194 -2.9726,-3.20899 -1.5327,-0.44607 -2.0508,-1.98632 -2.0508,-1.98632 1.2952,-1.2468 1.9763,-2.88776 1.4219,-4.53516 -0.554,-1.6474 -3.4646,-1.44963 -5.0293,-0.38281 -1.5642,1.0673 -4.5528,2.10156 -4.5528,2.10156 -4.2774,1.13746 -5.3391,4.95144 -6.3789,7.04492 -1.0402,2.093 1.3887,3.68164 1.3887,3.68164 3.3176,0.56752 7.0938,-3.4082 7.0938,-3.4082 0,0 0.5057,1.50324 0.3847,3.01953 -0.121,1.51774 1.6342,3.48432 1.7559,3.84961 0.1224,0.36528 1.4931,2.15962 1.8476,3.21289 0.3532,1.0523 1.9295,4.13024 3.4981,4.91016 1.5705,0.77944 3.0254,-0.11719 3.0254,-0.11719 5.1638,0.0668 10.2519,-7.93164 10.2519,-7.93164 0,0 0.6057,-1.21885 1.7383,-1.59961 1.1341,-0.38173 5.4277,-3.79492 5.4277,-3.79492 0,0 1.8053,0.89547 2.2911,0.73242 0.4862,-0.16353 0.5551,-1.11686 1.1308,-1.82227 0.5743,-0.70347 1.573,-1.49098 2.5996,-1.83593 1.0257,-0.34497 2.5877,-2.40204 2.9649,-2.5293 0.3793,-0.12725 0.6139,0.30426 1.2636,0.62695 0.6503,0.32223 0.5698,0.71006 2.1504,1.83203 1.5787,1.12198 3.2974,3.86493 4.7227,4.57227 1.4258,0.70831 4.7949,-2.27344 4.7949,-2.27344 0,0 3.3208,1.64874 5.5918,1.78711 2.2701,0.13886 5.1219,1.37482 5.5274,1.7793 0.4069,0.40495 0.8592,1.5746 1.123,2.35742 0.2634,0.7833 -0.2031,1.45177 0.4844,2.15234 0.6862,0.70106 0.8418,1.79102 0.8418,1.79102 0.1509,3.13514 2.4166,7.81384 3.3828,8.54101 0.6981,0.52543 2.8413,3.1266 4.2305,4.83399 a 14.053747,14.053747 0 0 1 9.0722,13.14062 14.053747,14.053747 0 0 1 -0.5039,3.73438 c 2.7321,-0.56955 12.8973,-3.3285 13.7266,-3.60742 0.9188,-0.30868 1.4575,-0.85044 1.5664,-0.88672 0.1074,-0.0358 2.2031,-1.76172 2.2031,-1.76172 l 0.9336,-0.88672 0.6836,-0.74023 0.8613,-1.10157 c 1.0054,-1.5695 0.6161,-2.4595 0.02,-3.52148 -0.598,-1.06101 -4.848,0.0656 -7.8907,0.66797 -3.0437,0.60235 -7.6428,-0.37536 -8.1484,-0.625 -0.5041,-0.25159 -1.6173,-2.31278 -1.375,-2.39453 0.2434,-0.0813 0.2695,-0.54102 0.2695,-0.54102 0,0 -4.2295,-11.50419 -4.7558,-13.07031 -0.5269,-1.5666 -1.4991,-1.59973 -1.7168,-2.24805 -0.2177,-0.64783 -2.4436,-3.50653 -3.3125,-5.3789 -0.8709,-1.87044 -1.2473,-1.74326 -1.9063,-5.66993 -0.6594,-3.9257 -4.681,-5.3395 -5.7285,-6.30859 -1.0479,-0.97102 -2.8604,-3.41309 -3.7637,-5.16016 -0.9037,-1.74803 -2.3844,-2.19644 -2.7363,-2.37109 -0.3522,-0.17466 -0.6044,-0.58735 -1.6582,-1.11133 -1.0562,-0.52396 -0.8239,-0.10598 -1.4746,-0.42773 -0.6493,-0.32271 -1.2057,-1.17263 -1.6934,-1.41406 -0.4862,-0.24287 -0.9107,0.306 -1.1836,-0.50391 -0.2724,-0.81038 -1.2636,-0.47656 -1.2636,-0.47656 l -0.1778,-0.52735 c -0.3193,-0.95117 -1.1168,-0.90982 -1.4687,-1.08398 -0.3517,-0.17514 -0.1406,-1.28447 0.5586,-2.69141 0.6991,-1.40743 0.13,-2.43203 0.5097,-4.11523 0.3808,-1.68417 0.2827,-3.31886 -0.4121,-5.38477 -0.6943,-2.0659 -1.7756,-7.4619 -1.5136,-7.99023 0.2634,-0.52785 0.8873,-1.65174 0.3164,-3.01563 -0.5691,-1.36291 -0.7331,-3.24734 -0.5547,-4.38867 0.181,-1.14374 0.4433,-4.48828 0.4433,-4.48828 0,0 1.0158,0.50349 2.0879,0.14258 1.0746,-0.36092 3.6145,-0.44795 5.3828,-0.68164 1.7703,-0.23465 3.7776,0.10359 4.752,0.58789 0.9754,0.48332 2.032,1.00872 5.1309,0.10156 3.0983,-0.90667 8.2383,-1.84733 9.2519,-1.91797 1.0127,-0.0697 1.7442,0.5648 2.6445,1.50196 0.9019,0.93714 1.9683,0.48712 2.6582,0.25585 0.688,-0.23174 1.7673,0.5499 1.8965,0.61329 0.1292,0.0634 0.5558,-0.18769 0.6699,-0.41797 0.1147,-0.23078 -0.1967,-0.58571 -0.623,-0.98438 -0.4272,-0.39672 -1.2992,-0.57778 -1.543,-0.69922 -0.2433,-0.12056 -0.8985,0.0776 -0.9726,-0.14453 -0.075,-0.22256 0.8135,-0.7945 0.9961,-0.85547 0.1824,-0.0619 0.8855,-0.5211 0.9668,-0.48047 0.081,0.0393 0.4047,0.0655 0.5468,0.0176 0.1418,-0.0474 0.5001,0.24798 0.5938,0.29492 0.094,0.0469 0.6641,0.16016 0.6641,0.16016 l 0.789,-0.26367 0.4668,-0.1582 c 0,0 0.6335,-0.39335 0.7344,-0.42774 0.1017,-0.0339 -0.094,-0.2832 -0.094,-0.2832 l -0.2519,-0.34375 -0.3438,0.11523 -0.8925,-0.10351 0.371,0.0312 0.7286,-0.2461 0.5664,-0.34179 0.125,-0.25 c 0,0 -0.1115,-0.33529 -0.2891,-0.42188 -0.1751,-0.0885 -0.709,-0.0315 -0.9297,0.043 -0.224,0.0754 -0.5948,0.009 -0.8262,-0.10547 -0.2298,-0.11467 -0.6503,-0.32226 -0.6503,-0.32226 0,0 0.162,0.0801 0.2636,0.0469 0.1011,-0.0348 1.1145,-0.10491 1.2559,-0.15234 0.1423,-0.0484 0.7773,-0.44336 0.7773,-0.44336 0,0 0.2383,-0.32712 0.1328,-0.64063 -0.1054,-0.314 -0.5271,-0.26154 -0.8925,-0.13867 -0.3648,0.12238 -0.7818,0.1497 -1.1602,0.16406 -0.3778,0.0145 -0.7035,0.0565 -0.9473,-0.0645 -0.2438,-0.12049 -0.7776,-0.0329 -1.0195,0.0488 -0.2419,0.0818 -0.9805,-0.0645 -0.9805,-0.0645 l -0.2285,-0.11329 0.1016,-0.29492 c 0,0 1.4086,-0.47402 1.4551,-0.56836 0.047,-0.0943 0.75,-0.25195 0.75,-0.25195 l 0.1347,-0.27148 -0.3183,-0.34376 -1.0352,0.14649 c 0,0 -2.4423,0.57409 -3.4414,1.08984 -0.9986,0.51624 -1.9432,1.397 -3.5703,1.71875 -1.6271,0.32319 -7.397,-1.00815 -9.7812,-1.46875 -2.3877,-0.45964 -3.0483,-0.0783 -6,0.32813 -2.9513,0.40594 -4.7426,-0.23209 -5.5743,-0.35742 -0.8317,-0.12676 -1.1243,-0.55825 -2.3281,-1.15625 -1.2052,-0.5985 -3.1727,-0.9862 -3.9551,-0.97071 -0.7842,0.016 -1.6686,0.33612 -2.5898,-0.12109 -0.9207,-0.45673 -1.7554,0.20723 -2.1738,0.23633 -0.4205,0.0281 -0.4058,0.13486 -0.9336,-0.70117 -0.5303,-0.83652 -1.6166,0.36391 -1.8184,0.43164 -0.2033,0.0682 -0.1211,-0.36524 -0.1211,-0.36524 0.7668,-1.54193 -0.4453,-4.74219 -0.4453,-4.74219 0,0 0.04,0.1207 0.3711,-0.23828 0.3298,-0.35948 0.1289,-1.89164 -0.1856,-3.43164 -0.314,-1.54046 -0.9765,-1.22656 -0.9765,-1.22656 0.036,-1.50032 -1.3613,-4.05078 -1.3613,-4.05078 -0.2758,-0.82007 -2.1493,-3.10811 -5.2032,-3.11133 z m -6.8847,41.94141 c 0.015,1.9e-4 0.022,0.0176 0.022,0.0176 0,0 0.3918,1.25292 0.7441,1.67578 0.3526,0.42187 0.5137,0.27792 0.6777,0.76367 0.1633,0.48623 -0.349,1.1082 -0.051,1.45898 0.2977,0.35029 0.9029,0.53822 0.5801,1.1875 -0.3227,0.64977 0.3286,1.33282 0.4473,1.6836 0.116,0.35125 0.018,1.04619 0.1,1.28906 0.082,0.24287 -0.4157,0.49971 -0.2656,0.94531 0.1495,0.44511 -0.9734,0.41757 -1.2149,0.9043 -0.2419,0.48817 -1.4745,1.15734 -1.2754,1.75195 0.1994,0.59364 -0.8603,1.73127 -0.75,2.50586 0.1099,0.77508 0.095,1.62236 -0.5,2.18359 0,0 0.4409,-3.78744 -0.6289,-6.52343 0,0 -0.7065,-1.60943 -0.1777,-2.67383 0.5288,-1.06488 1.5402,-3.91619 1.8769,-5.68164 0.2533,-1.32554 0.3721,-1.48885 0.4161,-1.48828 z"
           transform="matrix(0.26458333,0,0,0.26458333,-153.59018,22.811404)" />
        <circle
           style="fill:#ffffff;fill-opacity:0.5;stroke:none;stroke-width:2.20785;stroke-linecap:round;stroke-linejoin:round;stroke-miterlimit:4;stroke-dasharray:none;stroke-opacity:1"
           id="circle7743"
           cx="-436.211"
           cy="-19.636229"
           r="2.8764882" />
      </g>
      <g
         id="g7757"
         transform="matrix(-1.1242387,0.24247948,0.24247948,1.1242387,-1309.4254,159.2274)"
         style="fill:#ffffff;stroke:none">
        <path
           id="path7749"
           style="display:inline;fill:#ffffff;fill-opacity:1;stroke:none;stroke-width:0.545839px;stroke-linecap:butt;stroke-linejoin:miter;stroke-opacity:1"
           d="m -2266.1896,-196.80489 -26.2147,52.67403 c -8.5354,0.7753 -19.3276,-8.00016 -22.0566,17.36719 -3.3173,10.96943 -3.6349,7.82029 -15.9942,16.67969 -13.7635,11.549069 -16.8055,32.662616 -4.6758,45.664058 -0.2853,-0.338101 -0.5756,-0.674952 -0.8359,-1.023437 10.5069,6.82777 23.8086,11.604107 40.1152,5.259765 27.7548,-9.525264 4.4479,-37.453918 15.7149,-47.142576 11.1083,-7.9924 12.8746,-18.06176 4.1347,-30.46485 l 0.1133,0.004 c -1.1352,-0.81257 -2.3521,-1.63719 -3.6972,-2.48437 l 24.5546,-51.98431 z m -9.6874,59.02755 c 0.616,0.44102 1.2011,0.87709 1.7579,1.30859 -0.5571,-0.43175 -1.1415,-0.8673 -1.7579,-1.30859 z m 1.7891,1.33203 c 0.5428,0.42132 1.0566,0.83732 1.5449,1.25 -0.4881,-0.41256 -1.0023,-0.82881 -1.5449,-1.25 z m 1.6348,1.32617 c 0.4718,0.4009 0.9158,0.79824 1.3379,1.19141 -0.4218,-0.39292 -0.8665,-0.79076 -1.3379,-1.19141 z m 1.4511,1.29492 c 0.4133,0.38835 0.8017,0.77505 1.168,1.15625 -0.3662,-0.38124 -0.7547,-0.76785 -1.168,-1.15625 z m 1.2618,1.25391 c 0.3726,0.39149 0.7219,0.77968 1.0468,1.16406 -0.3246,-0.3845 -0.674,-0.77244 -1.0468,-1.16406 z m 1.0761,1.19726 c 0.3285,0.38982 0.6332,0.77528 0.9141,1.15821 -0.2804,-0.38272 -0.5861,-0.76862 -0.9141,-1.15821 z m 3.7071,8.55078 c 0.011,0.49695 -0.013,0.99034 -0.068,1.48047 0.056,-0.49017 0.08,-0.98347 0.068,-1.48047 z m -0.068,1.48047 c -0.1114,0.98027 -0.3515,1.94739 -0.6992,2.90821 0.3477,-0.96015 0.5881,-1.92846 0.6992,-2.90821 z m -3.123,7.50782 c -0.149,0.22163 -0.3066,0.44419 -0.4629,0.66601 0.1568,-0.22189 0.3137,-0.4443 0.4629,-0.66601 z m -1.2246,1.6914 c -0.3171,0.42139 -0.6298,0.84216 -0.9688,1.26563 0.3386,-0.42285 0.6518,-0.84485 0.9688,-1.26563 z m -34.7618,0.36524 c 0.7251,0.006 1.4069,0.18394 2.0215,0.52734 3.3132,1.85026 3.9865,7.99905 1.5039,13.734375 -2.4828,5.736186 -7.1821,8.886869 -10.4961,7.037109 -3.3132,-1.850258 -3.9865,-7.999048 -1.5039,-13.734374 1.9597,-4.52836 5.3887,-7.58908 8.4746,-7.56445 z m 33.1192,1.71679 c -0.3704,0.4488 -0.7369,0.89687 -1.125,1.34961 0.388,-0.45228 0.7545,-0.90126 1.125,-1.34961 z m -1.6348,1.93555 c -1.6956,1.95407 -3.5053,3.94884 -5.2812,6.03516 1.7754,-2.08572 3.587,-4.08149 5.2812,-6.03516 z m -25.2676,54.695312 c -1.0487,0.0784 -2.07,0.127378 -3.08,0.166016 1.0087,-0.03761 2.0313,-0.08762 3.08,-0.166016 z m -8.9355,0.160157 c 0.2468,0.01073 0.4984,0.0173 0.748,0.02539 -0.2506,-0.0073 -0.5001,-0.01545 -0.748,-0.02539 z m 4.9492,0.03711 c -0.8463,0.02283 -1.6795,0.03192 -2.498,0.02734 0.8175,0.0065 1.6519,-0.0056 2.498,-0.02734 z"
           transform="matrix(0.26458333,0,0,0.26458333,-153.59018,22.811404)"
           sodipodi:nodetypes="cccccccccccccccccccccccccccccccccccccccccccssssssccccccccccccccc" />
        <rect
           style="display:inline;fill:#ffffff;fill-opacity:0.5;stroke:none;stroke-width:1.02155;stroke-linecap:round;stroke-linejoin:round;stroke-miterlimit:4;stroke-dasharray:none;stroke-opacity:1"
           id="rect7751"
           width="4.8454638"
           height="7.8401241"
           x="-692.56775"
           y="290.97131"
           ry="0.87349993"
           transform="rotate(25.64789)" />
        <path
           id="path7753"
           style="display:inline;fill:#ffffff;fill-opacity:0.345528;stroke:none;stroke-width:0.14442px;stroke-linecap:butt;stroke-linejoin:miter;stroke-opacity:1"
           d="m -755.7823,-13.645645 c 2.31243,3.28165 1.84491,5.9454996 -1.09416,8.0601556 -2.98106,2.5634584 3.18573,9.9529169 -4.15772,12.473143 -4.31446,1.678607 -7.83373,0.4151552 -10.61367,-1.3913589 1.59624,2.1369457 4.9707,3.5594792 10.06671,3.1785518 11.21038,-3.30183 3.79049,-10.3752491 5.28829,-12.874521 2.72981,-3.2068819 5.8575,-5.6390069 0.5404,-9.4448415 z"
           sodipodi:nodetypes="cccccccc" />
        <ellipse
           style="fill:#ffffff;fill-opacity:0;stroke:none;stroke-width:1.78036;stroke-linecap:round;stroke-linejoin:round;stroke-miterlimit:4;stroke-dasharray:none;stroke-opacity:1"
           id="ellipse7755"
           cx="-706.12836"
           cy="370.82486"
           rx="1.8181391"
           ry="2.9942687"
           transform="matrix(0.87316543,0.48742398,-0.39725975,0.91770621,0,0)" />
      </g>
    </g>
  </g>
</svg>
