<?xml version="1.0" encoding="UTF-8" standalone="no"?>
<svg
   xmlns:dc="http://purl.org/dc/elements/1.1/"
   xmlns:cc="http://creativecommons.org/ns#"
   xmlns:rdf="http://www.w3.org/1999/02/22-rdf-syntax-ns#"
   xmlns:svg="http://www.w3.org/2000/svg"
   xmlns="http://www.w3.org/2000/svg"
   xmlns:sodipodi="http://sodipodi.sourceforge.net/DTD/sodipodi-0.dtd"
   xmlns:inkscape="http://www.inkscape.org/namespaces/inkscape"
   width="200"
   height="200"
   viewBox="0 0 52.916665 52.916668"
   version="1.1"
   id="svg11267"
   inkscape:version="1.0.2-2 (e86c870879, 2021-01-15)"
   sodipodi:docname="ico_alunos.svg">
  <defs
     id="defs11261" />
  <sodipodi:namedview
     id="base"
     pagecolor="#262626"
     bordercolor="#666666"
     borderopacity="1.0"
     inkscape:pageopacity="0.18039216"
     inkscape:pageshadow="2"
     inkscape:zoom="1.979899"
     inkscape:cx="277.47865"
     inkscape:cy="135.71771"
     inkscape:document-units="px"
     inkscape:current-layer="g10265"
     inkscape:document-rotation="0"
     showgrid="false"
     units="px"
     fit-margin-top="0"
     fit-margin-left="0"
     fit-margin-right="0"
     fit-margin-bottom="0"
     inkscape:window-width="1600"
     inkscape:window-height="837"
     inkscape:window-x="-8"
     inkscape:window-y="-8"
     inkscape:window-maximized="1"
     inkscape:pagecheckerboard="true" />
  <metadata
     id="metadata11264">
    <rdf:RDF>
      <cc:Work
         rdf:about="">
        <dc:format>image/svg+xml</dc:format>
        <dc:type
           rdf:resource="http://purl.org/dc/dcmitype/StillImage" />
        <dc:title></dc:title>
      </cc:Work>
    </rdf:RDF>
  </metadata>
  <g
     inkscape:label="Layer 1"
     inkscape:groupmode="layer"
     id="layer1"
     transform="translate(-35.897881,-89.759291)">
    <g
       id="g10265"
       transform="matrix(1.025641,0,0,1.025641,691.00118,158.78131)">
      <g
         id="g10145"
         transform="matrix(-1.3987108,0,0,1.3987108,-693.56948,113.34022)"
         style="fill:#ffffff;stroke:none">
        <path
           style="fill:#ffffff;fill-opacity:1;stroke:none;stroke-width:0.00467722;stroke-linecap:round;stroke-linejoin:round;stroke-miterlimit:4;stroke-dasharray:none;stroke-opacity:1"
           d="m -68.774419,-92.390992 c -0.238895,-0.0466 -0.718008,-0.270211 -0.850196,-0.396801 -0.05601,-0.05364 -0.124217,-0.118575 -0.151564,-0.144301 -0.147508,-0.138763 -0.304266,-0.380542 -0.415978,-0.641601 l -0.125743,-0.293844 -0.01217,-8.836411 -0.01217,-8.83641 0.10572,-0.11494 c 0.05814,-0.0632 0.179382,-0.14935 0.269419,-0.19142 0.533734,-0.24937 1.045089,-0.61871 1.505956,-1.08769 0.517144,-0.52625 0.770001,-0.92855 1.06849,-1.69997 0.09708,-0.2509 0.220301,-0.46102 0.373994,-0.63778 0.126066,-0.14498 0.248936,-0.31337 0.273045,-0.37418 0.0241,-0.0608 0.08789,-0.21971 0.141745,-0.3531 0.05385,-0.13339 0.09791,-0.31715 0.09791,-0.40833 0,-0.20399 -0.207872,-0.74174 -0.372168,-0.96278 -0.253989,-0.34171 -0.28334,-0.42148 -0.354338,-0.96309 -0.0393,-0.29978 -0.0911,-0.58177 -0.115109,-0.62664 -0.02403,-0.0449 -0.07631,-0.23698 -0.116224,-0.42692 -0.03991,-0.18994 -0.1578,-0.58739 -0.261982,-0.88323 -0.379323,-1.07713 -0.356812,-0.9826 -0.252238,-1.05915 0.07841,-0.0574 0.48964,-0.0655 2.734908,-0.0538 l 2.642629,0.0138 0.280633,0.12298 c 0.154347,0.0676 0.332094,0.13877 0.394996,0.15806 0.302861,0.0929 1.23589,0.85219 1.499275,1.22013 0.344347,0.48103 0.791588,1.26225 0.794345,1.38752 5.29e-4,0.0196 0.04223,0.12481 0.09288,0.23386 0.268833,0.57875 0.594006,1.8376 0.795324,3.07897 0.229497,1.41512 0.29609,2.73401 0.264293,5.23427 -0.0149,1.17048 -0.04763,2.24055 -0.07275,2.37794 -0.05425,0.29663 -0.267129,0.64479 -0.48319,0.79024 -0.373007,0.25111 -1.057243,0.22807 -1.399704,-0.0471 -0.18042,-0.14499 -0.242205,-0.23122 -0.393044,-0.54857 -0.06822,-0.14354 -0.07389,-0.28181 -0.046,-1.12253 0.07507,-2.26292 0.01069,-5.04118 -0.133615,-5.7659 -0.037,-0.18583 -0.09052,-0.53782 -0.11893,-0.78221 -0.02841,-0.24438 -0.09205,-0.58114 -0.141425,-0.74835 -0.04937,-0.16721 -0.112607,-0.4223 -0.14052,-0.56687 -0.05162,-0.26733 -0.325004,-0.894 -0.414007,-0.94901 -0.170886,-0.10561 -0.169812,-0.17114 -0.193908,11.85253 l -0.02339,11.669655 -0.158131,0.303117 c -0.15081,0.289087 -0.625422,0.842801 -0.7224,0.842801 -0.02524,0 -0.163679,0.05716 -0.307647,0.127019 -0.224887,0.10913 -0.317761,0.126503 -0.659323,0.123333 -0.342064,-0.0032 -0.437581,-0.02323 -0.684217,-0.143645 -0.157658,-0.07697 -0.372036,-0.208568 -0.476393,-0.292433 -0.254977,-0.204904 -0.546899,-0.670254 -0.611127,-0.974188 -0.03732,-0.176604 -0.05238,-2.264662 -0.05238,-7.263699 0,-6.24131 -0.008,-7.0313 -0.0724,-7.15585 -0.131062,-0.25345 -0.509733,-0.31329 -0.672561,-0.10629 l -0.09694,0.12324 -0.0013,7.04459 -0.0013,7.044599 -0.130082,0.379386 c -0.198559,0.579102 -0.491831,0.916297 -1.013222,1.164979 -0.354031,0.16886 -0.74889,0.229804 -1.075761,0.166042 z"
           id="path10037" />
        <path
           style="fill:#ffffff;fill-opacity:0.5;stroke:none;stroke-width:0.00467722;stroke-linecap:round;stroke-linejoin:round;stroke-miterlimit:4;stroke-dasharray:none;stroke-opacity:1"
           d="m -66.973689,-122.35251 c -0.30797,-0.0623 -0.870122,-0.31208 -1.169305,-0.51954 -0.245094,-0.16996 -0.84075,-0.77018 -0.923186,-0.93026 -0.03974,-0.0772 -0.110316,-0.18916 -0.156832,-0.24887 -0.04652,-0.0597 -0.119195,-0.22808 -0.16151,-0.37417 -0.04232,-0.1461 -0.09573,-0.28852 -0.118697,-0.31649 -0.149667,-0.18225 -0.159962,-1.41588 -0.01513,-1.81373 0.03872,-0.10636 0.102896,-0.29862 0.142615,-0.42725 0.03972,-0.12862 0.109876,-0.27595 0.155903,-0.3274 0.04603,-0.0515 0.120452,-0.16618 0.165384,-0.25496 0.140163,-0.27695 0.807473,-0.89524 1.206092,-1.11751 1.342877,-0.74877 3.107076,-0.48929 4.189838,0.61625 0.46046,0.47015 0.773666,1.099 0.871874,1.75054 0.08615,0.57155 0.0861,0.77026 -2.65e-4,1.30346 -0.208692,1.28672 -1.320186,2.41019 -2.635594,2.664 -0.418846,0.0808 -1.140827,0.0789 -1.551058,-0.004 z"
           id="path10137" />
        <path
           style="fill:#ffffff;fill-opacity:1;stroke:none;stroke-width:0.00467722;stroke-linecap:round;stroke-linejoin:round;stroke-miterlimit:4;stroke-dasharray:none;stroke-opacity:1"
           d="m -71.954925,-113.81195 c -0.488074,-0.13705 -0.9422,-0.43385 -1.18844,-0.77673 -0.412345,-0.57418 -0.507023,-1.41139 -0.266993,-2.36092 0.196979,-0.77924 0.553897,-1.54271 1.138949,-2.4363 0.204745,-0.31272 1.285994,-1.32195 1.626105,-1.51779 0.408345,-0.23513 0.822272,-0.40346 1.013952,-0.41233 0.126228,-0.006 0.164558,0.0224 0.276495,0.2037 0.07147,0.11576 0.154112,0.29466 0.183645,0.39756 0.02953,0.1029 0.0921,0.27128 0.139046,0.37417 0.167828,0.36789 0.365406,1.04938 0.572786,1.97567 0.06374,0.28471 0.07869,0.26621 -0.455356,0.56372 -0.180072,0.10032 -0.50143,0.28182 -0.714129,0.40333 -0.212698,0.12152 -0.423174,0.21399 -0.467722,0.2055 -0.124254,-0.0237 -0.120325,-0.18104 0.01066,-0.42741 0.118216,-0.22233 0.157638,-0.51638 0.076,-0.56684 -0.06276,-0.0388 -0.30761,0.18265 -0.473083,0.42784 -0.224867,0.33318 -0.507958,0.9243 -0.540689,1.12899 -0.02564,0.16037 -0.01553,0.19334 0.07403,0.24127 0.19142,0.10245 0.34686,0.0434 1.356733,-0.51524 0.141486,-0.0783 0.351962,-0.20482 0.467722,-0.28123 0.421452,-0.27819 0.608155,-0.34393 0.982215,-0.34587 0.272706,-10e-4 0.393423,0.0208 0.542309,0.0999 0.210703,0.11188 0.468572,0.38089 0.536583,0.55978 0.06144,0.16161 0.0544,0.8427 -0.01,0.96535 -0.09438,0.17978 -0.331058,0.42444 -0.574779,0.59415 -0.514535,0.35829 -1.626028,0.97507 -1.897287,1.05282 -0.06431,0.0184 -0.141393,0.053 -0.171289,0.0769 -0.0299,0.0238 -0.282466,0.11782 -0.561265,0.20882 -0.426064,0.13906 -0.588963,0.16825 -1.021403,0.18303 -0.282972,0.01 -0.577636,-1.4e-4 -0.65481,-0.0218 z"
           id="path10139" />
        <path
           style="fill:#ffffff;fill-opacity:0.5;stroke:none;stroke-width:0.00467722;stroke-linecap:round;stroke-linejoin:round;stroke-miterlimit:4;stroke-dasharray:none;stroke-opacity:1"
           d="m -74.409764,-112.39905 c -0.06337,-0.0806 -0.0853,-0.15509 -0.06467,-0.21978 0.01717,-0.0538 0.07722,-0.27679 0.133453,-0.49546 0.05623,-0.21866 0.151332,-0.58698 0.211331,-0.81851 0.102301,-0.39474 0.281078,-0.77174 0.365972,-0.77174 0.02066,0 0.08603,0.0862 0.145259,0.1916 0.158903,0.28273 0.556191,0.6583 0.8994,0.85024 0.345337,0.19312 1.075598,0.34021 1.427263,0.28747 0.392743,-0.0589 0.566558,0.0861 0.503852,0.42038 -0.02648,0.14117 -0.04936,0.1548 -0.503838,0.30007 -0.562158,0.1797 -1.353508,0.28733 -2.614401,0.35556 -0.395587,0.0214 -0.410594,0.0184 -0.503619,-0.0998 z"
           id="path10141" />
        <path
           style="fill:#ffffff;fill-opacity:0.5;stroke:none;stroke-width:0.00467722;stroke-linecap:round;stroke-linejoin:round;stroke-miterlimit:4;stroke-dasharray:none;stroke-opacity:1"
           d="m -71.393659,-107.52797 c -0.128625,-0.0366 -0.412766,-0.11079 -0.631426,-0.16477 -0.218659,-0.054 -0.41861,-0.11451 -0.444336,-0.13451 -0.02572,-0.02 -0.13096,-0.0626 -0.23386,-0.0946 -0.287213,-0.0894 -0.697984,-0.35791 -1.0889,-0.71187 -0.200708,-0.18174 -0.516462,-0.63537 -0.681792,-0.9795 -0.111762,-0.23263 -0.191973,-0.49919 -0.247822,-0.82354 -0.115456,-0.67056 -0.169561,-0.63509 1.026137,-0.67271 0.711485,-0.0224 1.136679,-0.0622 1.717346,-0.16064 0.424458,-0.072 0.843087,-0.13056 0.930286,-0.13016 0.294399,0.001 0.29129,-0.0214 0.276095,2.01218 -0.0075,1.00759 -0.02421,1.84144 -0.03708,1.85301 -0.06858,0.0617 -0.379812,0.0654 -0.584652,0.007 z"
           id="path10143" />
      </g>
      <g
         id="g10263"
         transform="matrix(1.1169844,0,0,1.1169844,72.123052,5.1051073)"
         style="stroke:none">
        <path
           style="fill:#ffffff;fill-opacity:1;stroke:none;stroke-width:0.00596507;stroke-linecap:round;stroke-linejoin:round;stroke-miterlimit:4;stroke-dasharray:none;stroke-opacity:1"
           d="m -630.98648,-32.18657 c -1.13187,-0.02025 -2.06747,-0.04261 -2.07912,-0.04973 -0.0318,-0.01947 0.0227,-0.375602 0.18932,-1.235783 0.0826,-0.426504 0.20593,-1.070728 0.27408,-1.431614 0.0682,-0.360886 0.17735,-0.897741 0.24267,-1.193013 0.0653,-0.295269 0.14725,-0.724752 0.18207,-0.954407 0.0348,-0.229654 0.0996,-0.578612 0.14384,-0.775458 0.0443,-0.196846 0.12583,-0.639752 0.1812,-0.984236 0.0554,-0.34448 0.13723,-0.773963 0.18192,-0.954407 0.0447,-0.180443 0.12365,-0.596506 0.17547,-0.924584 0.12309,-0.779116 0.33061,-1.650797 0.41532,-1.74453 0.0369,-0.04087 0.32133,-0.178408 0.63197,-0.305641 0.85201,-0.348965 1.27422,-0.603951 1.96295,-1.185482 0.45493,-0.384132 0.6895,-0.487316 1.10717,-0.487033 0.55632,3.38e-4 1.12762,-0.282523 1.44937,-0.717713 0.15253,-0.206304 0.36997,-0.805301 0.36997,-1.019164 0,-0.261427 -0.28844,-0.907908 -0.50418,-1.130037 -0.30442,-0.31342 -0.34002,-0.457042 -0.20694,-0.834932 0.28859,-0.819483 0.27635,-4.366433 -0.0192,-5.565112 -0.17929,-0.727138 -0.21654,-0.702532 1.12558,-0.743358 2.70809,-0.08237 4.59039,0.313095 6.30983,1.325682 1.06568,0.627585 2.13658,1.65896 2.74939,2.647907 0.0327,0.05281 0.11417,0.176549 0.18098,0.274972 0.19932,0.293601 0.48044,0.921199 0.65464,1.461439 0.20624,0.639614 0.27305,1.866057 0.12836,2.356197 -0.0484,0.164041 -0.12991,0.44589 -0.18106,0.626333 -0.13081,0.461438 -0.59261,1.352674 -0.87772,1.693938 -0.085,0.101781 -0.17926,0.230633 -0.20941,0.28634 -0.16379,0.302669 -1.14254,1.262599 -1.66051,1.628581 -0.0929,0.06561 -0.28264,0.203794 -0.42174,0.307065 -0.13909,0.103272 -0.31665,0.221071 -0.39458,0.261775 -0.0779,0.0407 -0.18195,0.112285 -0.23116,0.159074 -0.19989,0.19005 -0.97744,0.561012 -1.2535,0.598038 -0.37796,0.0507 -0.84309,-0.124361 -1.06538,-0.40097 -0.29936,-0.372511 -0.35946,-1.04823 -0.11942,-1.342669 0.26031,-0.319297 0.29651,-0.348651 1.06634,-0.864713 0.98278,-0.658824 1.86789,-1.428728 2.24112,-1.94942 0.14531,-0.202727 0.2642,-0.385003 0.2642,-0.405056 0,-0.02004 0.0547,-0.110402 0.12147,-0.200767 0.12064,-0.16317 0.24673,-0.552951 0.35617,-1.100978 0.047,-0.235185 0.032,-0.384625 -0.0842,-0.842817 -0.19406,-0.764759 -0.54414,-1.347451 -1.25435,-2.087839 -0.31045,-0.323644 -0.35239,-0.34856 -0.49952,-0.296815 -0.0883,0.03108 -0.15943,0.08268 -0.15797,0.114701 10e-4,0.03202 0.0249,0.29456 0.0521,0.583424 0.0469,0.498641 0.0426,0.532503 -0.086,0.669339 -0.0745,0.07927 -0.23211,0.175098 -0.35032,0.212948 -0.1182,0.03785 -0.33571,0.130682 -0.48334,0.206284 -0.14764,0.07561 -0.41606,0.203692 -0.59651,0.28464 -0.18044,0.08095 -0.5314,0.243904 -0.7799,0.362128 -0.24851,0.118223 -0.47976,0.214949 -0.5139,0.214949 -0.0341,0 -0.12609,0.04978 -0.20433,0.110628 -0.0782,0.06084 -0.24077,0.142745 -0.36118,0.182002 -0.1204,0.03926 -0.2486,0.107152 -0.28489,0.150877 -0.13238,0.159505 -0.0841,0.488737 0.14161,0.964739 0.12274,0.25891 0.288,0.611671 0.36725,0.783914 0.13996,0.304228 0.22267,0.483493 0.62603,1.357051 0.2461,0.532951 0.25759,0.826451 0.0446,1.13843 -0.43122,0.631593 -0.37999,1.606134 0.11323,2.153743 0.2532,0.281134 0.84467,0.614937 1.08959,0.614937 0.3277,0 0.52716,0.11571 0.59948,0.347764 0.0375,0.120403 0.17311,0.437744 0.3013,0.705198 0.19259,0.40182 0.26582,0.497695 0.42161,0.552005 0.15651,0.05456 0.22067,0.04677 0.37768,-0.04587 0.10403,-0.06138 0.29433,-0.14563 0.42289,-0.187233 0.12855,-0.0416 0.34347,-0.139127 0.47758,-0.216724 0.26557,-0.153651 0.57341,-0.184523 0.66326,-0.06652 0.0312,0.04101 0.0897,0.249043 0.1299,0.462292 0.0402,0.213252 0.16809,0.870898 0.28415,1.461439 0.11607,0.590541 0.26173,1.367096 0.3237,1.725677 0.062,0.358578 0.13897,0.734379 0.17112,0.835107 0.0322,0.100728 0.11202,0.507181 0.17747,0.903224 0.0655,0.396044 0.14702,0.793724 0.18124,0.883728 0.0769,0.202218 0.0812,0.554635 0.007,0.600252 -0.0798,0.04933 -12.37707,0.07913 -14.79821,0.03586 z"
           id="path10147" />
        <path
           style="fill:#ffffff;fill-opacity:0.5;stroke:none;stroke-width:0.00596507;stroke-linecap:round;stroke-linejoin:round;stroke-miterlimit:4;stroke-dasharray:none;stroke-opacity:1"
           d="m -621.14413,-43.755317 c -0.11162,-0.03088 -0.18015,-0.123177 -0.27244,-0.366869 -0.12842,-0.339075 -0.29495,-0.715358 -0.53867,-1.217157 -0.0788,-0.162279 -0.1433,-0.326428 -0.1433,-0.36477 0,-0.03835 -0.0498,-0.133739 -0.11063,-0.21198 -0.0608,-0.07824 -0.14436,-0.249627 -0.1856,-0.380859 -0.0412,-0.131232 -0.10997,-0.294587 -0.15275,-0.363015 -0.0726,-0.116139 -0.0533,-0.138335 0.28998,-0.333774 0.20228,-0.115153 0.45998,-0.240689 0.57268,-0.278977 0.11269,-0.03829 0.24691,-0.106147 0.29825,-0.1508 0.0513,-0.04465 0.20072,-0.115149 0.33195,-0.156661 0.13123,-0.04151 0.30571,-0.121908 0.38773,-0.178668 0.082,-0.05676 0.21623,-0.122326 0.29826,-0.145711 0.082,-0.02338 0.28333,-0.105357 0.44737,-0.182157 0.67855,-0.317685 1.01342,-0.450391 1.21982,-0.483395 0.20539,-0.03283 0.22808,-0.01991 0.38771,0.221326 0.19905,0.300779 0.29716,0.993465 0.21296,1.503541 -0.0657,0.398089 -0.40925,1.011713 -0.79851,1.426306 -0.32679,0.34806 -1.14023,1.05316 -1.49885,1.299231 -0.11953,0.08202 -0.29317,0.20952 -0.38587,0.28334 -0.0927,0.07382 -0.17808,0.131536 -0.18975,0.128266 -0.0117,-0.0034 -0.0883,-0.02453 -0.17034,-0.04722 z"
           id="path10247" />
        <path
           style="fill:#ffffff;fill-opacity:0.5;stroke:none;stroke-width:0.00596507;stroke-linecap:round;stroke-linejoin:round;stroke-miterlimit:4;stroke-dasharray:none;stroke-opacity:1"
           d="m -619.25918,-39.278371 c -0.19293,-0.312171 -0.39791,-0.774608 -0.4094,-0.923619 -0.0127,-0.164907 0.0243,-0.208102 0.37362,-0.436613 0.21324,-0.139482 0.45907,-0.308722 0.54628,-0.376088 0.0872,-0.06737 0.18302,-0.122489 0.21292,-0.122489 0.0755,0 0.64796,-0.417517 1.24151,-0.905414 0.70991,-0.583549 1.69407,-1.779282 1.99365,-2.422254 l 0.11913,-0.255667 0.17592,0.09097 c 0.0968,0.05004 0.19403,0.151664 0.21617,0.225842 0.0221,0.07418 0.1277,0.336189 0.23459,0.582246 0.62617,1.441379 0.80737,1.893045 0.80735,2.01246 -3e-5,0.147628 -0.32601,0.385151 -0.71876,0.523726 -0.12535,0.04422 -0.33031,0.134231 -0.45548,0.200014 -0.34877,0.183304 -0.85931,0.411434 -1.15135,0.514469 -0.14482,0.0511 -0.30491,0.129069 -0.35575,0.17327 -0.0508,0.0442 -0.19981,0.113992 -0.33104,0.155095 -0.13123,0.0411 -0.27887,0.108431 -0.32808,0.149611 -0.0492,0.04118 -0.15658,0.09357 -0.2386,0.116415 -0.082,0.02284 -0.31018,0.117738 -0.50703,0.210877 -1.09624,0.518694 -1.35212,0.606127 -1.42565,0.487147 z"
           id="path10249" />
        <path
           style="fill:#ffffff;fill-opacity:0.5;stroke:none;stroke-width:0.00596507;stroke-linecap:round;stroke-linejoin:round;stroke-miterlimit:4;stroke-dasharray:none;stroke-opacity:1"
           d="m -622.84314,-19.05061 c -0.21736,-0.05505 -0.72091,-0.414178 -0.94058,-0.670824 -0.40692,-0.475394 -0.40262,-0.407938 -0.40237,-6.306101 2.2e-4,-5.116038 0.003,-5.241972 0.11842,-5.43134 l 0.11821,-0.193863 h 1.68987 1.68986 l 0.10053,0.210799 c 0.0919,0.192651 0.10048,0.653604 0.10007,5.353638 -2.9e-4,3.312282 -0.0228,5.280568 -0.0632,5.529783 -0.043,0.265001 -0.12538,0.481185 -0.26144,0.685981 -0.24742,0.37242 -0.33356,0.448302 -0.77189,0.679992 -0.30997,0.163834 -0.4049,0.18491 -0.80529,0.178806 -0.24964,-0.0038 -0.50712,-0.02041 -0.57216,-0.03687 z"
           id="path10251" />
        <path
           style="fill:#ffffff;fill-opacity:0.5;stroke:none;stroke-width:0.00596507;stroke-linecap:round;stroke-linejoin:round;stroke-miterlimit:4;stroke-dasharray:none;stroke-opacity:1"
           d="m -627.73552,-19.187393 c -0.45409,-0.24218 -0.53547,-0.31517 -0.78482,-0.703895 -0.15465,-0.241087 -0.21727,-0.421051 -0.25944,-0.745633 -0.0802,-0.617481 -0.0764,-10.545342 0.004,-10.757207 0.0349,-0.09169 0.0952,-0.186976 0.13421,-0.211747 0.039,-0.02477 0.81611,-0.04545 1.72701,-0.04595 l 1.65618,-0.001 0.11924,0.193863 c 0.11723,0.190603 0.11897,0.284632 0.10306,5.592242 -0.0151,5.029755 -0.0235,5.417248 -0.12335,5.674761 -0.14075,0.362959 -0.44548,0.711913 -0.83199,0.95273 -0.28002,0.174467 -0.36855,0.197261 -0.84945,0.218698 -0.51168,0.02281 -0.55364,0.01498 -0.89476,-0.166949 z"
           id="path10253" />
        <path
           style="fill:#ffffff;fill-opacity:0.5;stroke:none;stroke-width:0.00596507;stroke-linecap:round;stroke-linejoin:round;stroke-miterlimit:4;stroke-dasharray:none;stroke-opacity:1"
           d="m -632.89529,-38.549219 c -0.21706,-0.112325 -0.39202,-0.254746 -0.71438,-0.581501 -0.39805,-0.403467 -0.4907,-0.51479 -0.60104,-0.722177 -0.0529,-0.09941 -0.13881,-0.261276 -0.19094,-0.359698 -0.17308,-0.326779 -0.39324,-1.128331 -0.4096,-1.491265 -0.0197,-0.437042 0.0373,-0.625503 0.19011,-0.628867 0.0634,-0.0014 0.68156,-0.0037 1.37368,-0.0051 1.20081,-0.0024 1.26231,0.003 1.3437,0.119239 0.0953,0.136027 0.062,0.45526 -0.15601,1.498942 -0.0651,0.311674 -0.17416,0.873766 -0.24233,1.249091 -0.0682,0.375325 -0.1496,0.730377 -0.18098,0.789003 -0.0905,0.169062 -0.24522,0.218729 -0.41221,0.132312 z"
           id="path10255" />
        <path
           style="fill:#ffffff;fill-opacity:0.5;stroke:none;stroke-width:0.00596507;stroke-linecap:round;stroke-linejoin:round;stroke-miterlimit:4;stroke-dasharray:none;stroke-opacity:1"
           d="m -634.10295,-43.932255 c -0.15569,-0.02406 -0.31079,-0.07147 -0.34467,-0.105347 -0.061,-0.06095 0.18233,-0.593267 0.59639,-1.304943 0.0954,-0.164037 0.23167,-0.405624 0.30274,-0.536855 0.0711,-0.131229 0.21228,-0.32603 0.31383,-0.432888 l 0.18463,-0.194285 0.24141,0.255698 c 0.26146,0.276946 0.56872,0.512704 1.15108,0.883235 l 0.37281,0.237203 -10e-4,0.311502 c -0.001,0.432554 -0.19465,0.768329 -0.47682,0.828311 -0.31092,0.0661 -2.01538,0.108603 -2.34042,0.05837 z"
           id="path10257" />
        <path
           style="fill:#ffffff;fill-opacity:1;stroke:none;stroke-width:0.00596507;stroke-linecap:round;stroke-linejoin:round;stroke-miterlimit:4;stroke-dasharray:none;stroke-opacity:1"
           d="m -628.39168,-44.956257 c -0.65673,-0.07061 -1.87392,-0.341092 -2.26672,-0.503709 -0.19685,-0.0815 -0.39052,-0.148812 -0.4304,-0.149588 -0.0399,-6.75e-4 -0.19947,-0.08195 -0.35466,-0.180369 -0.1552,-0.09842 -0.30765,-0.178952 -0.33879,-0.178952 -0.0311,0 -0.11311,-0.05502 -0.18218,-0.122269 -0.0691,-0.06725 -0.22098,-0.20817 -0.33758,-0.313163 -0.27148,-0.244454 -0.44466,-0.494814 -0.70614,-1.020881 -0.20838,-0.419229 -0.21008,-0.429014 -0.20812,-1.198136 10e-4,-0.557431 0.0282,-0.842543 0.0951,-1.014061 0.25962,-0.664824 0.33726,-0.818515 0.6815,-1.349155 0.45899,-0.707529 1.12542,-1.403188 1.8707,-1.952761 0.55308,-0.407847 1.51999,-0.942363 1.99829,-1.104673 0.28834,-0.09784 0.60962,-0.06077 0.68441,0.07898 0.0301,0.05628 0.116,0.516163 0.19083,1.021957 0.26743,1.807506 0.14893,4.586546 -0.20915,4.904868 -0.10276,0.09135 -0.18169,0.101585 -0.51307,0.06653 -0.21539,-0.02278 -0.61979,-0.115734 -0.89865,-0.206554 -0.66068,-0.215169 -0.71448,-0.302878 -0.57631,-0.93958 0.0802,-0.369359 0.14159,-0.496832 0.36614,-0.759666 0.19366,-0.226685 0.26982,-0.367865 0.26982,-0.500183 0,-0.293042 -0.0805,-0.254729 -0.64242,0.305939 -0.39938,0.398452 -0.54788,0.605772 -0.67664,0.944627 -0.16878,0.444209 -0.14861,0.61209 0.10287,0.856328 0.11848,0.115069 0.31309,0.240098 0.43246,0.277847 0.11938,0.03775 0.30689,0.120005 0.41671,0.182792 0.10981,0.06279 0.40508,0.140838 0.65615,0.173448 0.55357,0.07189 1.39463,0.217504 1.9118,0.330976 0.32526,0.07136 0.41945,0.123801 0.63802,0.35519 0.28695,0.303786 0.36696,0.596699 0.29467,1.078768 -0.052,0.346833 -0.46857,0.823806 -0.7998,0.915815 -0.24216,0.06726 -0.84125,0.06711 -1.46889,-3.38e-4 z"
           id="path10259" />
        <path
           style="fill:#ffffff;fill-opacity:0.5;stroke:none;stroke-width:0.00596507;stroke-linecap:round;stroke-linejoin:round;stroke-miterlimit:4;stroke-dasharray:none;stroke-opacity:1"
           d="m -625.40915,-55.803111 c -0.13123,-0.02453 -0.42638,-0.12043 -0.65589,-0.213073 -1.25842,-0.507987 -2.03061,-1.289918 -2.48305,-2.514394 -0.18541,-0.501775 -0.19657,-0.57677 -0.19896,-1.336878 -0.002,-0.734032 0.0127,-0.850146 0.16933,-1.312313 0.24361,-0.718652 0.53874,-1.218149 0.98884,-1.673561 0.48813,-0.493886 0.92285,-0.771898 1.59484,-1.01993 0.50328,-0.185761 0.5614,-0.193849 1.39017,-0.193491 0.82826,3.37e-4 0.88896,0.0088 1.43162,0.200314 0.31167,0.109967 0.62209,0.249442 0.68982,0.309944 0.0677,0.0605 0.15484,0.110004 0.19357,0.110004 0.13456,0 1.06156,0.986344 1.25944,1.340067 0.78932,1.410999 0.78993,2.990841 0.002,4.35656 -0.3937,0.682124 -1.26582,1.437741 -1.91914,1.66277 -0.14035,0.04834 -0.36256,0.133482 -0.49379,0.189199 -0.26521,0.112595 -1.54403,0.17417 -1.96847,0.09478 z"
           id="path10261" />
      </g>
    </g>
  </g>
</svg>
