<?xml version="1.0" encoding="UTF-8" standalone="no"?>
<svg
   xmlns:dc="http://purl.org/dc/elements/1.1/"
   xmlns:cc="http://creativecommons.org/ns#"
   xmlns:rdf="http://www.w3.org/1999/02/22-rdf-syntax-ns#"
   xmlns:svg="http://www.w3.org/2000/svg"
   xmlns="http://www.w3.org/2000/svg"
   xmlns:sodipodi="http://sodipodi.sourceforge.net/DTD/sodipodi-0.dtd"
   xmlns:inkscape="http://www.inkscape.org/namespaces/inkscape"
   width="200"
   height="200"
   viewBox="0 0 52.916665 52.916668"
   version="1.1"
   id="svg11267"
   inkscape:version="1.0.2-2 (e86c870879, 2021-01-15)"
   sodipodi:docname="ico_idiomas.svg">
  <defs
     id="defs11261" />
  <sodipodi:namedview
     id="base"
     pagecolor="#262626"
     bordercolor="#666666"
     borderopacity="1.0"
     inkscape:pageopacity="0.18039216"
     inkscape:pageshadow="2"
     inkscape:zoom="2.8"
     inkscape:cx="185.91086"
     inkscape:cy="86.438553"
     inkscape:document-units="px"
     inkscape:current-layer="layer1"
     inkscape:document-rotation="0"
     showgrid="false"
     units="px"
     fit-margin-top="0"
     fit-margin-left="0"
     fit-margin-right="0"
     fit-margin-bottom="0"
     inkscape:window-width="1600"
     inkscape:window-height="837"
     inkscape:window-x="-8"
     inkscape:window-y="-8"
     inkscape:window-maximized="1"
     inkscape:pagecheckerboard="true" />
  <metadata
     id="metadata11264">
    <rdf:RDF>
      <cc:Work
         rdf:about="">
        <dc:format>image/svg+xml</dc:format>
        <dc:type
           rdf:resource="http://purl.org/dc/dcmitype/StillImage" />
        <dc:title></dc:title>
      </cc:Work>
    </rdf:RDF>
  </metadata>
  <g
     inkscape:label="Layer 1"
     inkscape:groupmode="layer"
     id="layer1"
     transform="translate(-35.897881,-89.759291)">
    <g
       id="g7949"
       transform="matrix(0.99999493,0,0,0.99999493,137.67641,-90.159886)">
      <path
         id="path7939"
         style="fill:#ffffff;fill-opacity:0.4;stroke:none;stroke-width:0.621517;stroke-linecap:round;stroke-linejoin:round"
         d="m -374.71289,680.38086 c -1.21895,0.10887 -2.07813,1.07687 -2.07813,2.54102 v 60.09179 c 0,-1.91233 1.46386,-3.92673 3.28321,-4.51562 l 89.54297,-28.98243 -89.54297,-28.98242 c -0.22753,-0.0733 -0.44796,-0.1211 -0.66211,-0.14453 v -0.002 c -0.18741,-0.0205 -0.36884,-0.0214 -0.54297,-0.006 z m 91.09766,170.73242 -0.34766,0.11328 0.34766,0.11133 z"
         transform="scale(0.26458333)" />
      <path
         id="path7941"
         style="fill:#ffffff;fill-opacity:0.934959;stroke:none;stroke-width:0.621517;stroke-linecap:round;stroke-linejoin:round"
         d="m -193.21289,680.38086 c -0.17418,-0.0155 -0.35557,-0.0147 -0.54297,0.006 -0.21415,0.0227 -0.43469,0.0732 -0.66211,0.14648 l -89.19726,28.86914 v 0.22657 l 89.19726,28.86914 c 1.81939,0.58889 3.28516,2.60329 3.28516,4.51562 v -60.09179 c 0,-1.46412 -0.86082,-2.43217 -2.08008,-2.54102 z"
         transform="scale(0.26458333)" />
      <path
         id="path7943"
         style="fill:#ffffff;fill-opacity:0.4;stroke:none;stroke-width:0.164443;stroke-linecap:round;stroke-linejoin:round"
         d="m -75.039897,187.75594 v 37.49391 l 23.600195,7.63854 c 0.481379,0.1558 0.869017,-0.12584 0.869017,-0.6318 v -35.66733 c 0,-0.50597 -0.387638,-1.03898 -0.869017,-1.19479 z" />
      <path
         id="path7945"
         style="fill:#ffffff;fill-opacity:1;stroke:none;stroke-width:0.621517;stroke-linecap:round;stroke-linejoin:round"
         d="m -283.61523,709.40234 -89.89258,29.09571 c -1.81935,0.58889 -3.28321,2.60329 -3.28321,4.51562 v 134.80664 c 0,1.91233 1.46386,2.97756 3.28321,2.38867 l 89.89258,-29.0957 z m -40.91797,46.81446 28.5664,66.91406 -15.46679,5.20898 -6.3125,-14.20507 -23.67383,7.89257 -4.57617,17.20118 -15.14844,2.52343 23.98633,-82.2207 z m -5.83789,23.98828 -6.94532,24.14648 14.99414,-5.20898 z"
         transform="scale(0.26458333)" />
      <path
         id="path7947"
         style="color:#000000;font-style:normal;font-variant:normal;font-weight:normal;font-stretch:normal;font-size:medium;line-height:normal;font-family:sans-serif;font-variant-ligatures:normal;font-variant-position:normal;font-variant-caps:normal;font-variant-numeric:normal;font-variant-alternates:normal;font-variant-east-asian:normal;font-feature-settings:normal;font-variation-settings:normal;text-indent:0;text-align:start;text-decoration:none;text-decoration-line:none;text-decoration-style:solid;text-decoration-color:#000000;letter-spacing:normal;word-spacing:normal;text-transform:none;writing-mode:lr-tb;direction:ltr;text-orientation:mixed;dominant-baseline:auto;baseline-shift:baseline;text-anchor:start;white-space:normal;shape-padding:0;shape-margin:0;inline-size:0;clip-rule:nonzero;display:inline;overflow:visible;visibility:visible;isolation:auto;mix-blend-mode:normal;color-interpolation:sRGB;color-interpolation-filters:linearRGB;solid-color:#000000;solid-opacity:1;vector-effect:none;fill:#ffffff;fill-opacity:1;fill-rule:nonzero;stroke:none;stroke-width:6.75851;stroke-linecap:butt;stroke-linejoin:miter;stroke-miterlimit:4;stroke-dasharray:none;stroke-dashoffset:0;stroke-opacity:1;color-rendering:auto;image-rendering:auto;shape-rendering:auto;text-rendering:auto;enable-background:accumulate;stop-color:#000000"
         d="m -241.41992,757.36914 v 9.98828 l -25.20899,-7.82226 v 7.67773 l 7.47071,2.31836 c 4.06537,14.27753 9.45522,25.4557 15.57422,34.67383 -7.66457,4.80821 -16.35811,6.61992 -25.3418,8.6582 l 2.28516,7.79492 c 9.30376,-2.11089 18.98736,-4.26492 27.61914,-10.08593 8.63028,11.17684 18.31147,19.33844 27.61523,27.22265 l 2.29102,-6.375 c -8.9842,-7.61341 -17.67887,-14.81766 -25.34375,-24.38281 6.12023,-5.42094 11.51068,-13.2562 15.57617,-25.01172 l 8.625,2.67578 v -7.67578 l -25.20899,-7.82227 v -9.98632 z m -11.28711,14.16211 27.37305,8.49219 c -3.72761,9.78013 -8.38603,16.30101 -13.68555,20.83594 -5.29971,-7.82344 -9.95957,-17.23501 -13.6875,-29.32813 z"
         transform="scale(0.26458333)" />
    </g>
  </g>
</svg>
