<?xml version="1.0" encoding="UTF-8" standalone="no"?>
<svg
   xmlns:dc="http://purl.org/dc/elements/1.1/"
   xmlns:cc="http://creativecommons.org/ns#"
   xmlns:rdf="http://www.w3.org/1999/02/22-rdf-syntax-ns#"
   xmlns:svg="http://www.w3.org/2000/svg"
   xmlns="http://www.w3.org/2000/svg"
   xmlns:sodipodi="http://sodipodi.sourceforge.net/DTD/sodipodi-0.dtd"
   xmlns:inkscape="http://www.inkscape.org/namespaces/inkscape"
   width="200"
   height="200"
   viewBox="0 0 52.916665 52.916668"
   version="1.1"
   id="svg11267"
   inkscape:version="1.0.2-2 (e86c870879, 2021-01-15)"
   sodipodi:docname="ico_cursosrapidos.svg">
  <defs
     id="defs11261" />
  <sodipodi:namedview
     id="base"
     pagecolor="#262626"
     bordercolor="#666666"
     borderopacity="1.0"
     inkscape:pageopacity="0.18039216"
     inkscape:pageshadow="2"
     inkscape:zoom="5.6"
     inkscape:cx="100.52461"
     inkscape:cy="55.711037"
     inkscape:document-units="px"
     inkscape:current-layer="g9555"
     inkscape:document-rotation="0"
     showgrid="false"
     units="px"
     fit-margin-top="0"
     fit-margin-left="0"
     fit-margin-right="0"
     fit-margin-bottom="0"
     inkscape:window-width="1600"
     inkscape:window-height="837"
     inkscape:window-x="1358"
     inkscape:window-y="-8"
     inkscape:window-maximized="1"
     inkscape:pagecheckerboard="true" />
  <metadata
     id="metadata11264">
    <rdf:RDF>
      <cc:Work
         rdf:about="">
        <dc:format>image/svg+xml</dc:format>
        <dc:type
           rdf:resource="http://purl.org/dc/dcmitype/StillImage" />
        <dc:title></dc:title>
      </cc:Work>
    </rdf:RDF>
  </metadata>
  <g
     inkscape:label="Layer 1"
     inkscape:groupmode="layer"
     id="layer1"
     transform="translate(-35.897881,-89.759291)">
    <g
       id="g10179"
       style="display:inline"
       transform="matrix(0.89126861,0,0,0.89126861,565.69071,-237.25665)">
      <g
         id="g9555"
         transform="translate(0,3.1750001)">
        <path
           id="path9239"
           style="color:#000000;font-style:normal;font-variant:normal;font-weight:normal;font-stretch:normal;font-size:medium;line-height:normal;font-family:sans-serif;font-variant-ligatures:normal;font-variant-position:normal;font-variant-caps:normal;font-variant-numeric:normal;font-variant-alternates:normal;font-variant-east-asian:normal;font-feature-settings:normal;font-variation-settings:normal;text-indent:0;text-align:start;text-decoration:none;text-decoration-line:none;text-decoration-style:solid;text-decoration-color:#000000;letter-spacing:normal;word-spacing:normal;text-transform:none;writing-mode:lr-tb;direction:ltr;text-orientation:mixed;dominant-baseline:auto;baseline-shift:baseline;text-anchor:start;white-space:normal;shape-padding:0;shape-margin:0;inline-size:0;clip-rule:nonzero;display:inline;overflow:visible;visibility:visible;isolation:auto;mix-blend-mode:normal;color-interpolation:sRGB;color-interpolation-filters:linearRGB;solid-color:#000000;solid-opacity:1;vector-effect:none;fill:#ffffff;fill-opacity:0.5;fill-rule:nonzero;stroke:none;stroke-width:4.06783;stroke-linecap:round;stroke-linejoin:round;stroke-miterlimit:4;stroke-dasharray:none;stroke-dashoffset:0;stroke-opacity:1;color-rendering:auto;image-rendering:auto;shape-rendering:auto;text-rendering:auto;enable-background:accumulate;stop-color:#000000"
           d="m 1024.623,2466.5021 -48.19331,1.6543 v 1.3242 c -2.43654,25.9668 11.93122,39.4641 23.87891,40.3456 23.249,-0.7631 25.376,-33.3505 25.1055,-40.5605 -0.1898,-1.0103 -0.4625,-1.9209 -0.7911,-2.7636 z"
           transform="matrix(0.26458333,0,0,0.26458333,-830.13361,-256.7687)"
           sodipodi:nodetypes="cccccc" />
        <path
           style="fill:#ffffff;stroke:none;stroke-width:0.284765px;stroke-linecap:round;stroke-linejoin:round;stroke-opacity:1"
           d="m -577.05402,419.01679 c -0.14504,-2.29155 -0.55115,-6.70058 -0.55115,-6.70058 -0.30902,-1.89687 1.6845,-3.31801 2.52361,-3.36481 0.37651,-0.021 6.87465,-0.0291 6.87465,-0.0291 l 0.0871,-0.66714 c -1.31501,-0.43698 -2.40733,-1.27479 -3.33579,-2.40758 -3.70722,0.40266 -6.88861,1.49048 -8.06394,5.19223 -0.78773,5.15124 0.93251,6.41915 2.46555,7.97694 z"
           id="path9251"
           sodipodi:nodetypes="ccsccccc" />
        <path
           style="display:inline;fill:#ffffff;stroke:none;stroke-width:0.284765px;stroke-linecap:round;stroke-linejoin:round;stroke-opacity:1"
           d="m -553.1273,419.01679 c 0.14504,-2.29155 0.55115,-6.70058 0.55115,-6.70058 0.30902,-1.89687 -1.6845,-3.31801 -2.52361,-3.36481 -0.3765,-0.021 -6.87464,-0.0291 -6.87464,-0.0291 l -0.0871,-0.66714 c 1.315,-0.43698 2.40733,-1.27479 3.33579,-2.40758 3.70721,0.40266 6.8886,1.49048 8.06394,5.19223 0.78773,5.15124 -0.93252,6.41915 -2.46556,7.97694 z"
           id="path9253"
           sodipodi:nodetypes="ccsccccc" />
        <path
           id="path9255"
           style="fill:#ffffff;fill-opacity:0.5;stroke:none;stroke-width:0.959252px;stroke-linecap:butt;stroke-linejoin:miter;stroke-opacity:1"
           d="M 65.650391 157.49219 C 62.843021 158.2362 61.989408 159.8556 61.839844 161.79102 C 61.839844 161.79102 65.259733 197.26099 65.357422 198.43359 C 65.809383 199.29598 66.22251 200.16813 68.289062 200.58203 L 129.25977 200.58203 C 130.11168 200.71465 131.69036 199.62973 131.60547 197.35742 L 135.02539 161.10742 C 134.74135 158.68666 133.2631 157.53531 130.92188 157.49219 L 65.650391 157.49219 z M 98.359375 169.46484 A 10.267857 4.1071429 0 0 1 98.431641 169.46484 A 10.267857 4.1071429 0 0 1 108.70117 173.57227 A 10.267857 4.1071429 0 0 1 98.431641 177.67773 A 10.267857 4.1071429 0 0 1 88.164062 173.57227 A 10.267857 4.1071429 0 0 1 98.359375 169.46484 z "
           transform="matrix(0.2968615,0,0,0.2968615,-594.42554,363.73565)" />
        <path
           style="display:inline;fill:#ffffff;fill-opacity:1;stroke:none;stroke-width:0.284765px;stroke-linecap:butt;stroke-linejoin:miter;stroke-opacity:1"
           d="m -558.95834,395.03637 -12.79885,0.45124 0.12308,-3.86017 -2.46134,-0.45124 v 1.18964 c 0.4511,0.4199 0.91331,0.83718 0.082,1.55883 l 0.082,0.94351 0.20511,0.98452 0.28716,10.58365 c 0,0 -1.96906,0.12309 -1.92803,-0.041 0.041,-0.16408 0.28716,-10.87082 0.28716,-10.87082 l 0.28715,-0.77943 0.0513,-0.76916 c -0.86924,-0.65877 -0.54898,-1.13268 -0.0108,-1.48703 l -0.082,-1.43578 -2.58438,-0.53328 12.3066,-2.21519 11.89636,2.17416 -5.78408,1.35374 z"
           id="path9241-4"
           sodipodi:nodetypes="cccccccccscccccccccc" />
      </g>
      <path
         id="circle10038"
         style="fill:#ffffff;fill-opacity:1;stroke:none;stroke-width:0.434623;stroke-linecap:round;stroke-linejoin:round;stroke-miterlimit:4;stroke-dasharray:none"
         d="m -542.35169,378.38398 a 7.2029134,7.2029134 0 0 0 -7.20318,7.20318 7.2029134,7.2029134 0 0 0 1.1715,3.93774 l -0.79272,3.40291 3.64371,-0.87387 -0.008,-0.008 a 7.2029134,7.2029134 0 0 0 3.18844,0.74414 7.2029134,7.2029134 0 0 0 7.20264,-7.20267 7.2029134,7.2029134 0 0 0 -7.20264,-7.20318 z m -1.44383,2.84014 c 0.0728,0 0.14335,0.0233 0.19222,0.062 0.0565,0.0449 0.13522,0.14372 0.17261,0.21601 0.0333,0.0643 0.10938,0.20383 0.1855,0.34105 0.0315,0.0568 0.0801,0.14761 0.108,0.20153 0.0279,0.0539 0.0672,0.12422 0.0873,0.15658 l 0.0367,0.0589 0.16227,0.008 c 0.13822,0.007 0.25413,0 0.26612,-0.0164 0.003,-0.003 0.0164,-0.04 0.0326,-0.0832 0.0161,-0.0432 0.0395,-0.09 0.0522,-0.10438 0.0127,-0.0143 0.0362,-0.0617 0.0522,-0.10491 0.0161,-0.0431 0.0397,-0.09 0.0522,-0.10437 0.0124,-0.0143 0.0364,-0.0617 0.0532,-0.10491 0.0169,-0.0432 0.0385,-0.0869 0.0476,-0.0977 0.009,-0.0109 0.0305,-0.052 0.0481,-0.0915 0.0958,-0.2153 0.21961,-0.32219 0.38963,-0.33642 0.0775,-0.006 0.10411,-0.003 0.18862,0.0284 0.0542,0.0199 0.10144,0.0412 0.10544,0.0476 0.004,0.006 0.0172,0.0116 0.0294,0.0119 0.0122,0 0.0633,0.0206 0.11369,0.046 0.0503,0.0254 0.12425,0.0554 0.1638,0.0661 0.0396,0.0108 0.0953,0.0361 0.12404,0.0563 0.0288,0.0201 0.0807,0.0438 0.11522,0.0532 0.0345,0.009 0.0857,0.0342 0.1142,0.0548 0.0285,0.0206 0.0827,0.0442 0.12041,0.0522 0.0759,0.0161 0.1334,0.0416 0.14936,0.0667 0.006,0.009 0.0328,0.033 0.0599,0.0532 0.0726,0.0541 0.11624,0.15 0.11732,0.25633 0,0.0681 -0.0106,0.12123 -0.0543,0.25271 -0.0305,0.0916 -0.0606,0.16936 -0.0666,0.17309 -0.006,0.004 -0.0206,0.0497 -0.0326,0.10181 -0.0119,0.0521 -0.0384,0.12996 -0.0589,0.17311 -0.0204,0.0431 -0.046,0.12015 -0.0569,0.17106 -0.0305,0.14211 -0.0196,0.16917 0.12248,0.30903 l 0.11988,0.11832 0.0863,-0.008 c 0.0605,-0.006 0.11432,-0.0217 0.1793,-0.0537 0.051,-0.0251 0.12335,-0.0518 0.16074,-0.0589 0.0374,-0.007 0.0841,-0.0209 0.10385,-0.031 0.0198,-0.01 0.0805,-0.0316 0.13438,-0.0475 0.0539,-0.0159 0.13533,-0.0436 0.18137,-0.0615 0.0711,-0.0276 0.10097,-0.0322 0.19638,-0.0284 0.10244,0.004 0.11866,0.008 0.1824,0.0501 0.0408,0.0265 0.0793,0.0647 0.093,0.0915 0.013,0.0254 0.0353,0.0569 0.0496,0.0698 0.0143,0.013 0.0328,0.051 0.0413,0.0847 0.008,0.0338 0.0214,0.0849 0.0289,0.11369 0.007,0.0288 0.0272,0.0673 0.0439,0.0853 0.0167,0.018 0.0408,0.0679 0.0532,0.1111 0.0122,0.0432 0.0358,0.0946 0.0527,0.11472 0.0169,0.0201 0.0399,0.0675 0.0506,0.10491 0.0109,0.0374 0.0372,0.10311 0.0589,0.14624 0.10441,0.20807 0.1237,0.26887 0.12404,0.38602 0,0.13679 -0.0206,0.18624 -0.12404,0.28835 -0.0506,0.05 -0.11009,0.0904 -0.19015,0.12919 -0.0641,0.0311 -0.13137,0.0668 -0.14936,0.0791 -0.018,0.0122 -0.0534,0.0292 -0.0786,0.0377 -0.0251,0.008 -0.0782,0.0349 -0.11782,0.0589 -0.0395,0.0241 -0.10224,0.054 -0.13952,0.0661 -0.0373,0.0122 -0.0897,0.0393 -0.11628,0.0605 -0.0266,0.0212 -0.0562,0.0382 -0.0656,0.0382 -0.0426,0 -0.0576,0.055 -0.0574,0.20878 0,0.23622 0.003,0.2409 0.0961,0.28784 0.15439,0.0766 0.4295,0.22201 0.44596,0.23564 0.009,0.008 0.0574,0.0337 0.10697,0.0579 0.0496,0.0241 0.0977,0.0529 0.10697,0.0641 0.009,0.0111 0.0337,0.0238 0.0543,0.0284 0.05,0.0111 0.14941,0.1003 0.19118,0.17155 0.0433,0.0738 0.0535,0.18101 0.0274,0.28628 -0.0222,0.0893 -0.10353,0.28726 -0.13124,0.31885 -0.01,0.0116 -0.0283,0.0538 -0.0398,0.0941 -0.0116,0.0402 -0.0387,0.0957 -0.0605,0.12298 -0.0217,0.0273 -0.0393,0.0608 -0.0393,0.0744 0,0.049 -0.0386,0.11618 -0.0796,0.13848 -0.0228,0.0124 -0.0579,0.0359 -0.078,0.0522 l -0.0362,0.0294 -0.0904,-0.045 c -0.0963,-0.0483 -0.12145,-0.0804 -0.12145,-0.15608 0,-0.0614 0.0344,-0.16682 0.0718,-0.2222 0.0177,-0.0262 0.041,-0.0812 0.0517,-0.12194 0.0106,-0.0407 0.0365,-0.0984 0.0579,-0.12817 0.0708,-0.0986 0.0852,-0.29617 0.0233,-0.32041 -0.0154,-0.006 -0.048,-0.0182 -0.0723,-0.0274 -0.0243,-0.009 -0.0603,-0.0303 -0.0801,-0.047 -0.0198,-0.0167 -0.0741,-0.042 -0.12041,-0.0563 -0.0463,-0.0143 -0.0944,-0.0377 -0.10697,-0.0517 -0.0127,-0.014 -0.0637,-0.0375 -0.1137,-0.0527 -0.05,-0.0151 -0.10115,-0.038 -0.11369,-0.0506 -0.0124,-0.0124 -0.0553,-0.0365 -0.0946,-0.0532 -0.0393,-0.0167 -0.0834,-0.0415 -0.0977,-0.0553 -0.0143,-0.0138 -0.0417,-0.0369 -0.061,-0.0511 -0.0193,-0.0143 -0.0417,-0.0482 -0.0501,-0.0749 -0.008,-0.0269 -0.0302,-0.0865 -0.048,-0.1323 -0.031,-0.0794 -0.0321,-0.0938 -0.0279,-0.31369 0.004,-0.2001 0.008,-0.23833 0.032,-0.28937 0.0151,-0.0324 0.0343,-0.0776 0.0434,-0.10078 0.0209,-0.0533 0.13292,-0.14867 0.20978,-0.17881 0.0324,-0.0127 0.0681,-0.0315 0.0791,-0.0413 0.0111,-0.0101 0.0543,-0.0327 0.0961,-0.0512 0.0418,-0.0185 0.0973,-0.0481 0.12298,-0.0656 0.0257,-0.0175 0.0793,-0.0421 0.11938,-0.0543 0.0401,-0.0122 0.0851,-0.033 0.10025,-0.0465 0.0151,-0.0135 0.0676,-0.0373 0.11626,-0.0532 0.0821,-0.0269 0.0892,-0.0325 0.10543,-0.0801 0.0148,-0.0434 0.0143,-0.0632 -0.003,-0.13076 -0.0109,-0.0438 -0.0365,-0.10374 -0.0569,-0.13279 -0.0204,-0.029 -0.047,-0.0875 -0.0594,-0.13023 -0.0124,-0.0427 -0.0336,-0.0924 -0.047,-0.1106 -0.0132,-0.0183 -0.0362,-0.0672 -0.0506,-0.1085 -0.0146,-0.0414 -0.0492,-0.12417 -0.077,-0.1845 -0.0491,-0.10628 -0.052,-0.11025 -0.10284,-0.11885 -0.0695,-0.0116 -0.20749,0.0148 -0.26458,0.0512 -0.0521,0.0332 -0.11182,0.0538 -0.19431,0.0666 -0.0314,0.005 -0.0944,0.0262 -0.14005,0.0476 -0.13531,0.0633 -0.38685,0.10271 -0.48575,0.076 -0.10498,-0.0284 -0.13202,-0.0482 -0.31938,-0.23667 -0.21489,-0.21625 -0.27275,-0.30851 -0.2718,-0.42892 0,-0.0403 0.01,-0.0962 0.0201,-0.12507 0.0111,-0.0288 0.0345,-0.10972 0.0517,-0.17983 0.0172,-0.0701 0.043,-0.15031 0.0574,-0.17828 0.0143,-0.028 0.0354,-0.0927 0.047,-0.14367 0.0116,-0.0509 0.0352,-0.11372 0.0527,-0.13951 0.0396,-0.0583 0.0607,-0.14759 0.0501,-0.21342 -0.008,-0.0474 -0.0132,-0.0531 -0.108,-0.0977 -0.055,-0.0259 -0.13253,-0.0567 -0.17209,-0.0687 -0.0396,-0.0119 -0.0923,-0.0333 -0.11731,-0.0476 -0.0249,-0.0143 -0.0792,-0.0366 -0.12092,-0.0496 -0.0418,-0.013 -0.0951,-0.038 -0.11835,-0.0558 -0.0233,-0.0177 -0.0627,-0.0366 -0.0878,-0.0418 -0.0251,-0.005 -0.0649,-0.0206 -0.0884,-0.0341 -0.0328,-0.0188 -0.0543,-0.0222 -0.0915,-0.0146 -0.05,0.0103 -0.0538,0.0148 -0.10801,0.13332 -0.0148,0.0324 -0.0375,0.0792 -0.0512,0.10441 -0.0135,0.0251 -0.0526,0.10483 -0.0863,0.17671 -0.0337,0.0719 -0.0728,0.15108 -0.0868,0.17624 -0.014,0.0251 -0.0398,0.0771 -0.0574,0.11523 -0.0435,0.0942 -0.15645,0.2318 -0.21138,0.25786 -0.0249,0.0119 -0.0797,0.0266 -0.12194,0.0326 -0.0989,0.014 -0.59095,0.003 -0.6594,-0.0151 -0.0635,-0.0164 -0.17258,-0.12142 -0.21547,-0.20722 -0.0161,-0.0324 -0.0401,-0.0709 -0.0532,-0.0853 -0.013,-0.0143 -0.0335,-0.0556 -0.0455,-0.0915 -0.0119,-0.036 -0.037,-0.0853 -0.0553,-0.10954 -0.0183,-0.0241 -0.0439,-0.0793 -0.0574,-0.12248 -0.0135,-0.0431 -0.0393,-0.0958 -0.0574,-0.11731 -0.018,-0.0214 -0.0424,-0.0723 -0.0537,-0.11316 -0.018,-0.0645 -0.0272,-0.0784 -0.0729,-0.10335 l -0.0527,-0.0284 -0.11266,0.0289 c -0.0621,0.0161 -0.12099,0.0368 -0.13073,0.046 -0.0271,0.0257 -0.10782,0.0641 -0.15761,0.0749 -0.0246,0.005 -0.0921,0.0326 -0.14986,0.0605 -0.0578,0.0279 -0.11221,0.0506 -0.12094,0.0506 -0.0201,0 -0.14814,0.0641 -0.17828,0.0894 -0.0446,0.0373 -0.0182,0.26898 0.0424,0.37156 0.0148,0.0254 0.038,0.10115 0.0511,0.16846 0.0156,0.0805 0.0351,0.13928 0.0574,0.17208 0.0429,0.063 0.0548,0.13396 0.0548,0.32348 0,0.17915 0.005,0.16875 -0.17415,0.35502 -0.23929,0.24874 -0.27662,0.28319 -0.31985,0.2925 -0.023,0.005 -0.0585,0.0175 -0.0791,0.0279 -0.0311,0.0159 -0.0512,0.0167 -0.11781,0.004 -0.0441,-0.008 -0.12388,-0.0233 -0.17725,-0.0331 -0.0533,-0.01 -0.133,-0.0351 -0.17674,-0.0563 -0.0437,-0.0212 -0.10787,-0.0426 -0.14261,-0.0475 -0.0825,-0.0116 -0.16478,-0.041 -0.19794,-0.0708 -0.0282,-0.0254 -0.14941,-0.0537 -0.22944,-0.0537 -0.0667,0 -0.13277,0.0473 -0.14727,0.1049 -0.0291,0.11595 -0.0526,0.17833 -0.0765,0.20413 -0.0143,0.0154 -0.038,0.0743 -0.0522,0.13073 -0.0143,0.0565 -0.0372,0.11861 -0.0512,0.13798 -0.014,0.0193 -0.0375,0.0808 -0.0527,0.13695 -0.0151,0.0562 -0.0397,0.1148 -0.0537,0.13023 -0.0185,0.0201 -0.0214,0.0308 -0.0103,0.0377 0.008,0.005 0.0236,0.0291 0.0336,0.0532 0.0156,0.0371 0.0298,0.0471 0.0915,0.0651 0.04,0.0116 0.0922,0.0383 0.11629,0.0594 0.0254,0.0222 0.0759,0.0469 0.11988,0.0584 0.0418,0.0109 0.0879,0.031 0.10232,0.0445 0.0145,0.0135 0.0601,0.037 0.10078,0.0522 0.0408,0.0151 0.0876,0.0379 0.10437,0.0506 0.0167,0.0127 0.0601,0.0344 0.0961,0.0476 0.089,0.0326 0.20661,0.14933 0.23048,0.22891 0.0241,0.0808 0.0251,0.67898 0,0.74674 -0.0272,0.0767 -0.15473,0.2 -0.23408,0.22632 -0.0372,0.0124 -0.0748,0.0311 -0.0837,0.0419 -0.0199,0.0238 -0.0752,0.0474 -0.16071,0.0687 -0.0351,0.009 -0.0819,0.0298 -0.10438,0.0465 -0.0225,0.0167 -0.0731,0.0406 -0.11266,0.0532 -0.0395,0.0127 -0.0896,0.0391 -0.1111,0.0589 -0.0217,0.0198 -0.0603,0.0425 -0.0858,0.0506 -0.0356,0.0114 -0.0532,0.0282 -0.0744,0.0718 -0.0177,0.0362 -0.023,0.0619 -0.0151,0.0698 0.007,0.007 0.0246,0.0558 0.0398,0.10903 0.0151,0.0533 0.0443,0.12674 0.0646,0.16278 0.0204,0.0361 0.0452,0.10051 0.0553,0.14366 0.0101,0.0432 0.0332,0.10092 0.0517,0.12817 0.0185,0.0272 0.0375,0.0683 0.0418,0.0915 0.0279,0.14721 0.0576,0.19478 0.13386,0.21391 0.0459,0.0114 0.18515,-0.0196 0.24545,-0.0548 0.0306,-0.0177 0.1034,-0.0395 0.17468,-0.0517 0.0819,-0.014 0.13824,-0.0317 0.17155,-0.0537 0.0349,-0.023 0.0861,-0.0386 0.17209,-0.0517 0.0673,-0.0103 0.14311,-0.0254 0.16846,-0.0331 0.0542,-0.0167 0.23252,0.0145 0.28731,0.0501 0.018,0.0116 0.1189,0.10726 0.22376,0.21241 0.21526,0.21582 0.22119,0.22743 0.22119,0.41753 0,0.13386 -0.0198,0.22633 -0.0651,0.30851 -0.0225,0.0409 -0.0442,0.11268 -0.0584,0.19224 -0.0127,0.0711 -0.033,0.14047 -0.046,0.15709 -0.0289,0.0369 -0.0661,0.19579 -0.0661,0.28318 0,0.0554 0.005,0.0696 0.0336,0.0894 0.0185,0.013 0.05,0.0365 0.0703,0.0527 0.0204,0.0161 0.0455,0.0295 0.0558,0.0295 0.0423,0 0.15555,0.0419 0.18965,0.0703 0.0201,0.0167 0.0794,0.0405 0.13176,0.0532 0.0523,0.0127 0.11563,0.0373 0.14058,0.0542 0.0249,0.0169 0.0919,0.0402 0.14883,0.0517 0.10011,0.0204 0.10456,0.0199 0.15554,-0.006 0.0462,-0.0236 0.0553,-0.0361 0.0744,-0.10232 0.0119,-0.0415 0.0353,-0.09 0.0517,-0.108 0.0164,-0.018 0.0426,-0.0705 0.0579,-0.11679 0.0153,-0.0462 0.0392,-0.0966 0.0537,-0.11215 0.0145,-0.0156 0.0388,-0.0629 0.0537,-0.10541 0.0148,-0.0426 0.0406,-0.0952 0.0569,-0.11679 0.0164,-0.0217 0.043,-0.0658 0.0594,-0.0982 0.0389,-0.0768 0.11324,-0.15345 0.16639,-0.17105 0.0794,-0.0262 0.20585,-0.0378 0.42839,-0.0398 0.33031,-0.003 0.41743,0.023 0.5085,0.15092 0.0622,0.0873 0.20413,0.3507 0.20413,0.37877 0,0.0101 0.0114,0.032 0.0254,0.0496 0.014,0.0175 0.0377,0.07 0.0532,0.11626 0.0154,0.0463 0.0398,0.0967 0.0537,0.11163 0.014,0.0151 0.0389,0.0619 0.0553,0.1044 0.0285,0.0737 0.0319,0.0775 0.0811,0.0837 0.0648,0.008 0.21503,-0.0308 0.27543,-0.0718 0.0249,-0.0169 0.0861,-0.0398 0.13592,-0.0512 0.0498,-0.0114 0.11205,-0.0352 0.13848,-0.0532 0.0343,-0.0233 0.0655,-0.0328 0.10853,-0.0326 0.0539,0 0.0678,0.007 0.1292,0.0641 0.0492,0.0458 0.0682,0.0735 0.0682,0.0982 0,0.0418 -0.032,0.12161 -0.0625,0.15555 -0.034,0.0379 -0.14537,0.10573 -0.2186,0.13332 -0.036,0.0135 -0.0828,0.0344 -0.10438,0.0465 -0.0217,0.0122 -0.0804,0.0355 -0.13076,0.0517 -0.0503,0.0161 -0.10046,0.0368 -0.11162,0.0465 -0.0587,0.051 -0.24096,0.0784 -0.34777,0.0522 v 0 c -0.10906,-0.0267 -0.22434,-0.13906 -0.30232,-0.29506 -0.0198,-0.0396 -0.0484,-0.0927 -0.0635,-0.11782 -0.0151,-0.0251 -0.0381,-0.0752 -0.0512,-0.1111 -0.013,-0.036 -0.0339,-0.0791 -0.0465,-0.0956 -0.0127,-0.0164 -0.0385,-0.0704 -0.0574,-0.11988 -0.0188,-0.0495 -0.042,-0.0962 -0.0512,-0.10388 -0.009,-0.008 -0.0306,-0.049 -0.0475,-0.0915 -0.0269,-0.0678 -0.0364,-0.0788 -0.0786,-0.0915 -0.053,-0.0159 -0.20317,-0.0188 -0.31006,-0.006 -0.0676,0.008 -0.0697,0.0103 -0.12608,0.0951 -0.0316,0.0475 -0.0732,0.11861 -0.0925,0.15814 -0.0193,0.0396 -0.0606,0.11919 -0.0915,0.17674 -0.0309,0.0575 -0.0721,0.13666 -0.092,0.17621 -0.0198,0.0396 -0.0464,0.0838 -0.0589,0.0982 -0.0124,0.0143 -0.0294,0.0475 -0.0377,0.0734 -0.0225,0.0705 -0.17172,0.22611 -0.23464,0.24495 -0.10856,0.0325 -0.29609,0.0138 -0.36843,-0.0367 -0.018,-0.0124 -0.0737,-0.0364 -0.12404,-0.0527 -0.0503,-0.0164 -0.11226,-0.0402 -0.13745,-0.0532 -0.0543,-0.0281 -0.26797,-0.1176 -0.35658,-0.14933 -0.0344,-0.0122 -0.0787,-0.0356 -0.0982,-0.0517 -0.0196,-0.0161 -0.0551,-0.0331 -0.0791,-0.0377 -0.0549,-0.0106 -0.13279,-0.0474 -0.13279,-0.0625 0,-0.006 -0.0246,-0.0268 -0.0543,-0.0455 -0.12367,-0.0781 -0.1483,-0.13679 -0.13901,-0.3328 0.005,-0.11464 0.013,-0.15417 0.0413,-0.216 0.019,-0.0416 0.0467,-0.12277 0.0615,-0.18037 0.0145,-0.0576 0.0354,-0.12163 0.046,-0.14211 0.0106,-0.0204 0.0333,-0.0913 0.0501,-0.15761 0.0169,-0.0663 0.0391,-0.14123 0.0496,-0.16639 0.0302,-0.0728 0,-0.13772 -0.12092,-0.26562 l -0.10128,-0.10697 h -0.0801 c -0.0438,0 -0.0875,0.008 -0.0971,0.0161 -0.0101,0.008 -0.0761,0.03 -0.1473,0.0486 -0.0712,0.0185 -0.15565,0.0457 -0.18809,0.0605 -0.0324,0.0146 -0.112,0.0408 -0.17674,0.0584 -0.0647,0.0175 -0.14322,0.044 -0.17415,0.0589 -0.0368,0.0177 -0.0933,0.0297 -0.1638,0.0341 -0.0932,0.006 -0.11523,0.003 -0.16383,-0.0222 -0.12237,-0.0624 -0.21302,-0.19245 -0.33227,-0.47802 -0.018,-0.0432 -0.0543,-0.12851 -0.0811,-0.18965 -0.0268,-0.0611 -0.0689,-0.16291 -0.0935,-0.22633 -0.0246,-0.0634 -0.053,-0.12856 -0.0635,-0.1447 -0.0284,-0.0433 -0.0708,-0.22047 -0.0734,-0.30697 0,-0.0415 0.008,-0.10451 0.0196,-0.14054 0.0266,-0.08 0.11554,-0.18201 0.17775,-0.2031 0.0251,-0.008 0.0711,-0.0324 0.10181,-0.0532 0.0306,-0.0209 0.0749,-0.0444 0.0982,-0.0522 0.0233,-0.008 0.0498,-0.0204 0.0594,-0.0284 0.0101,-0.008 0.0574,-0.0352 0.10594,-0.0605 0.42953,-0.22246 0.43752,-0.22688 0.45837,-0.26871 0.0143,-0.0288 0.0185,-0.0808 0.0164,-0.20825 -0.003,-0.18966 0.007,-0.16825 -0.12092,-0.25114 -0.0395,-0.0257 -0.10395,-0.0577 -0.14313,-0.0713 -0.0392,-0.0135 -0.0835,-0.0363 -0.0987,-0.0506 -0.0151,-0.0143 -0.065,-0.0405 -0.11057,-0.0584 -0.0456,-0.018 -0.0925,-0.0405 -0.10388,-0.0501 -0.0114,-0.0101 -0.0556,-0.0307 -0.0982,-0.0465 -0.16928,-0.063 -0.30671,-0.18185 -0.34108,-0.29506 -0.0375,-0.12369 -0.0135,-0.33025 0.0522,-0.44857 0.0169,-0.0305 0.0404,-0.0894 0.0522,-0.13074 0.0119,-0.0414 0.034,-0.0957 0.0486,-0.12091 0.0145,-0.0251 0.0429,-0.0872 0.063,-0.13748 0.0748,-0.18722 0.10623,-0.2567 0.13541,-0.29972 0.0164,-0.0243 0.0378,-0.0727 0.0475,-0.10747 0.0132,-0.0479 0.0371,-0.0829 0.0972,-0.14314 0.10911,-0.10962 0.14798,-0.12753 0.26768,-0.12454 0.0802,0.003 0.13642,0.0156 0.3266,0.0801 0.12644,0.043 0.26225,0.0875 0.30178,0.0987 0.0396,0.0111 0.0982,0.0356 0.13023,0.0543 0.0776,0.0454 0.21336,0.0712 0.27027,0.0512 0.0596,-0.0209 0.22098,-0.2072 0.24082,-0.27803 0.008,-0.0302 0.0122,-0.0605 0.008,-0.0672 -0.004,-0.007 -0.0251,-0.0805 -0.0465,-0.1638 -0.0214,-0.0834 -0.045,-0.16272 -0.0522,-0.17624 -0.007,-0.0135 -0.0307,-0.0877 -0.0522,-0.16483 -0.0214,-0.0772 -0.0448,-0.14759 -0.0517,-0.15608 -0.0294,-0.0361 -0.0548,-0.1632 -0.0548,-0.27647 0,-0.0976 0.005,-0.12924 0.0295,-0.17671 0.0427,-0.0842 0.16701,-0.17687 0.27284,-0.20362 0.0459,-0.0117 0.0952,-0.0317 0.10956,-0.0444 0.0386,-0.0343 0.0759,-0.0508 0.14727,-0.0661 0.0352,-0.008 0.0922,-0.0341 0.12713,-0.0589 0.035,-0.0249 0.0739,-0.0455 0.0863,-0.0455 0.0124,0 0.0628,-0.0201 0.11213,-0.0449 0.12705,-0.0641 0.32531,-0.13822 0.41291,-0.15452 0.0241,-0.004 0.0486,-0.007 0.0729,-0.006 z m 1.06142,2.43449 c 0.10944,0 0.21903,0.008 0.262,0.0249 0.0451,0.0175 0.30575,0.0711 0.35451,0.0729 0.004,0 0.0295,0.0148 0.0558,0.0325 0.0262,0.0177 0.0785,0.0417 0.11626,0.0527 0.0377,0.0109 0.094,0.0405 0.1256,0.0656 0.0316,0.0251 0.0625,0.0455 0.0682,0.0455 0.01,0 0.0802,0.0551 0.1819,0.14211 0.0479,0.0409 0.19833,0.19103 0.25527,0.25476 0.0183,0.0204 0.0442,0.0589 0.0579,0.0858 0.0138,0.0268 0.0347,0.0569 0.0465,0.0667 0.0257,0.0214 0.0718,0.10879 0.0718,0.13589 0,0.0106 0.0145,0.0368 0.0326,0.0584 0.0196,0.0233 0.0417,0.0753 0.0537,0.12817 0.0222,0.0966 0.0419,0.16057 0.078,0.2527 0.0193,0.0492 0.0236,0.11247 0.0274,0.38603 0.003,0.17975 0.0106,0.34798 0.0175,0.37412 0.008,0.0292 0.0304,0.0607 0.0579,0.0816 0.0246,0.0188 0.0485,0.0466 0.0532,0.0615 0.005,0.0148 0.0204,0.0314 0.0346,0.0367 0.0481,0.0177 0.77526,0.73274 0.80047,0.78703 0.006,0.014 0.0164,0.0254 0.0222,0.0254 0.0156,0 0.29972,0.28525 0.29972,0.30076 0,0.007 0.0175,0.0238 0.0393,0.0372 0.0774,0.0471 0.54742,0.5225 0.58034,0.58703 0.0119,0.0236 0.0302,0.0424 0.0408,0.0424 0.0106,0 0.0922,0.0721 0.18138,0.16018 0.0892,0.0881 0.21568,0.21286 0.28114,0.27699 0.0654,0.0641 0.11885,0.1206 0.11885,0.12557 0,0.005 0.0175,0.0306 0.0382,0.0569 0.0209,0.0262 0.045,0.0787 0.0537,0.11626 0.009,0.0376 0.0332,0.10361 0.0538,0.14676 0.0302,0.0634 0.0388,0.10356 0.0454,0.20929 0.01,0.16026 -0.009,0.31118 -0.0465,0.36123 -0.0148,0.0201 -0.0346,0.071 -0.0444,0.11317 -0.0193,0.0833 -0.0386,0.12594 -0.0739,0.16639 -0.0127,0.0143 -0.0308,0.0436 -0.0408,0.0651 -0.0101,0.0214 -0.0339,0.0466 -0.0532,0.0558 -0.0193,0.009 -0.0389,0.0285 -0.0434,0.0429 -0.005,0.0143 -0.0356,0.0408 -0.0692,0.0589 -0.0336,0.018 -0.0808,0.047 -0.10438,0.0641 -0.0236,0.0172 -0.0723,0.0378 -0.10853,0.0455 -0.0362,0.008 -0.0847,0.028 -0.10748,0.045 -0.0227,0.0169 -0.0533,0.0348 -0.0677,0.0403 -0.0446,0.0169 -0.24313,0.0272 -0.35965,0.0185 v 0 c -0.12631,-0.009 -0.15005,-0.0167 -0.19587,-0.0579 -0.0183,-0.0164 -0.0661,-0.0359 -0.10801,-0.0444 -0.0518,-0.0106 -0.0916,-0.0296 -0.12919,-0.061 -0.0299,-0.0251 -0.067,-0.0515 -0.0822,-0.0594 -0.0151,-0.008 -0.0494,-0.0356 -0.0765,-0.0615 -0.027,-0.0259 -0.0704,-0.0678 -0.0966,-0.093 -0.0262,-0.0251 -0.0642,-0.0558 -0.0847,-0.0682 -0.0204,-0.0124 -0.0377,-0.0317 -0.0377,-0.0424 0,-0.0106 -0.0159,-0.0284 -0.0357,-0.0393 -0.0199,-0.0109 -0.0653,-0.0521 -0.10129,-0.092 -0.0359,-0.0399 -0.11117,-0.11869 -0.1669,-0.17518 -0.0557,-0.0565 -0.1012,-0.10795 -0.10128,-0.11419 -1e-4,-0.006 -0.0212,-0.0249 -0.0465,-0.0414 -0.0254,-0.0164 -0.0513,-0.0441 -0.0579,-0.0615 -0.007,-0.0175 -0.0298,-0.0407 -0.0512,-0.0517 -0.0214,-0.0111 -0.0424,-0.0319 -0.047,-0.0465 -0.005,-0.0145 -0.0241,-0.0365 -0.0434,-0.0486 -0.0193,-0.0122 -0.0569,-0.0432 -0.0832,-0.0687 -0.0265,-0.0254 -0.0587,-0.0557 -0.0718,-0.0672 -0.0132,-0.0114 -0.0326,-0.0299 -0.0434,-0.0413 -0.0262,-0.028 -0.0695,-0.0719 -0.16124,-0.1628 -0.28421,-0.28165 -0.44029,-0.44484 -0.44029,-0.46093 0,-0.007 -0.0233,-0.0278 -0.0522,-0.046 -0.0288,-0.0183 -0.0522,-0.0416 -0.0522,-0.0522 0,-0.0106 -0.0233,-0.034 -0.0522,-0.0522 -0.0288,-0.0183 -0.0527,-0.0421 -0.0527,-0.0527 0,-0.0106 -0.0159,-0.0286 -0.0357,-0.0408 -0.0198,-0.0122 -0.0565,-0.0427 -0.0816,-0.0672 -0.0251,-0.0246 -0.10613,-0.1025 -0.17984,-0.17364 -0.0737,-0.0711 -0.13385,-0.13544 -0.13385,-0.14262 0,-0.007 -0.0177,-0.022 -0.0393,-0.0331 -0.0214,-0.0111 -0.0477,-0.0372 -0.0584,-0.0579 l -0.0196,-0.0377 h -0.33692 c -0.35989,0 -0.43437,-0.008 -0.5147,-0.061 -0.0283,-0.0185 -0.0847,-0.037 -0.14314,-0.046 -0.0946,-0.0148 -0.11715,-0.0241 -0.15658,-0.0662 -0.0108,-0.0114 -0.0536,-0.0313 -0.0951,-0.0439 -0.0484,-0.0146 -0.0825,-0.0342 -0.0956,-0.0543 -0.0114,-0.0172 -0.0399,-0.0377 -0.0636,-0.0455 -0.0238,-0.008 -0.0542,-0.0265 -0.0677,-0.0414 -0.0135,-0.0148 -0.0508,-0.045 -0.0832,-0.0672 -0.0843,-0.0578 -0.31367,-0.3189 -0.31367,-0.35708 0,-0.0101 -0.0204,-0.041 -0.0455,-0.0687 -0.031,-0.0343 -0.0509,-0.0728 -0.0615,-0.12091 -0.009,-0.0388 -0.0254,-0.0822 -0.0382,-0.0966 -0.0334,-0.0378 -0.0492,-0.0856 -0.0703,-0.21601 -0.0103,-0.0636 -0.0273,-0.13292 -0.0382,-0.15401 -0.0305,-0.0589 -0.0472,-0.18867 -0.047,-0.36843 0,-0.17936 0.014,-0.26231 0.0512,-0.30957 0.0159,-0.0201 0.0273,-0.0639 0.0331,-0.12557 0.0124,-0.13329 0.0291,-0.18695 0.0698,-0.23098 0.0196,-0.0212 0.0444,-0.0515 0.0558,-0.0677 0.0291,-0.0413 0.16931,-0.0512 0.24133,-0.0169 0.0682,0.0324 0.43312,0.40071 0.44339,0.44752 0.005,0.0246 0.0212,0.0411 0.0475,0.0511 0.0251,0.0101 0.0437,0.0289 0.0527,0.0548 0.008,0.022 0.0222,0.0403 0.0326,0.0403 0.01,0 0.0728,0.0486 0.13901,0.10801 l 0.12038,0.108 0.23567,-0.004 0.23564,-0.004 0.0408,-0.0481 c 0.0389,-0.0458 0.0415,-0.055 0.0543,-0.21807 0.0167,-0.21183 0.0106,-0.27747 -0.0274,-0.29713 -0.0153,-0.008 -0.0465,-0.0329 -0.0687,-0.0553 -0.0222,-0.0225 -0.0545,-0.0539 -0.0718,-0.0698 -0.0172,-0.0159 -0.0421,-0.0393 -0.0548,-0.0522 -0.0127,-0.013 -0.0362,-0.036 -0.0522,-0.0517 -0.0161,-0.0156 -0.0352,-0.035 -0.0424,-0.0429 -0.007,-0.008 -0.0275,-0.0294 -0.0455,-0.0476 -0.018,-0.018 -0.0565,-0.0592 -0.0853,-0.0915 -0.0288,-0.0323 -0.0743,-0.0806 -0.10128,-0.10748 -0.027,-0.0269 -0.0491,-0.0563 -0.0491,-0.0651 0,-0.009 -0.006,-0.0161 -0.013,-0.0161 -0.007,0 -0.0428,-0.0296 -0.0796,-0.0656 -0.0367,-0.036 -0.0717,-0.0651 -0.078,-0.0651 -0.0214,0 -0.052,-0.0779 -0.0599,-0.15349 -0.0122,-0.11678 0.0103,-0.17539 0.0889,-0.23823 0.0367,-0.0293 0.0705,-0.0531 0.0749,-0.0532 0.0496,-0.003 0.30943,-0.0556 0.35449,-0.0734 0.0422,-0.0167 0.15152,-0.0249 0.26098,-0.0249 z m 0.11626,0.45527 c -0.091,-0.004 -0.1941,-0.003 -0.22891,0.003 -0.0629,0.009 -0.0627,0.0101 -0.029,0.0274 0.0188,0.0101 0.0415,0.0362 0.0506,0.0584 0.009,0.0222 0.0279,0.046 0.0414,0.0532 0.0135,0.007 0.0389,0.0361 0.0568,0.0646 0.018,0.0285 0.0398,0.0522 0.0486,0.0522 0.009,0 0.0385,0.0217 0.0656,0.0486 0.0271,0.027 0.0743,0.0713 0.10488,0.0982 0.0589,0.0519 0.10906,0.0998 0.16073,0.15345 0.044,0.0457 0.0985,0.19027 0.10129,0.26821 0,0.0359 -0.005,0.10938 -0.0135,0.1633 -0.009,0.0539 -0.0214,0.21024 -0.0279,0.34727 -0.0124,0.26114 -0.0212,0.29956 -0.0852,0.36999 -0.05,0.0549 -0.0943,0.0678 -0.27337,0.0801 -0.0952,0.006 -0.22259,0.0212 -0.28371,0.0325 -0.0611,0.0114 -0.18815,0.0222 -0.28215,0.0238 -0.16812,0.003 -0.17193,0.003 -0.22429,-0.0336 -0.0293,-0.0201 -0.14954,-0.13075 -0.26715,-0.24545 -0.37978,-0.37037 -0.34586,-0.3415 -0.36586,-0.31729 -0.0238,0.0286 -0.019,0.28332 0.007,0.39015 0.0381,0.15494 0.11501,0.36098 0.14626,0.39222 0.0172,0.0172 0.0315,0.0427 0.0315,0.0563 0,0.0492 0.2399,0.3062 0.34005,0.36431 0.0324,0.0188 0.071,0.045 0.0858,0.0584 0.0148,0.0135 0.0699,0.0389 0.12248,0.0569 0.0526,0.018 0.10292,0.0388 0.11213,0.0465 0.009,0.008 0.0718,0.0294 0.13901,0.0485 0.11113,0.0319 0.1424,0.0353 0.34467,0.0352 0.12695,0 0.253,-0.007 0.29406,-0.0164 0.0481,-0.0108 0.0924,-0.0119 0.13333,-0.005 0.0727,0.0135 0.2024,0.0959 0.22323,0.14158 0.008,0.0177 0.0312,0.0408 0.0512,0.0512 0.0201,0.0103 0.0397,0.0327 0.0439,0.0496 0.004,0.0169 0.0227,0.0388 0.0413,0.0486 0.0185,0.0101 0.0476,0.0403 0.0646,0.0672 0.0169,0.027 0.0392,0.0491 0.0496,0.0491 0.0103,0 0.034,0.0196 0.0522,0.0434 0.0182,0.0238 0.0473,0.0506 0.0646,0.06 0.0172,0.009 0.0381,0.0312 0.046,0.0486 0.008,0.0175 0.0338,0.0437 0.0579,0.0579 0.0241,0.0143 0.0507,0.0404 0.0589,0.0584 0.008,0.018 0.0228,0.0326 0.0326,0.0326 0.0101,0 0.0393,0.0222 0.0656,0.0491 0.0262,0.027 0.0613,0.0611 0.0775,0.076 0.0161,0.0148 0.0383,0.0369 0.0491,0.0486 0.0109,0.0116 0.0342,0.036 0.0522,0.0543 0.10554,0.1071 0.14366,0.15041 0.14366,0.16277 0,0.008 0.0169,0.0227 0.0377,0.0336 0.0209,0.0109 0.0441,0.0371 0.0517,0.0589 0.008,0.0228 0.0278,0.0452 0.0465,0.0522 0.018,0.007 0.0419,0.0305 0.0532,0.0522 0.0111,0.0217 0.0375,0.0485 0.0584,0.0594 0.0209,0.0109 0.0419,0.0314 0.0465,0.046 0.005,0.0146 0.0312,0.0381 0.0589,0.0522 0.0277,0.014 0.0543,0.0378 0.0589,0.0522 0.005,0.0146 0.0275,0.0353 0.0512,0.0465 0.0238,0.0114 0.0499,0.0346 0.0579,0.0522 0.008,0.0177 0.0206,0.032 0.0284,0.032 0.0172,0 0.19587,0.17634 0.19587,0.19325 0,0.007 0.0138,0.0183 0.0305,0.0259 0.0167,0.008 0.0407,0.0346 0.0527,0.06 0.0122,0.0254 0.0338,0.0503 0.0481,0.0548 0.0143,0.005 0.0346,0.0254 0.0454,0.0465 0.0109,0.0209 0.0353,0.0478 0.0538,0.0599 0.0185,0.0122 0.0385,0.036 0.0449,0.0527 0.006,0.0167 0.0302,0.0412 0.0527,0.0548 0.0225,0.0138 0.0516,0.0433 0.0651,0.0656 0.0135,0.0222 0.0322,0.0403 0.0413,0.0403 0.009,0 0.0368,0.0204 0.062,0.0455 0.0869,0.0862 0.13772,0.13157 0.17415,0.15502 0.0201,0.013 0.0419,0.038 0.0486,0.0558 0.007,0.0177 0.023,0.0361 0.0357,0.0408 0.0127,0.005 0.0431,0.0251 0.0672,0.046 0.0462,0.0399 0.0754,0.0542 0.17156,0.0827 0.0865,0.0257 0.33086,0.0164 0.39896,-0.0151 v 0 c 0.0288,-0.0132 0.0743,-0.0432 0.10129,-0.0666 0.027,-0.0235 0.0549,-0.0429 0.062,-0.0429 0.007,0 0.0251,-0.0266 0.0403,-0.0589 0.0154,-0.0324 0.0321,-0.0589 0.0372,-0.0589 0.005,0 0.0217,-0.0225 0.0372,-0.0501 0.0642,-0.1142 0.0582,-0.42516 -0.01,-0.50541 -0.0122,-0.0143 -0.0374,-0.0523 -0.0558,-0.0847 -0.0185,-0.0324 -0.10099,-0.12682 -0.18343,-0.20979 -0.0824,-0.0831 -0.15412,-0.16397 -0.15918,-0.17984 -0.005,-0.0159 -0.0175,-0.029 -0.0279,-0.029 -0.0106,0 -0.0606,-0.043 -0.1111,-0.0951 -0.10599,-0.10948 -0.0902,-0.0943 -0.18087,-0.17518 -0.16928,-0.15107 -0.49096,-0.48482 -0.5121,-0.53123 -0.008,-0.0164 -0.0302,-0.037 -0.0506,-0.046 -0.0204,-0.009 -0.0444,-0.034 -0.0532,-0.0553 -0.009,-0.0214 -0.0238,-0.0388 -0.0336,-0.0388 -0.0201,0 -0.30567,-0.2735 -0.59947,-0.57465 -0.10837,-0.11107 -0.24447,-0.24905 -0.30281,-0.30694 -0.0583,-0.0579 -0.11015,-0.11872 -0.11523,-0.13489 -0.005,-0.0161 -0.0185,-0.0294 -0.0295,-0.0294 -0.0183,0 -0.0436,-0.0214 -0.1881,-0.15814 -0.0764,-0.0723 -0.0839,-0.11919 -0.0646,-0.39378 0.0238,-0.33798 0.003,-0.5462 -0.0661,-0.67024 -0.0201,-0.0362 -0.0428,-0.0897 -0.0506,-0.11935 -0.008,-0.0296 -0.0311,-0.0754 -0.0517,-0.10131 -0.0206,-0.0259 -0.0445,-0.0648 -0.0537,-0.0868 -0.009,-0.0222 -0.035,-0.0597 -0.0574,-0.0832 -0.0225,-0.0235 -0.0616,-0.0696 -0.0868,-0.10284 -0.0251,-0.0332 -0.0668,-0.0729 -0.093,-0.0878 -0.0262,-0.0148 -0.0575,-0.0414 -0.0692,-0.0594 -0.0119,-0.018 -0.0325,-0.0331 -0.046,-0.0331 -0.0135,0 -0.0555,-0.0209 -0.0935,-0.0465 -0.0483,-0.0325 -0.099,-0.0527 -0.16796,-0.0667 -0.0543,-0.0111 -0.12525,-0.0349 -0.15761,-0.0532 -0.0519,-0.0292 -0.0785,-0.034 -0.22429,-0.0398 z m 3.25718,4.29016 c 0.0251,-0.003 0.0456,0.003 0.0775,0.009 0.1125,0.0251 0.1756,0.0579 0.21706,0.11266 0.0212,0.0279 0.0486,0.0618 0.061,0.0754 0.0485,0.0528 0.0677,0.11652 0.0687,0.22997 0,0.15478 -0.0111,0.20003 -0.0749,0.27234 -0.0302,0.0342 -0.0636,0.0756 -0.0744,0.092 -0.0369,0.0561 -0.21857,0.10279 -0.32657,0.0842 v 0 c -0.0183,-0.003 -0.0653,-0.0172 -0.10491,-0.0315 -0.0888,-0.0318 -0.19706,-0.13692 -0.22169,-0.21447 -0.009,-0.0288 -0.0249,-0.0638 -0.0346,-0.078 -0.028,-0.0406 -0.0212,-0.11766 0.0222,-0.24908 0.0353,-0.10715 0.0482,-0.12943 0.10801,-0.18603 0.0587,-0.0555 0.083,-0.0678 0.17878,-0.0935 0.0495,-0.0132 0.0792,-0.0209 0.1044,-0.0228 z" />
      <g
         id="g10059"
         transform="translate(0,1.9311067)">
        <path
           id="circle10055"
           style="fill:#ffffff;fill-opacity:1;stroke:none;stroke-width:1.64267;stroke-linecap:round;stroke-linejoin:round;stroke-miterlimit:4;stroke-dasharray:none"
           d="m 1003.5332,2350.0195 a 27.22361,27.22361 0 0 0 -27.01953,27.2227 27.22361,27.22361 0 0 0 20.34766,26.3418 l 7.37497,10.9277 6.1172,-10.8633 a 27.22361,27.22361 0 0 0 20.6074,-26.4062 27.22361,27.22361 0 0 0 -27.2226,-27.2227 27.22361,27.22361 0 0 0 -0.2051,0 z m -0.4258,7.084 c 2.6815,0 3.4955,0.073 4.0567,0.336 0.2112,0.099 0.6332,0.2059 0.998,0.2539 0.6296,0.082 0.8213,0.1446 1.0391,0.3339 0.063,0.055 0.3651,0.1494 0.6718,0.211 0.5728,0.1153 0.9473,0.263 0.9473,0.373 0,0.034 0.1842,0.1199 0.4082,0.1895 0.237,0.074 0.4856,0.2118 0.5977,0.3301 0.1058,0.1118 0.2994,0.2316 0.4297,0.2675 0.1304,0.038 0.3624,0.174 0.5156,0.3047 0.1531,0.1308 0.3805,0.2889 0.5058,0.3535 0.1255,0.065 0.2636,0.1836 0.3067,0.2637 0.043,0.081 0.1722,0.1807 0.2871,0.2207 0.1149,0.04 0.2534,0.1603 0.3086,0.2676 0.055,0.107 0.1953,0.2332 0.3105,0.2812 0.1172,0.049 0.2473,0.1777 0.295,0.293 0.047,0.1134 0.127,0.2051 0.1777,0.2051 0.051,0 0.1675,0.1001 0.2578,0.2207 0.091,0.1206 0.2678,0.3174 0.3945,0.4375 0.1266,0.1202 0.2286,0.2567 0.2286,0.3047 0,0.048 0.1099,0.1913 0.2441,0.3183 0.1345,0.1267 0.3077,0.3771 0.3848,0.5567 0.077,0.1795 0.2061,0.3856 0.2851,0.457 0.079,0.071 0.1796,0.2435 0.2246,0.3848 0.045,0.1413 0.1852,0.4167 0.3125,0.6113 0.1274,0.1947 0.2724,0.5124 0.3223,0.707 0.05,0.1947 0.1448,0.434 0.2109,0.5313 0.155,0.2283 0.2493,0.5391 0.3789,1.2402 0.058,0.3118 0.1426,0.661 0.1875,0.7774 0.3988,1.0365 0.459,5.0601 0.098,6.4394 -0.138,0.5266 -0.2056,0.8512 -0.3828,1.8379 -0.084,0.4659 -0.1926,0.8516 -0.2735,0.9609 -0.074,0.1002 -0.1909,0.429 -0.2578,0.7305 -0.075,0.3364 -0.1874,0.625 -0.291,0.7481 -0.093,0.1103 -0.168,0.2297 -0.168,0.2656 0,0.1931 -0.2366,0.8187 -0.375,0.9902 -0.088,0.1089 -0.2188,0.3738 -0.291,0.5879 -0.072,0.2139 -0.2013,0.4691 -0.2871,0.5664 -0.085,0.097 -0.2108,0.3252 -0.2773,0.5059 -0.067,0.181 -0.2152,0.4264 -0.3301,0.5469 -0.1153,0.1205 -0.209,0.268 -0.209,0.3281 0,0.1602 -0.2736,0.6699 -0.3594,0.6699 -0.04,0 -0.1386,0.1531 -0.2187,0.3379 -0.08,0.1848 -0.2194,0.4144 -0.3086,0.5117 -0.089,0.097 -0.2139,0.3325 -0.2774,0.5234 -0.064,0.1909 -0.1885,0.4336 -0.2773,0.5391 -0.089,0.1055 -0.2176,0.3724 -0.2871,0.5938 -0.079,0.2524 -0.1907,0.4441 -0.2969,0.5136 -0.093,0.061 -0.168,0.1656 -0.168,0.2325 10e-5,0.2668 -0.2894,1.2277 -0.4277,1.4218 -0.2067,0.2907 -0.2747,1.4522 -0.2793,4.7383 0,1.9744 -0.026,2.6984 -0.092,2.8301 -0.1961,0.3924 -0.9435,0.5491 -1.373,0.2871 -0.4095,-0.2498 -0.4095,-0.2485 -0.4336,-2.9043 -0.023,-2.711 0.044,-3.8616 0.2656,-4.3613 0.079,-0.1784 0.1792,-0.6171 0.2227,-0.9727 0.077,-0.6351 0.21,-1.0201 0.3847,-1.123 0.049,-0.026 0.1099,-0.1978 0.1367,-0.377 0.067,-0.4491 0.2291,-0.8823 0.3946,-1.0586 0.076,-0.081 0.1887,-0.3169 0.25,-0.5234 0.061,-0.2064 0.1927,-0.4567 0.291,-0.5547 0.098,-0.098 0.223,-0.3093 0.2793,-0.4688 0.056,-0.1594 0.1781,-0.3688 0.2715,-0.4668 0.093,-0.098 0.2371,-0.3605 0.3203,-0.5839 0.083,-0.2234 0.2004,-0.4337 0.2598,-0.4668 0.059,-0.034 0.1839,-0.2484 0.2773,-0.4785 0.093,-0.2302 0.2498,-0.4756 0.3477,-0.5469 0.098,-0.072 0.1777,-0.1785 0.1777,-0.2363 0,-0.1725 0.2887,-0.7905 0.3867,-0.8282 0.05,-0.019 0.1586,-0.254 0.2402,-0.5234 0.082,-0.2691 0.2115,-0.5695 0.2872,-0.666 0.076,-0.096 0.1994,-0.4169 0.2753,-0.7129 0.076,-0.296 0.2089,-0.6398 0.2969,-0.7637 0.1074,-0.1508 0.2069,-0.4748 0.2969,-0.9785 0.074,-0.4141 0.1971,-0.8615 0.2754,-0.9941 0.2116,-0.3595 0.3728,-2.5781 0.3183,-4.3946 -0.057,-1.8938 -0.1387,-2.589 -0.3515,-2.9765 -0.095,-0.172 -0.2126,-0.5464 -0.2617,-0.8301 -0.052,-0.3001 -0.1472,-0.581 -0.2266,-0.6719 -0.1818,-0.2082 -0.3059,-0.4608 -0.3652,-0.7363 -0.026,-0.1244 -0.1421,-0.3416 -0.2539,-0.4824 -0.1119,-0.1406 -0.2532,-0.4113 -0.3165,-0.6016 -0.07,-0.2098 -0.169,-0.3631 -0.25,-0.3887 -0.073,-0.023 -0.1536,-0.1094 -0.1796,-0.1914 -0.1021,-0.3209 -2.3931,-2.6035 -2.6133,-2.6035 -0.051,0 -0.218,-0.1047 -0.3711,-0.2324 -0.1531,-0.1281 -0.4144,-0.2772 -0.5801,-0.3321 -0.1655,-0.055 -0.3851,-0.1896 -0.4883,-0.2988 -0.1032,-0.1092 -0.2449,-0.1972 -0.3144,-0.1972 -0.1966,0 -0.6347,-0.2032 -0.8301,-0.3848 -0.1168,-0.1089 -0.3059,-0.1815 -0.5566,-0.2129 -0.4616,-0.058 -0.9935,-0.229 -1.1563,-0.373 -0.086,-0.076 -0.6051,-0.157 -1.8047,-0.2813 -1.4595,-0.1512 -1.9,-0.17 -3.3105,-0.1367 -2.0737,0.049 -3.46937,0.2221 -3.94729,0.4902 -0.18596,0.1043 -0.5579,0.2396 -0.82618,0.3008 -0.27477,0.062 -0.50339,0.1554 -0.52539,0.2129 -0.0227,0.056 -0.2199,0.1802 -0.43945,0.2773 -0.21959,0.097 -0.50736,0.2719 -0.64062,0.3887 -0.13342,0.1172 -0.28983,0.2129 -0.34766,0.2129 -0.0582,0 -0.22231,0.1042 -0.36328,0.2305 -0.63697,0.5707 -0.84858,0.7654 -1.01367,0.9355 -0.0971,0.1002 -0.29175,0.3003 -0.4336,0.4453 -0.14173,0.1448 -0.2798,0.338 -0.30664,0.4278 -0.0265,0.09 -0.12615,0.1979 -0.21875,0.2402 -0.0964,0.044 -0.20313,0.1837 -0.25,0.3262 -0.10242,0.3106 -0.34165,0.7207 -0.41992,0.7207 -0.034,0 -0.0989,0.1806 -0.14844,0.4023 -0.0567,0.2525 -0.16805,0.4937 -0.29883,0.6426 -0.17234,0.1965 -0.22783,0.3495 -0.3125,0.8867 -0.0574,0.3655 -0.18279,0.8225 -0.2871,1.041 l -0.18555,0.3887 -0.041,2.8672 c -0.0419,2.9637 -0.0567,3.1112 -0.34961,3.4316 -0.0711,0.078 -0.18556,0.3265 -0.25586,0.5528 -0.0703,0.2263 -0.19772,0.4814 -0.28125,0.5664 -0.0835,0.085 -0.2078,0.3278 -0.27734,0.539 -0.0695,0.2113 -0.19861,0.4486 -0.28516,0.5293 -0.0865,0.081 -0.20918,0.3276 -0.27343,0.5488 -0.0643,0.2213 -0.1913,0.492 -0.28125,0.6016 -0.09,0.1096 -0.23578,0.3961 -0.32422,0.6367 -0.0884,0.2408 -0.21921,0.4918 -0.29102,0.5567 -0.13946,0.1262 -0.29182,0.6968 -0.24609,0.9218 0.0151,0.075 0.0461,0.2251 0.0684,0.3321 0.0227,0.1069 0.0866,0.1933 0.14062,0.1933 0.0537,0 0.22313,0.1063 0.37696,0.2344 0.21203,0.1773 0.41608,0.2617 0.85156,0.3555 0.482,0.1035 0.63747,0.1752 0.9668,0.4433 0.21543,0.1754 0.40621,0.389 0.42382,0.4746 0.0189,0.086 0.0528,0.4898 0.0781,0.8985 0.0302,0.4953 0.10228,0.9137 0.21679,1.2558 0.0994,0.2964 0.20137,0.8365 0.24219,1.2754 0.0941,1.0127 0.13348,1.2036 0.30469,1.4942 0.0801,0.1353 0.19992,0.5607 0.26758,0.9453 0.10734,0.6128 0.15408,0.7328 0.36914,0.9707 0.13493,0.1493 0.26569,0.336 0.29101,0.416 0.0601,0.1894 0.65547,0.3652 1.23438,0.3652 0.85565,0 2.23356,-0.1555 2.5332,-0.2851 0.40241,-0.1742 0.88489,-0.2617 1.92774,-0.3535 0.63851,-0.057 0.99427,-0.1257 1.28902,-0.25 0.5732,-0.2412 0.9598,-0.1839 1.2988,0.1914 0.268,0.2967 0.3057,0.5168 0.1719,0.998 -0.09,0.3254 -0.258,0.4408 -0.8086,0.5489 -0.2336,0.046 -0.5561,0.1267 -0.7168,0.1796 -0.1606,0.053 -0.57453,0.1308 -0.91987,0.1739 -0.94167,0.1183 -0.9905,0.1463 -1.04492,0.6093 -0.0265,0.2132 -0.044,1.325 -0.041,2.4707 0.004,1.5825 -0.0175,2.1308 -0.0859,2.2774 -0.19464,0.4044 -0.74906,0.6097 -1.2246,0.4551 h -0.002 c -0.55351,-0.1799 -0.56119,-0.2145 -0.60156,-2.8515 -0.0189,-1.2715 -0.051,-2.3265 -0.0703,-2.3438 -0.0189,-0.019 -0.29031,-8e-4 -0.60157,0.033 -0.85258,0.099 -2.00091,0.04 -2.30078,-0.1191 -0.1353,-0.072 -0.37925,-0.1973 -0.54101,-0.2793 -0.25739,-0.1308 -0.68193,-0.5015 -1.26367,-1.1035 -0.0949,-0.098 -0.22721,-0.3373 -0.29297,-0.5313 -0.0658,-0.1935 -0.17744,-0.4325 -0.25,-0.5312 -0.0794,-0.1081 -0.20031,-0.5446 -0.30274,-1.0977 -0.0933,-0.5045 -0.218,-1.075 -0.27734,-1.2695 -0.16932,-0.5544 -0.31125,-1.4806 -0.36719,-2.3985 -0.0386,-0.6349 -0.0783,-0.8678 -0.16406,-0.9453 -0.27893,-0.2521 -0.92835,-0.6121 -1.33008,-0.7363 -0.25247,-0.078 -0.49286,-0.2035 -0.5664,-0.2969 -0.0703,-0.089 -0.21695,-0.2196 -0.32618,-0.291 -0.10923,-0.071 -0.26242,-0.2569 -0.34179,-0.4121 -0.0794,-0.1553 -0.20321,-0.3463 -0.27539,-0.4238 -0.3583,-0.3847 -0.36183,-1.8788 -0.004,-2.2813 0.0688,-0.078 0.18203,-0.2996 0.25195,-0.4941 0.0699,-0.1947 0.20069,-0.4355 0.29102,-0.5332 0.0907,-0.098 0.23199,-0.3896 0.3125,-0.6504 0.0805,-0.2608 0.20433,-0.5164 0.27539,-0.5664 0.0711,-0.05 0.18386,-0.2781 0.25,-0.5059 0.0661,-0.2279 0.19407,-0.4869 0.28515,-0.5781 0.0911,-0.091 0.23528,-0.3758 0.32032,-0.6309 0.0847,-0.2551 0.21051,-0.5041 0.27929,-0.5527 0.0692,-0.049 0.18241,-0.2624 0.25196,-0.4766 0.10582,-0.325 0.13616,-0.7643 0.17773,-2.6543 0.0385,-1.7487 0.0744,-2.3438 0.16016,-2.6172 0.0609,-0.1946 0.1325,-0.5928 0.1582,-0.8847 0.0616,-0.6964 0.22091,-1.395 0.38086,-1.666 0.0707,-0.1198 0.16886,-0.3919 0.21875,-0.6035 0.10243,-0.436 0.17783,-0.6056 0.35547,-0.8086 0.068,-0.078 0.1792,-0.3098 0.24609,-0.5157 0.0718,-0.2214 0.18847,-0.4197 0.28711,-0.4843 0.0919,-0.06 0.20383,-0.2206 0.24805,-0.3555 0.0446,-0.1349 0.20265,-0.3843 0.35156,-0.5567 0.14929,-0.1723 0.29222,-0.3756 0.31641,-0.4511 0.0227,-0.075 0.15256,-0.2214 0.28711,-0.3242 0.13455,-0.1028 0.24609,-0.2332 0.24609,-0.2911 0,-0.058 0.1043,-0.1666 0.23242,-0.2421 0.12851,-0.076 0.30355,-0.2341 0.39063,-0.3516 0.0869,-0.1175 0.19847,-0.2151 0.24609,-0.2149 0.0476,3e-4 0.19755,-0.1119 0.33399,-0.25 0.13606,-0.1383 0.38927,-0.3599 0.56445,-0.4941 0.29556,-0.2264 0.45931,-0.3205 0.91992,-0.5215 0.0975,-0.042 0.26161,-0.1429 0.36328,-0.2246 0.10167,-0.082 0.41002,-0.2091 0.68555,-0.2832 0.27553,-0.074 0.61497,-0.2125 0.75391,-0.3066 0.15798,-0.1074 0.44309,-0.2021 0.76367,-0.252 0.28195,-0.043 0.67555,-0.1575 0.875,-0.2539 0.58435,-0.2823 1.31624,-0.3459 3.99024,-0.3418 z m 2.0098,5.5391 c 0.2375,0.013 0.3806,0.046 0.5586,0.1035 0.4654,0.1489 0.5762,0.2954 0.6484,0.8594 0.096,0.7476 0.4178,1.8837 0.5547,1.957 0.2139,0.1145 0.6765,0 0.8066,-0.1992 0.063,-0.096 0.2135,-0.2224 0.334,-0.2832 0.1206,-0.061 0.2991,-0.1847 0.3965,-0.2754 0.3262,-0.3043 0.8181,-0.4748 1.2168,-0.4199 0.3122,0.043 0.4099,0.103 0.8067,0.4882 0.2486,0.2416 0.4536,0.4695 0.455,0.5059 0,0.038 0.1054,0.1311 0.2305,0.209 0.1251,0.078 0.2603,0.2135 0.2988,0.3008 0.039,0.088 0.1258,0.1773 0.1953,0.1992 0.1837,0.058 0.3183,0.3019 0.3731,0.6777 0.07,0.4824 0,0.6978 -0.3945,1.1602 -0.1928,0.2279 -0.3516,0.4525 -0.3516,0.5 0,0.048 -0.083,0.1519 -0.1856,0.2324 -0.2426,0.1909 -0.3655,0.7579 -0.2011,0.9238 0.063,0.064 0.6129,0.2111 1.3203,0.3555 1.5995,0.3269 1.5002,0.1997 1.5332,2.0059 0.026,1.5011 -0.038,1.9869 -0.3008,2.2343 -0.1349,0.1266 -0.3259,0.1747 -1.0391,0.2578 -1.3824,0.1614 -1.6764,0.3385 -1.5781,0.9532 0.034,0.2029 0.1086,0.3277 0.2832,0.4609 0.1316,0.1002 0.2383,0.2265 0.2383,0.2813 0,0.055 0.1249,0.2222 0.2774,0.373 0.3666,0.3628 0.4821,0.746 0.371,1.2266 -0.067,0.2891 -0.1623,0.4406 -0.496,0.7773 -0.2277,0.2298 -0.4489,0.418 -0.4922,0.418 -0.043,0 -0.116,0.071 -0.1621,0.1582 -0.046,0.088 -0.2705,0.3427 -0.4981,0.5664 -0.4075,0.4004 -0.4195,0.4066 -0.8203,0.4062 -0.2684,-2e-4 -0.4724,-0.041 -0.5957,-0.123 -0.4805,-0.3167 -0.892,-0.6218 -1.0859,-0.8027 -0.1168,-0.1089 -0.3562,-0.2303 -0.5313,-0.2696 -0.2876,-0.065 -0.3314,-0.057 -0.4629,0.084 -0.1436,0.1542 -0.3647,0.9799 -0.5215,1.9551 -0.087,0.5396 -0.2465,0.7405 -0.6797,0.8496 -0.3443,0.087 -2.4199,0.092 -2.7753,0.01 v 0 c -0.6212,-0.1478 -0.793,-0.4529 -0.877,-1.5547 -0.082,-1.0712 -0.085,-1.0809 -0.3965,-1.2852 -0.2589,-0.1693 -0.2782,-0.1703 -0.5644,-0.064 -0.1629,0.06 -0.3846,0.1953 -0.4942,0.3007 -0.4476,0.4302 -1.0923,0.8463 -1.36522,0.8829 -0.51292,0.069 -0.74206,-0.023 -1.18359,-0.4786 -0.55778,-0.5732 -0.5595,-0.5749 -1.0957,-1.0917 -0.40464,-0.3902 -0.48097,-0.5015 -0.52149,-0.7715 -0.0658,-0.4383 0.0152,-0.7248 0.28321,-1.0254 0.12699,-0.1418 0.28498,-0.3602 0.34961,-0.4864 0.0646,-0.1262 0.19136,-0.2797 0.2832,-0.3398 0.0968,-0.063 0.20244,-0.2388 0.25195,-0.416 0.0722,-0.2574 0.0696,-0.3391 -0.0215,-0.5176 -0.12964,-0.2506 -0.35421,-0.3208 -1.52344,-0.4746 -0.42962,-0.057 -0.84668,-0.1374 -0.92578,-0.1797 -0.079,-0.042 -0.20856,-0.2069 -0.28906,-0.3652 -0.1372,-0.2691 -0.14617,-0.3839 -0.125,-1.7871 0.0189,-1.2866 0.0415,-1.5271 0.14843,-1.6895 0.14174,-0.2162 0.39344,-0.2967 1.73438,-0.5527 0.53533,-0.1021 0.91081,-0.211 0.97461,-0.2813 0.17423,-0.1923 0.0601,-0.7158 -0.22071,-1.0136 -0.12963,-0.1376 -0.30114,-0.3791 -0.38085,-0.5352 -0.0797,-0.1561 -0.20516,-0.3146 -0.27735,-0.3535 -0.20447,-0.1092 -0.31312,-0.4588 -0.27344,-0.8711 0.0302,-0.3095 0.0744,-0.4021 0.2793,-0.582 0.13417,-0.118 0.26374,-0.2711 0.28906,-0.3399 0.0265,-0.069 0.15439,-0.1885 0.28516,-0.2656 0.13115,-0.077 0.27294,-0.2192 0.31641,-0.3145 0.0435,-0.095 0.17341,-0.2215 0.28906,-0.2812 0.11565,-0.06 0.23091,-0.1733 0.25586,-0.252 0.0575,-0.1814 0.33662,-0.3271 0.74609,-0.3886 0.25739,-0.039 0.39832,-0.014 0.71875,0.1289 0.21921,0.097 0.43323,0.2393 0.47461,0.3164 0.0412,0.077 0.16754,0.1732 0.28124,0.2129 0.1142,0.04 0.2787,0.168 0.3653,0.2851 0.2917,0.3946 1.0281,0.3647 1.1914,-0.049 0.041,-0.1036 0.106,-0.6012 0.1445,-1.1055 0.1092,-1.4259 0.1713,-1.472 2.0215,-1.5234 0.5545,-0.015 0.8874,-0.021 1.125,-0.01 z m -0.9942,1.7285 -0.291,0.2598 -0.291,0.2578 -0.072,0.7773 c -0.04,0.4277 -0.1061,0.8661 -0.1465,0.9727 -0.077,0.2018 -0.543,0.4658 -0.8262,0.4687 -0.082,0 -0.225,0.068 -0.3184,0.1504 -0.2698,0.2389 -0.5925,0.3457 -1.0488,0.3457 -0.4919,0 -0.7382,-0.093 -0.8398,-0.3164 -0.042,-0.093 -0.1608,-0.1766 -0.2832,-0.2012 -0.11573,-0.023 -0.35892,-0.1705 -0.54106,-0.3281 -0.18217,-0.1576 -0.37753,-0.2871 -0.43554,-0.2871 -0.15496,0 -0.59338,0.506 -0.59375,0.6855 -2.3e-4,0.093 0.0572,0.1721 0.14257,0.1993 0.0783,0.026 0.19237,0.1475 0.25586,0.2715 0.0631,0.1235 0.22111,0.341 0.34961,0.4843 0.63478,0.7082 0.49735,1.7217 -0.41015,3.0293 -0.22602,0.3258 -0.39976,0.3825 -1.43164,0.4707 l -0.70508,0.061 -0.0859,0.2949 c -0.076,0.2642 -0.0692,0.3139 0.0684,0.5078 0.17877,0.2525 0.61103,0.4024 1.34766,0.4688 0.56352,0.051 0.86376,0.1816 0.93164,0.4082 0.0264,0.088 0.13648,0.3035 0.24609,0.4785 0.22677,0.3624 0.42383,1.0498 0.42383,1.4824 0,0.364 -0.14965,0.7264 -0.42578,1.041 -0.11679,0.1331 -0.27572,0.3689 -0.35547,0.5254 -0.0797,0.1565 -0.19173,0.3027 -0.24805,0.3242 -0.13304,0.051 -0.13455,0.3086 0,0.3086 0.0556,0 0.19162,0.1092 0.30274,0.2442 l 0.20117,0.2461 0.19922,-0.211 c 0.10885,-0.1156 0.23961,-0.209 0.29101,-0.209 0.0514,0 0.23118,-0.116 0.40039,-0.2578 0.16893,-0.1417 0.40983,-0.301 0.53523,-0.3535 0.5123,-0.2158 1.5099,-0.059 2.1328,0.3359 0.1772,0.1123 0.3565,0.2051 0.4004,0.2051 0.044,0 0.1493,0.074 0.2343,0.1641 0.1244,0.1323 0.1679,0.3019 0.2227,0.8672 0.038,0.3863 0.069,0.7884 0.07,0.8945 0,0.15 0.061,0.2251 0.2676,0.334 0.317,0.1673 0.3207,0.1668 0.6621,0.064 0.31,-0.093 0.3092,-0.084 0.4082,-1.2597 0.057,-0.6717 0.079,-0.7532 0.248,-0.8985 0.1021,-0.088 0.294,-0.1902 0.4258,-0.2265 0.1319,-0.038 0.3046,-0.1308 0.3848,-0.211 0.3507,-0.3507 1.5514,-0.486 2.0527,-0.2304 0.147,0.075 0.314,0.1913 0.3692,0.2578 0.055,0.066 0.2359,0.1785 0.4023,0.25 0.1776,0.076 0.3361,0.2039 0.3848,0.3105 l 0.082,0.1817 0.1816,-0.17 c 0.1006,-0.093 0.2545,-0.2069 0.3418,-0.2519 0.2329,-0.1198 0.1982,-0.2869 -0.1582,-0.7461 -0.1753,-0.2256 -0.3183,-0.4459 -0.3183,-0.4902 0,-0.044 -0.066,-0.1216 -0.1465,-0.1719 -0.4521,-0.2823 -0.454,-1.5239 0,-2.0274 0.071,-0.079 0.1676,-0.2944 0.2168,-0.4765 0.1289,-0.4796 0.3112,-0.614 0.9785,-0.7305 0.8966,-0.1565 1.1663,-0.2442 1.416,-0.4551 l 0.2344,-0.1972 -0.1172,-0.2891 c -0.064,-0.1595 -0.1719,-0.3082 -0.2422,-0.3301 -0.07,-0.023 -0.45,-0.07 -0.8437,-0.1035 -0.8428,-0.073 -1.1121,-0.1975 -1.3164,-0.6113 -0.078,-0.1576 -0.174,-0.3508 -0.2129,-0.4278 -0.4427,-0.8745 -0.4585,-0.921 -0.459,-1.3359 0,-0.5231 0.2619,-1.0231 0.9062,-1.7226 0.1928,-0.2094 0.229,-0.294 0.1953,-0.4688 -0.046,-0.2385 -0.2517,-0.4412 -0.5175,-0.5078 -0.141,-0.034 -0.2225,0 -0.4063,0.207 -0.1262,0.138 -0.3368,0.3046 -0.4687,0.3711 -0.1319,0.066 -0.3298,0.2042 -0.4395,0.3067 -0.1818,0.17 -0.2511,0.1875 -0.7793,0.1875 -0.5225,0 -0.6033,-0.02 -0.832,-0.1954 -0.1395,-0.1065 -0.3632,-0.2129 -0.4961,-0.2382 -0.3591,-0.068 -0.7541,-0.2878 -0.8867,-0.4903 -0.072,-0.1096 -0.1399,-0.4301 -0.1758,-0.83 -0.091,-1.0247 -0.1026,-1.0544 -0.4414,-1.2598 z m 0.2872,3.9316 c 0.714,0.041 1.5047,0.248 1.7753,0.502 0.1168,0.1096 0.2847,0.2216 0.3731,0.248 0.088,0.026 0.2123,0.1263 0.2754,0.2227 0.063,0.096 0.213,0.2797 0.334,0.4082 0.5178,0.5503 0.7199,0.9809 0.8574,1.8359 0.084,0.5232 0.091,0.7828 0.033,1.1895 -0.098,0.7002 -0.2475,1.2 -0.4141,1.3789 -0.076,0.081 -0.2038,0.2744 -0.2832,0.4297 -0.079,0.1553 -0.2325,0.3411 -0.3418,0.4121 -0.1092,0.071 -0.24,0.1879 -0.291,0.2598 -0.051,0.072 -0.2278,0.1975 -0.3906,0.2793 -0.1629,0.082 -0.3923,0.2209 -0.5117,0.3105 -0.3905,0.2925 -1.3382,0.4265 -2.2403,0.3164 -0.6814,-0.083 -0.8817,-0.1365 -0.9824,-0.2578 -0.049,-0.059 -0.2364,-0.1804 -0.416,-0.2715 -0.3939,-0.1996 -1.1474,-0.9051 -1.3047,-1.2207 -0.062,-0.1255 -0.1883,-0.3398 -0.2812,-0.4766 -0.2982,-0.4394 -0.4179,-1.7036 -0.2481,-2.623 0.073,-0.3947 0.2339,-0.8041 0.3477,-0.8828 0.026,-0.019 0.1082,-0.1472 0.1777,-0.2832 0.133,-0.2604 0.8211,-0.9903 0.9336,-0.9903 0.038,0 0.1964,-0.1119 0.3555,-0.248 0.3057,-0.2615 0.747,-0.4077 1.5761,-0.5215 0.1992,-0.027 0.428,-0.031 0.6661,-0.018 z m -0.1661,1.6368 c -0.401,0 -0.5443,0.038 -0.9629,0.2519 -0.6513,0.3337 -0.7891,0.4695 -1.0585,1.0566 -0.3549,0.7734 -0.3644,0.9455 -0.1055,1.6641 0.3046,0.8452 0.6342,1.173 1.3984,1.3906 0.5852,0.1667 0.806,0.1622 1.4571,-0.033 v 0 c 0.288,-0.087 0.494,-0.2121 0.7519,-0.4629 0.195,-0.1897 0.3535,-0.3839 0.3535,-0.4317 0,-0.048 0.085,-0.2428 0.1875,-0.4335 0.1486,-0.2767 0.1827,-0.4383 0.1778,-0.7989 0,-0.2695 -0.044,-0.4982 -0.1016,-0.5664 -0.053,-0.063 -0.1836,-0.295 -0.2891,-0.5156 -0.1451,-0.3046 -0.2727,-0.4534 -0.5312,-0.6191 -0.1871,-0.1199 -0.3632,-0.2168 -0.3926,-0.2168 -0.03,0 -0.1338,-0.065 -0.2324,-0.1426 -0.1391,-0.1093 -0.2882,-0.1406 -0.6524,-0.1406 z"
           transform="matrix(0.26458333,0,0,0.26458333,-830.13361,-256.7687)" />
      </g>
      <path
         id="circle10071"
         style="fill:#ffffff;fill-opacity:1;stroke:none;stroke-width:0.434623;stroke-linecap:round;stroke-linejoin:round;stroke-miterlimit:4;stroke-dasharray:none"
         d="m -587.25283,378.38398 a 7.2029134,7.2029134 0 0 0 -7.14892,7.20318 7.2029134,7.2029134 0 0 0 7.20266,7.20267 7.2029134,7.2029134 0 0 0 3.18844,-0.74414 l -0.008,0.008 3.6437,0.87387 -0.79271,-3.40342 a 7.2029134,7.2029134 0 0 0 1.1715,-3.93724 7.2029134,7.2029134 0 0 0 -7.20318,-7.20317 7.2029134,7.2029134 0 0 0 -0.0537,0 z m 2.5864,3.3595 0.11163,0.0388 c 0.18501,0.0648 0.27218,0.12006 0.42013,0.26561 0.16359,0.16092 0.22104,0.26181 0.26975,0.47334 l 0.0326,0.14005 0.005,3.43183 c 0.005,3.74076 0.0108,3.48948 -0.0739,3.59719 -0.0682,0.0866 -0.11606,0.0953 -0.53071,0.0956 -0.28548,0 -0.38892,-0.005 -0.42582,-0.0201 -0.10839,-0.0453 -0.17839,-0.20044 -0.11989,-0.26614 0.0581,-0.0652 0.11782,-0.0778 0.4067,-0.0858 l 0.2744,-0.008 0.0465,-0.0574 0.046,-0.0574 0.004,-3.23289 c 0.003,-2.20245 -7.9e-4,-3.26554 -0.0114,-3.33674 -0.0391,-0.2608 -0.10573,-0.36563 -0.33538,-0.52764 l -0.11989,-0.0842 -2.57814,-0.004 c -1.70281,-0.003 -2.58754,0 -2.60604,0.0109 -0.0262,0.014 -0.0264,0.0196 -0.006,0.0997 0.0122,0.0466 0.0468,0.13573 0.077,0.19794 l 0.0553,0.11316 0.008,3.39463 c 0.004,1.86698 0.0131,3.40865 0.0202,3.42614 0.007,0.0175 0.0284,0.0396 0.0486,0.0486 0.0263,0.0119 0.43041,0.0169 1.42317,0.0169 0.93162,0 1.41069,0.005 1.46089,0.0161 0.0411,0.009 0.0924,0.0298 0.11421,0.047 0.036,0.0286 0.039,0.0377 0.031,0.10697 -0.0105,0.0887 -0.0445,0.14065 -0.11523,0.17674 -0.0478,0.0243 -0.15286,0.0257 -1.58802,0.0249 -0.84527,0 -1.55497,-0.007 -1.57717,-0.0135 -0.0613,-0.0185 -0.12871,-0.0718 -0.15761,-0.12454 -0.0246,-0.0444 -0.0266,-0.2612 -0.0336,-3.52383 -0.009,-3.80341 -0.002,-3.55692 -0.092,-3.6804 -0.0198,-0.0273 -0.0458,-0.0687 -0.0574,-0.092 -0.0116,-0.0233 -0.045,-0.0587 -0.0739,-0.0786 -0.23446,-0.16089 -0.28383,-0.17827 -0.46457,-0.16586 -0.10753,0.007 -0.12851,0.0138 -0.21911,0.0713 -0.12844,0.0817 -0.24412,0.19296 -0.28422,0.27337 -0.0466,0.094 -0.0729,0.3253 -0.0486,0.43357 0.0152,0.0679 0.0263,0.0873 0.0563,0.0987 0.0206,0.008 0.2101,0.0143 0.42065,0.014 0.4915,0 0.5395,0.0124 0.5395,0.1483 0,0.0959 -0.0544,0.17325 -0.13643,0.19534 -0.0408,0.0111 -0.2381,0.0148 -0.59531,0.0119 l -0.53485,-0.005 -0.045,-0.0429 c -0.072,-0.069 -0.0942,-0.15314 -0.10025,-0.38912 -0.006,-0.22479 0.0304,-0.50125 0.078,-0.59325 0.11416,-0.22071 0.35611,-0.43278 0.61392,-0.53692 l 0.0853,-0.0341 3.1409,-0.004 z m -3.97701,1.21128 c 0.53676,-0.004 1.45255,0.0111 1.53375,0.0325 0.11558,0.031 0.13798,0.0569 0.13798,0.16124 0,0.11154 -0.034,0.18356 -0.10336,0.21806 -0.0494,0.0251 -0.12462,0.027 -1.01544,0.029 -0.52932,0 -0.97578,0 -0.99218,-0.005 v 0 c -0.14265,-0.0335 -0.18655,-0.089 -0.18655,-0.23667 0,-0.14158 0.0204,-0.15647 0.26044,-0.18759 0.0496,-0.007 0.18643,-0.01 0.36536,-0.0119 z m 1.68982,0.96584 c 1.90975,-0.003 2.14373,-1.1e-4 2.19263,0.0212 0.0836,0.0356 0.1077,0.0827 0.0987,0.19531 -0.009,0.1139 -0.0358,0.17449 -0.0879,0.1995 -0.0305,0.0145 -0.49233,0.0198 -2.12649,0.0227 -1.14792,0.003 -2.13324,0 -2.19004,-0.006 v 0 c -0.15994,-0.0159 -0.21504,-0.0759 -0.21704,-0.23874 -10e-4,-0.11954 0.0284,-0.15563 0.15141,-0.18243 0.0222,-0.005 1.00276,-0.01 2.17868,-0.0109 z m -0.003,0.65111 c 2.32033,0 2.17602,-0.005 2.24172,0.0837 0.0414,0.056 0.0522,0.20251 0.0196,0.26561 -0.0544,0.10578 0.0994,0.0988 -2.23139,0.10078 -1.15302,0 -2.11008,0 -2.12649,-0.005 v 0 c -0.18181,-0.0415 -0.22542,-0.0896 -0.21342,-0.23461 0.009,-0.10247 0.0431,-0.15435 0.12454,-0.18706 0.0529,-0.0209 0.27933,-0.0238 2.1854,-0.0238 z m 0.8878,0.69403 0.0594,0.0341 c 0.0874,0.0497 0.13147,0.12202 0.12247,0.20153 -0.008,0.0755 -0.0363,0.11073 -0.12144,0.15192 -0.0615,0.0297 -0.0859,0.0301 -1.56838,0.0294 -1.22052,0 -1.51668,-0.004 -1.56218,-0.0206 v 0 c -0.0803,-0.0286 -0.0967,-0.0466 -0.11317,-0.12403 -0.0219,-0.10264 0.0152,-0.19532 0.0946,-0.23511 0.0582,-0.0296 0.0932,-0.0296 1.57407,-0.0336 z m 0.60462,1.25574 c 0.0992,-0.0138 0.21556,0.0339 0.25786,0.12039 0.015,0.0309 0.0339,0.10345 0.0429,0.16123 0.0135,0.0908 0.0211,0.10787 0.0553,0.12557 0.0217,0.0111 0.0761,0.0445 0.12092,0.0739 0.0447,0.0295 0.0896,0.0537 0.0997,0.0538 0.0102,0 0.041,0.0196 0.0687,0.0439 0.0277,0.0243 0.0685,0.0514 0.0904,0.0594 0.022,0.008 0.0463,0.032 0.0543,0.0527 0.008,0.0206 0.022,0.0377 0.031,0.0377 0.0199,0 0.0115,0.13353 -0.0124,0.20153 -0.009,0.0246 -0.0335,0.0992 -0.0553,0.16587 l -0.0398,0.12144 0.0289,0.0879 c 0.0159,0.0482 0.0338,0.11144 0.0398,0.14004 0.006,0.0286 0.0285,0.0705 0.0501,0.0935 l 0.0393,0.0419 -0.0388,0.0775 c -0.0215,0.0427 -0.0501,0.10242 -0.063,0.13282 -0.029,0.068 -0.0744,0.0924 -0.21756,0.11625 -0.10018,0.0167 -0.11749,0.0251 -0.17518,0.0827 l -0.0641,0.0641 -0.005,0.88522 c -0.005,1.00134 -0.003,0.98163 -0.11007,1.01131 -0.0725,0.0201 -0.22932,0.0206 -0.28112,0 -0.0218,-0.008 -0.0463,-0.0343 -0.0553,-0.0574 -0.0117,-0.0309 -0.0347,-0.0481 -0.0868,-0.0666 -0.13478,-0.0479 -0.22133,-0.0269 -0.30593,0.0739 -0.045,0.0539 -0.0488,0.0549 -0.16433,0.0599 -0.0703,0.003 -0.13871,-0.003 -0.17001,-0.0135 h -5.3e-4 c -0.0368,-0.0132 -0.0605,-0.0363 -0.0816,-0.0785 -0.0286,-0.0571 -0.0306,-0.0945 -0.0346,-0.86509 l -0.005,-0.8051 -0.0439,-0.092 c -0.0242,-0.0506 -0.0439,-0.10158 -0.0439,-0.11316 0,-0.0489 -0.0385,-0.0716 -0.14935,-0.0868 -0.14522,-0.0198 -0.18141,-0.0355 -0.23461,-0.10179 -0.1172,-0.14631 -0.13014,-0.26775 -0.0351,-0.33435 0.0202,-0.014 0.0372,-0.0593 0.0558,-0.14933 0.0229,-0.11015 0.0236,-0.14012 0.008,-0.20103 -0.0103,-0.0393 -0.0319,-0.0879 -0.0481,-0.10853 -0.0478,-0.0605 -0.0625,-0.10748 -0.0615,-0.19069 0.002,-0.10472 0.0179,-0.12885 0.11369,-0.17415 0.0447,-0.0212 0.0849,-0.0447 0.0899,-0.0527 0.005,-0.008 0.0559,-0.0386 0.11318,-0.0687 0.0798,-0.0419 0.11908,-0.0752 0.16898,-0.14158 0.0358,-0.0476 0.0694,-0.11173 0.0754,-0.14264 0.012,-0.0643 0.0562,-0.15711 0.0853,-0.1793 0.0478,-0.0365 0.15572,-0.0638 0.21342,-0.0548 0.0598,0.0101 0.1571,0.058 0.1571,0.078 0,0.0225 0.13272,0.076 0.18862,0.076 0.054,0 0.16622,-0.0463 0.18552,-0.0765 0.005,-0.007 0.0311,-0.0302 0.0589,-0.0506 0.0258,-0.019 0.0568,-0.0296 0.0899,-0.0346 z m -0.15865,0.69503 c -0.007,-0.003 -0.0143,0.003 -0.0264,0.0156 -0.0253,0.0257 -0.1139,0.0309 -0.32505,0.0196 -0.079,-0.004 -0.13181,0.0172 -0.13281,0.0548 -0.002,0.0537 -0.0532,0.12893 -0.1111,0.16121 -0.0565,0.0315 -0.0593,0.037 -0.0563,0.0982 0.002,0.0356 0.006,0.12506 0.009,0.19896 0.003,0.0737 0.007,0.14555 0.008,0.15915 10e-4,0.0135 0.0248,0.0519 0.0527,0.0853 0.0279,0.0334 0.0648,0.0901 0.0822,0.12611 0.0435,0.0899 0.0814,0.10376 0.27027,0.10075 0.0864,0 0.17349,0.004 0.19379,0.0119 0.0335,0.0132 0.0454,0.005 0.13022,-0.0848 0.0513,-0.0548 0.1152,-0.12149 0.1416,-0.1483 0.0464,-0.047 0.048,-0.0528 0.046,-0.16433 -10e-4,-0.0635 0.002,-0.14552 0.0103,-0.18243 0.0336,-0.17399 0.0364,-0.16068 -0.0413,-0.2005 -0.0632,-0.0323 -0.12896,-0.0976 -0.22066,-0.2196 -0.0146,-0.0193 -0.0235,-0.0295 -0.0305,-0.0315 z m -0.17673,1.59835 c -0.0346,0 -0.0674,0.01 -0.0744,0.03 -0.005,0.0153 -0.022,0.0397 -0.0382,0.0543 -0.028,0.0249 -0.03,0.0467 -0.03,0.33744 0,0.37503 -0.002,0.37103 0.16226,0.37103 0.073,0 0.10824,0.006 0.12144,0.0222 0.0102,0.0122 0.0245,0.0222 0.0315,0.0222 0.007,0 0.0134,-0.16399 0.0134,-0.36483 v -0.36537 l -0.0444,-0.0227 c -0.0244,-0.0127 -0.0515,-0.0364 -0.0605,-0.0527 -0.0111,-0.0209 -0.0465,-0.0311 -0.0811,-0.0315 z" />
    </g>
  </g>
</svg>
