<?xml version="1.0" encoding="UTF-8" standalone="no"?>
<svg
   xmlns:dc="http://purl.org/dc/elements/1.1/"
   xmlns:cc="http://creativecommons.org/ns#"
   xmlns:rdf="http://www.w3.org/1999/02/22-rdf-syntax-ns#"
   xmlns:svg="http://www.w3.org/2000/svg"
   xmlns="http://www.w3.org/2000/svg"
   xmlns:sodipodi="http://sodipodi.sourceforge.net/DTD/sodipodi-0.dtd"
   xmlns:inkscape="http://www.inkscape.org/namespaces/inkscape"
   width="200"
   height="200"
   viewBox="0 0 52.916665 52.916668"
   version="1.1"
   id="svg11267"
   inkscape:version="1.0.2-2 (e86c870879, 2021-01-15)"
   sodipodi:docname="atendimento-icon.svg">
  <defs
     id="defs11261" />
  <sodipodi:namedview
     id="base"
     pagecolor="#ffffff"
     bordercolor="#666666"
     borderopacity="1.0"
     inkscape:pageopacity="0.0"
     inkscape:pageshadow="2"
     inkscape:zoom="1.979899"
     inkscape:cx="192.14592"
     inkscape:cy="65.234715"
     inkscape:document-units="px"
     inkscape:current-layer="layer1"
     inkscape:document-rotation="0"
     showgrid="false"
     units="px"
     fit-margin-top="0"
     fit-margin-left="0"
     fit-margin-right="0"
     fit-margin-bottom="0"
     inkscape:window-width="1600"
     inkscape:window-height="837"
     inkscape:window-x="-8"
     inkscape:window-y="-8"
     inkscape:window-maximized="1" />
  <metadata
     id="metadata11264">
    <rdf:RDF>
      <cc:Work
         rdf:about="">
        <dc:format>image/svg+xml</dc:format>
        <dc:type
           rdf:resource="http://purl.org/dc/dcmitype/StillImage" />
        <dc:title></dc:title>
      </cc:Work>
    </rdf:RDF>
  </metadata>
  <g
     inkscape:label="Layer 1"
     inkscape:groupmode="layer"
     id="layer1"
     transform="translate(-35.897881,-89.759291)">
    <g
       id="layer2"
       inkscape:label="LOGO 2"
       style="display:inline"
       transform="matrix(1.4834319,0,0,1.4834319,4.4106401,86.547388)">
      <path
         d="M 32.667999,15.193478 H 31.59144 c -2.3788,0 -4.306679,1.931236 -4.306679,4.314656 v 4.290383 c 0,2.382755 1.927879,4.314656 4.306679,4.314656 h 1.076559 c 1.189012,0 2.153229,-0.966289 2.153229,-2.157351 v -8.605016 c 0,-1.191705 -0.964217,-2.157328 -2.153229,-2.157328 z m 13.996376,0 h -1.076671 c -1.189011,0 -2.153339,0.965623 -2.153339,2.157328 v 8.605016 c 0,1.191062 0.964328,2.157351 2.153339,2.157351 h 1.076671 c 2.378688,0 4.306457,-1.931901 4.306457,-4.314656 v -4.290383 c 0,-2.382743 -1.927769,-4.314656 -4.306457,-4.314656 z"
         id="path9425"
         style="fill:#ffffff;fill-opacity:1;stroke-width:0.06729"
         sodipodi:nodetypes="ssssssssssssssssss"
         inkscape:export-xdpi="150"
         inkscape:export-ydpi="150" />
      <g
         id="g9433"
         style="opacity:0.535484;fill:#ffffff"
         transform="matrix(0.97516029,0,0,0.97516029,-2595.7306,-232.42339)"
         inkscape:export-xdpi="150"
         inkscape:export-ydpi="150">
        <path
           d="m 2701.9743,240.61281 c -9.8738,0 -17.3497,8.22044 -17.665,17.665 v 2.7737 c 0,0.61 0.494,1.10406 1.104,1.10406 h 1.1041 c 0.61,0 1.104,-0.49406 1.104,-1.10406 v -2.7737 c 0,-7.91267 6.4402,-14.33903 14.3529,-14.34042 7.9127,0.001 14.3529,6.42775 14.3529,14.34042 v 7.72844 c 0,0.61 0.494,1.10406 1.104,1.10406 h 1.1041 c 0.61,0 1.1041,-0.49406 1.1041,-1.10406 v -7.72844 c -0.3154,-9.44456 -7.7913,-17.665 -17.6651,-17.665 z"
           id="path9427"
           style="fill:#ffffff;fill-opacity:1;stroke-width:0.069004"
           sodipodi:nodetypes="scssssscssssscs" />
        <path
           style="fill:#ffffff;fill-opacity:1;stroke:none;stroke-width:0.495473px;stroke-linecap:butt;stroke-linejoin:miter;stroke-opacity:1"
           d="m 2719.6083,262.33443 -0.062,8.7819 c 0.103,2.49385 -3.0738,5.87079 -7.0344,6.07106 h -8.709 v -3.19697 h 8.0358 c 2.9853,0.0362 4.0743,-2.04981 4.2404,-3.48539 l 0.2266,-5.46493 z"
           id="path9429"
           sodipodi:nodetypes="ccccccccc" />
        <rect
           style="opacity:0.999;fill:#ffffff;fill-opacity:1;stroke:none;stroke-width:0.385206"
           id="rect9431"
           width="9.6347055"
           height="5.9735169"
           x="2697.2739"
           y="271.21973"
           ry="2.9867585" />
      </g>
    </g>
  </g>
</svg>
