<?xml version="1.0" encoding="UTF-8" standalone="no"?>
<svg
   xmlns:dc="http://purl.org/dc/elements/1.1/"
   xmlns:cc="http://creativecommons.org/ns#"
   xmlns:rdf="http://www.w3.org/1999/02/22-rdf-syntax-ns#"
   xmlns:svg="http://www.w3.org/2000/svg"
   xmlns="http://www.w3.org/2000/svg"
   xmlns:xlink="http://www.w3.org/1999/xlink"
   xmlns:sodipodi="http://sodipodi.sourceforge.net/DTD/sodipodi-0.dtd"
   xmlns:inkscape="http://www.inkscape.org/namespaces/inkscape"
   width="78.631882mm"
   height="24.889999mm"
   viewBox="0 0 78.631882 24.89"
   version="1.1"
   id="svg7308"
   inkscape:version="1.0.2-2 (e86c870879, 2021-01-15)"
   sodipodi:docname="logo_satc_uni_white.svg">
  <defs
     id="defs7302">
    <clipPath
       id="clipPath86-4-4-1-5-2-3-88-1">
      <path
         d="M 0,272.487 H 510.417 V 0 H 0 Z"
         id="path1231-2-6-7-0" />
    </clipPath>
    <linearGradient
       x1="0"
       y1="0"
       x2="1"
       y2="0"
       gradientUnits="userSpaceOnUse"
       gradientTransform="matrix(-5.39e-5,-1232.0791,-1232.0791,5.39e-5,575.78906,917.7832)"
       spreadMethod="pad"
       id="linearGradient19407">
      <stop
         style="stop-opacity:1;stop-color:#81b237"
         offset="0"
         id="stop19401" />
      <stop
         style="stop-opacity:1;stop-color:#9cd91e"
         offset="1"
         id="stop19405" />
    </linearGradient>
    <linearGradient
       x1="0"
       y1="0"
       x2="1"
       y2="0"
       gradientUnits="userSpaceOnUse"
       gradientTransform="matrix(-5.39e-5,-1232.0791,-1232.0791,5.39e-5,575.78906,917.7832)"
       spreadMethod="pad"
       id="linearGradient58122">
      <stop
         style="stop-opacity:0.06504065;stop-color:#b9ff4f"
         offset="0"
         id="stop58118" />
      <stop
         style="stop-opacity:0;stop-color:#9cd91e"
         offset="1"
         id="stop58120" />
    </linearGradient>
    <mask
       maskUnits="userSpaceOnUse"
       id="mask7128-5-0">
      <path
         id="path7130-4-6"
         style="color:#000000;font-style:normal;font-variant:normal;font-weight:normal;font-stretch:normal;font-size:medium;line-height:normal;font-family:sans-serif;font-variant-ligatures:normal;font-variant-position:normal;font-variant-caps:normal;font-variant-numeric:normal;font-variant-alternates:normal;font-variant-east-asian:normal;font-feature-settings:normal;font-variation-settings:normal;text-indent:0;text-align:start;text-decoration:none;text-decoration-line:none;text-decoration-style:solid;text-decoration-color:#000000;letter-spacing:normal;word-spacing:normal;text-transform:none;writing-mode:lr-tb;direction:ltr;text-orientation:mixed;dominant-baseline:auto;baseline-shift:baseline;text-anchor:start;white-space:normal;shape-padding:0;shape-margin:0;inline-size:0;clip-rule:nonzero;display:inline;overflow:visible;visibility:visible;isolation:auto;mix-blend-mode:normal;color-interpolation:sRGB;color-interpolation-filters:linearRGB;solid-color:#000000;solid-opacity:1;vector-effect:none;fill:#f8b21b;fill-opacity:1;fill-rule:nonzero;stroke:none;stroke-width:1;stroke-linecap:round;stroke-linejoin:round;stroke-miterlimit:4;stroke-dasharray:none;stroke-dashoffset:0;stroke-opacity:1;paint-order:stroke fill markers;color-rendering:auto;image-rendering:auto;shape-rendering:auto;text-rendering:auto;enable-background:accumulate;stop-color:#000000"
         d="m 100.94873,821.20455 0.52276,-0.18965 -0.006,-0.0175 3.09624,-1.12368 c 0.22953,-0.0832 0.39716,-0.28259 0.43964,-0.523 l 1.25546,-7.08137 a 0.68256825,0.68256825 0 0 0 0.004,-0.0297 c 0.004,-0.023 0.004,-0.0462 0.005,-0.0694 a 0.68256825,0.68256825 0 0 0 3.4e-4,-0.008 0.68256825,0.68256825 0 0 0 -0.11457,-0.38979 l -1.66989,-2.51973 -0.77422,1.31492 c -0.0629,0.10584 -0.15335,0.19292 -0.26138,0.25177 -0.10153,0.0559 -0.21605,0.0845 -0.33197,0.0844 l -1.20947,-0.0103 0.95813,1.4457 a 0.38483966,0.38483966 0 0 1 0.0585,0.27962 l -0.70996,4.00449 a 0.38483966,0.38483966 0 0 1 -0.24807,0.29505 l -2.284549,0.82884 -0.308303,1.65941 c -0.02102,0.11402 -0.01173,0.2317 0.02549,0.34145 l -5.21e-4,-9e-5 c 0.03912,0.11673 0.108931,0.221 0.202158,0.3014 z" />
    </mask>
    <linearGradient
       inkscape:collect="always"
       id="linearGradient8829">
      <stop
         style="stop-color:#d9273c;stop-opacity:1"
         offset="0"
         id="stop8824" />
      <stop
         style="stop-color:#fe466b;stop-opacity:1"
         offset="1"
         id="stop8827" />
    </linearGradient>
    <linearGradient
       inkscape:collect="always"
       id="linearGradient19423">
      <stop
         style="stop-color:#1b7dcd;stop-opacity:1"
         offset="0"
         id="stop19419" />
      <stop
         style="stop-color:#26a3df;stop-opacity:1"
         offset="1"
         id="stop19421" />
    </linearGradient>
    <linearGradient
       inkscape:collect="always"
       id="linearGradient7136">
      <stop
         style="stop-color:#ffcc1e;stop-opacity:1"
         offset="0"
         id="stop7132" />
      <stop
         style="stop-color:#f8960a;stop-opacity:1"
         offset="1"
         id="stop7134" />
    </linearGradient>
    <mask
       maskUnits="userSpaceOnUse"
       id="mask7128-5-0-0">
      <path
         id="path7130-4-6-9"
         style="color:#000000;font-style:normal;font-variant:normal;font-weight:normal;font-stretch:normal;font-size:medium;line-height:normal;font-family:sans-serif;font-variant-ligatures:normal;font-variant-position:normal;font-variant-caps:normal;font-variant-numeric:normal;font-variant-alternates:normal;font-variant-east-asian:normal;font-feature-settings:normal;font-variation-settings:normal;text-indent:0;text-align:start;text-decoration:none;text-decoration-line:none;text-decoration-style:solid;text-decoration-color:#000000;letter-spacing:normal;word-spacing:normal;text-transform:none;writing-mode:lr-tb;direction:ltr;text-orientation:mixed;dominant-baseline:auto;baseline-shift:baseline;text-anchor:start;white-space:normal;shape-padding:0;shape-margin:0;inline-size:0;clip-rule:nonzero;display:inline;overflow:visible;visibility:visible;isolation:auto;mix-blend-mode:normal;color-interpolation:sRGB;color-interpolation-filters:linearRGB;solid-color:#000000;solid-opacity:1;vector-effect:none;fill:#f8b21b;fill-opacity:1;fill-rule:nonzero;stroke:none;stroke-width:1;stroke-linecap:round;stroke-linejoin:round;stroke-miterlimit:4;stroke-dasharray:none;stroke-dashoffset:0;stroke-opacity:1;paint-order:stroke fill markers;color-rendering:auto;image-rendering:auto;shape-rendering:auto;text-rendering:auto;enable-background:accumulate;stop-color:#000000"
         d="m 100.94873,821.20455 0.52276,-0.18965 -0.006,-0.0175 3.09624,-1.12368 c 0.22953,-0.0832 0.39716,-0.28259 0.43964,-0.523 l 1.25546,-7.08137 a 0.68256825,0.68256825 0 0 0 0.004,-0.0297 c 0.004,-0.023 0.004,-0.0462 0.005,-0.0694 a 0.68256825,0.68256825 0 0 0 3.4e-4,-0.008 0.68256825,0.68256825 0 0 0 -0.11457,-0.38979 l -1.66989,-2.51973 -0.77422,1.31492 c -0.0629,0.10584 -0.15335,0.19292 -0.26138,0.25177 -0.10153,0.0559 -0.21605,0.0845 -0.33197,0.0844 l -1.20947,-0.0103 0.95813,1.4457 a 0.38483966,0.38483966 0 0 1 0.0585,0.27962 l -0.70996,4.00449 a 0.38483966,0.38483966 0 0 1 -0.24807,0.29505 l -2.284549,0.82884 -0.308303,1.65941 c -0.02102,0.11402 -0.01173,0.2317 0.02549,0.34145 l -5.21e-4,-9e-5 c 0.03912,0.11673 0.108931,0.221 0.202158,0.3014 z" />
    </mask>
    <mask
       maskUnits="userSpaceOnUse"
       id="mask7128-5-2-0-7-5-1-8-6">
      <path
         id="path7130-4-4-5-8-5-1-3-8"
         style="color:#000000;font-style:normal;font-variant:normal;font-weight:normal;font-stretch:normal;font-size:medium;line-height:normal;font-family:sans-serif;font-variant-ligatures:normal;font-variant-position:normal;font-variant-caps:normal;font-variant-numeric:normal;font-variant-alternates:normal;font-variant-east-asian:normal;font-feature-settings:normal;font-variation-settings:normal;text-indent:0;text-align:start;text-decoration:none;text-decoration-line:none;text-decoration-style:solid;text-decoration-color:#000000;letter-spacing:normal;word-spacing:normal;text-transform:none;writing-mode:lr-tb;direction:ltr;text-orientation:mixed;dominant-baseline:auto;baseline-shift:baseline;text-anchor:start;white-space:normal;shape-padding:0;shape-margin:0;inline-size:0;clip-rule:nonzero;display:inline;overflow:visible;visibility:visible;isolation:auto;mix-blend-mode:normal;color-interpolation:sRGB;color-interpolation-filters:linearRGB;solid-color:#000000;solid-opacity:1;vector-effect:none;fill:#f8b21b;fill-opacity:1;fill-rule:nonzero;stroke:none;stroke-width:1;stroke-linecap:round;stroke-linejoin:round;stroke-miterlimit:4;stroke-dasharray:none;stroke-dashoffset:0;stroke-opacity:1;paint-order:stroke fill markers;color-rendering:auto;image-rendering:auto;shape-rendering:auto;text-rendering:auto;enable-background:accumulate;stop-color:#000000"
         d="m 100.94873,821.20455 0.52276,-0.18965 -0.006,-0.0175 3.09624,-1.12368 c 0.22953,-0.0832 0.39716,-0.28259 0.43964,-0.523 l 1.25546,-7.08137 a 0.68256825,0.68256825 0 0 0 0.004,-0.0297 c 0.004,-0.023 0.004,-0.0462 0.005,-0.0694 a 0.68256825,0.68256825 0 0 0 3.4e-4,-0.008 0.68256825,0.68256825 0 0 0 -0.11457,-0.38979 l -1.66989,-2.51973 -0.77422,1.31492 c -0.0629,0.10584 -0.15335,0.19292 -0.26138,0.25177 -0.10153,0.0559 -0.21605,0.0845 -0.33197,0.0844 l -1.20947,-0.0103 0.95813,1.4457 a 0.38483966,0.38483966 0 0 1 0.0585,0.27962 l -0.70996,4.00449 a 0.38483966,0.38483966 0 0 1 -0.24807,0.29505 l -2.284549,0.82884 -0.308303,1.65941 c -0.02102,0.11402 -0.01173,0.2317 0.02549,0.34145 l -5.21e-4,-9e-5 c 0.03912,0.11673 0.108931,0.221 0.202158,0.3014 z" />
    </mask>
    <linearGradient
       inkscape:collect="always"
       xlink:href="#linearGradient19407"
       id="linearGradient5400"
       x1="-231.70477"
       y1="-35.732628"
       x2="-225.62718"
       y2="-30.629951"
       gradientUnits="userSpaceOnUse" />
    <filter
       inkscape:collect="always"
       style="color-interpolation-filters:sRGB"
       id="filter10971-2-4-1-2-2-4-9-8"
       x="-0.063741133"
       width="1.1274823"
       y="-0.091089524"
       height="1.1821791">
      <feGaussianBlur
         inkscape:collect="always"
         stdDeviation="0.086956719"
         id="feGaussianBlur10973-8-1-3-9-5-4-4-5" />
    </filter>
    <linearGradient
       inkscape:collect="always"
       xlink:href="#linearGradient7136"
       id="linearGradient5392"
       x1="-234.14879"
       y1="-35.809376"
       x2="-238.72615"
       y2="-26.938063"
       gradientUnits="userSpaceOnUse" />
    <filter
       inkscape:collect="always"
       style="color-interpolation-filters:sRGB"
       id="filter10971-2-4-1-2-2-4-9"
       x="-0.063741133"
       width="1.1274823"
       y="-0.091089524"
       height="1.1821791">
      <feGaussianBlur
         inkscape:collect="always"
         stdDeviation="0.086956719"
         id="feGaussianBlur10973-8-1-3-9-5-4-4" />
    </filter>
    <linearGradient
       inkscape:collect="always"
       xlink:href="#linearGradient8829"
       id="linearGradient5416"
       x1="-234.53854"
       y1="-21.596317"
       x2="-239.32777"
       y2="-27.73843"
       gradientUnits="userSpaceOnUse" />
    <filter
       inkscape:collect="always"
       style="color-interpolation-filters:sRGB"
       id="filter10971-2-4-1-2-2-4-9-7"
       x="-0.063741133"
       width="1.1274823"
       y="-0.091089524"
       height="1.1821791">
      <feGaussianBlur
         inkscape:collect="always"
         stdDeviation="0.086956719"
         id="feGaussianBlur10973-8-1-3-9-5-4-4-1" />
    </filter>
    <linearGradient
       inkscape:collect="always"
       xlink:href="#linearGradient19423"
       id="linearGradient5408"
       x1="-225.29601"
       y1="-29.647209"
       x2="-229.31245"
       y2="-20.575781"
       gradientUnits="userSpaceOnUse" />
  </defs>
  <sodipodi:namedview
     id="base"
     pagecolor="#ffffff"
     bordercolor="#666666"
     borderopacity="1.0"
     inkscape:pageopacity="0.0"
     inkscape:pageshadow="2"
     inkscape:zoom="1.979899"
     inkscape:cx="166.51246"
     inkscape:cy="91.692624"
     inkscape:document-units="mm"
     inkscape:current-layer="g5821"
     inkscape:document-rotation="0"
     showgrid="false"
     fit-margin-top="0"
     fit-margin-left="0"
     fit-margin-right="0"
     fit-margin-bottom="0"
     inkscape:window-width="1600"
     inkscape:window-height="837"
     inkscape:window-x="1358"
     inkscape:window-y="-8"
     inkscape:window-maximized="1" />
  <metadata
     id="metadata7305">
    <rdf:RDF>
      <cc:Work
         rdf:about="">
        <dc:format>image/svg+xml</dc:format>
        <dc:type
           rdf:resource="http://purl.org/dc/dcmitype/StillImage" />
        <dc:title></dc:title>
      </cc:Work>
    </rdf:RDF>
  </metadata>
  <g
     inkscape:label="Layer 1"
     inkscape:groupmode="layer"
     id="layer1"
     transform="translate(-74.227347,-207.93246)">
    <g
       id="g59726"
       transform="translate(-153.72381,180.64408)">
      <g
         id="g5821"
         transform="matrix(1.0891685,0,0,1.0891685,472.8701,43.891104)">
        <g
           id="g5765"
           transform="translate(2.1166667,34.087609)"
           style="fill:#ffffff">
          <g
             aria-label="Acesso"
             id="text5547"
             style="font-style:normal;font-variant:normal;font-weight:normal;font-stretch:normal;font-size:9.51604px;line-height:1.25;font-family:Raleway;-inkscape-font-specification:'Raleway, Normal';font-variant-ligatures:normal;font-variant-caps:normal;font-variant-numeric:normal;font-variant-east-asian:normal;fill:#ffffff;fill-opacity:1;stroke:none;stroke-width:0.237902">
            <path
               d="m -197.78249,-44.897612 h 0.56145 l 2.80723,6.756388 h -0.70419 l -0.87547,-2.112561 h -3.03562 l -0.86596,2.112561 h -0.7137 z m 1.63676,4.120445 -1.36079,-3.34013 -1.37983,3.34013 z"
               style="font-style:normal;font-variant:normal;font-weight:normal;font-stretch:normal;font-size:9.51604px;font-family:Raleway;-inkscape-font-specification:'Raleway, Normal';font-variant-ligatures:normal;font-variant-caps:normal;font-variant-numeric:normal;font-variant-east-asian:normal;fill:#ffffff;fill-opacity:1;stroke-width:0.237902"
               id="path1139" />
            <path
               d="m -194.05223,-40.634426 q 0,-0.523383 0.1808,-0.989668 0.18081,-0.466286 0.50435,-0.808864 0.33306,-0.352093 0.78983,-0.55193 0.45677,-0.199837 1.0087,-0.199837 0.70419,0 1.22757,0.323545 0.52339,0.31403 0.78983,0.856444 l -0.62805,0.199837 q -0.20936,-0.380642 -0.59,-0.589995 -0.37112,-0.218869 -0.82789,-0.218869 -0.38065,0 -0.71371,0.152257 -0.32354,0.152257 -0.57096,0.418706 -0.2379,0.256933 -0.38064,0.618542 -0.13323,0.36161 -0.13323,0.789832 0,0.418705 0.14274,0.789831 0.14275,0.371126 0.39016,0.647091 0.24742,0.266449 0.57096,0.428221 0.33307,0.152257 0.70419,0.152257 0.2379,0 0.46629,-0.06661 0.2379,-0.06661 0.43774,-0.180805 0.19983,-0.123708 0.34257,-0.275965 0.14274,-0.152257 0.19984,-0.323545 l 0.63757,0.19032 q -0.10467,0.266449 -0.30451,0.494834 -0.19984,0.218869 -0.4758,0.390158 -0.26645,0.161773 -0.59951,0.247417 -0.32355,0.09516 -0.67564,0.09516 -0.54241,0 -0.99918,-0.199836 -0.45677,-0.209353 -0.78984,-0.561447 -0.33306,-0.361609 -0.52338,-0.827895 -0.1808,-0.466286 -0.1808,-0.999184 z"
               style="font-style:normal;font-variant:normal;font-weight:normal;font-stretch:normal;font-size:9.51604px;font-family:Raleway;-inkscape-font-specification:'Raleway, Normal';font-variant-ligatures:normal;font-variant-caps:normal;font-variant-numeric:normal;font-variant-east-asian:normal;fill:#ffffff;fill-opacity:1;stroke-width:0.237902"
               id="path1141" />
            <path
               d="m -186.39183,-38.046064 q -0.54242,0 -0.99919,-0.199836 -0.44725,-0.209353 -0.78031,-0.561447 -0.33306,-0.361609 -0.52338,-0.827895 -0.18081,-0.466286 -0.18081,-0.999184 0,-0.523383 0.18081,-0.980152 0.19032,-0.466286 0.51386,-0.808864 0.33306,-0.352093 0.78983,-0.55193 0.45677,-0.209353 0.98967,-0.209353 0.54242,0 0.98967,0.209353 0.45677,0.199837 0.78031,0.55193 0.32355,0.352094 0.50435,0.808864 0.18081,0.456769 0.18081,0.970636 0,0.07613 0,0.152256 0,0.07613 -0.01,0.104677 h -4.24415 q 0.0285,0.399673 0.1808,0.742251 0.16178,0.333061 0.40919,0.580478 0.24742,0.247417 0.56145,0.390158 0.32355,0.133224 0.68516,0.133224 0.2379,0 0.4758,-0.06661 0.2379,-0.06661 0.43773,-0.180805 0.19984,-0.114192 0.36161,-0.275965 0.16178,-0.171288 0.24742,-0.371125 l 0.56145,0.152256 q -0.11419,0.275965 -0.32355,0.50435 -0.20935,0.218869 -0.48532,0.390158 -0.27596,0.161773 -0.60902,0.247417 -0.33306,0.09516 -0.69467,0.09516 z m 1.82708,-2.835779 q -0.0285,-0.399674 -0.19032,-0.723219 -0.15226,-0.333062 -0.39968,-0.570963 -0.2379,-0.237901 -0.56144,-0.371125 -0.31403,-0.133225 -0.67564,-0.133225 -0.36161,0 -0.68516,0.133225 -0.32354,0.133224 -0.57096,0.371125 -0.2379,0.237901 -0.39016,0.570963 -0.14274,0.333061 -0.17129,0.723219 z"
               style="font-style:normal;font-variant:normal;font-weight:normal;font-stretch:normal;font-size:9.51604px;font-family:Raleway;-inkscape-font-specification:'Raleway, Normal';font-variant-ligatures:normal;font-variant-caps:normal;font-variant-numeric:normal;font-variant-east-asian:normal;fill:#ffffff;fill-opacity:1;stroke-width:0.237902"
               id="path1143" />
            <path
               d="m -181.30075,-38.046064 q -0.58048,0 -1.13241,-0.19032 -0.55193,-0.190321 -0.95161,-0.551931 l 0.295,-0.437737 q 0.41871,0.342577 0.84693,0.513866 0.43774,0.171288 0.93257,0.171288 0.59951,0 0.95161,-0.237901 0.3616,-0.247417 0.3616,-0.69467 0,-0.209353 -0.0952,-0.342578 -0.0952,-0.142741 -0.28548,-0.247417 -0.1808,-0.104676 -0.46628,-0.180805 -0.27597,-0.08564 -0.64709,-0.171288 -0.42823,-0.104677 -0.74225,-0.209353 -0.31403,-0.104677 -0.52339,-0.237901 -0.19983,-0.133225 -0.30451,-0.323546 -0.0952,-0.199836 -0.0952,-0.494834 0,-0.371125 0.14274,-0.656606 0.15226,-0.285482 0.39967,-0.466286 0.25694,-0.190321 0.59,-0.285482 0.34258,-0.09516 0.72322,-0.09516 0.57096,0 1.03725,0.190321 0.46628,0.180805 0.75176,0.485318 l -0.31403,0.380641 q -0.27596,-0.285481 -0.67564,-0.428221 -0.39015,-0.142741 -0.81837,-0.142741 -0.25694,0 -0.47581,0.0571 -0.21887,0.04758 -0.39015,0.161773 -0.16178,0.114192 -0.25694,0.294997 -0.0952,0.171289 -0.0952,0.40919 0,0.199837 0.0666,0.323545 0.0666,0.123709 0.21887,0.218869 0.15226,0.08564 0.38065,0.161773 0.2379,0.06661 0.57096,0.14274 0.4758,0.114193 0.83741,0.228385 0.36161,0.114193 0.59951,0.266449 0.24742,0.152257 0.37113,0.371126 0.1237,0.218869 0.1237,0.532898 0,0.685155 -0.52338,1.084829 -0.52338,0.399673 -1.40837,0.399673 z"
               style="font-style:normal;font-variant:normal;font-weight:normal;font-stretch:normal;font-size:9.51604px;font-family:Raleway;-inkscape-font-specification:'Raleway, Normal';font-variant-ligatures:normal;font-variant-caps:normal;font-variant-numeric:normal;font-variant-east-asian:normal;fill:#ffffff;fill-opacity:1;stroke-width:0.237902"
               id="path1145" />
            <path
               d="m -176.66644,-38.046064 q -0.58048,0 -1.13241,-0.19032 -0.55193,-0.190321 -0.95161,-0.551931 l 0.295,-0.437737 q 0.41871,0.342577 0.84693,0.513866 0.43774,0.171288 0.93257,0.171288 0.59951,0 0.9516,-0.237901 0.36161,-0.247417 0.36161,-0.69467 0,-0.209353 -0.0952,-0.342578 -0.0952,-0.142741 -0.28548,-0.247417 -0.1808,-0.104676 -0.46628,-0.180805 -0.27597,-0.08564 -0.6471,-0.171288 -0.42822,-0.104677 -0.74225,-0.209353 -0.31403,-0.104677 -0.52338,-0.237901 -0.19984,-0.133225 -0.30451,-0.323546 -0.0952,-0.199836 -0.0952,-0.494834 0,-0.371125 0.14274,-0.656606 0.15225,-0.285482 0.39967,-0.466286 0.25693,-0.190321 0.59,-0.285482 0.34257,-0.09516 0.72322,-0.09516 0.57096,0 1.03724,0.190321 0.46629,0.180805 0.75177,0.485318 l -0.31403,0.380641 q -0.27596,-0.285481 -0.67564,-0.428221 -0.39015,-0.142741 -0.81838,-0.142741 -0.25693,0 -0.4758,0.0571 -0.21887,0.04758 -0.39016,0.161773 -0.16177,0.114192 -0.25693,0.294997 -0.0952,0.171289 -0.0952,0.40919 0,0.199837 0.0666,0.323545 0.0666,0.123709 0.21887,0.218869 0.15226,0.08564 0.38064,0.161773 0.2379,0.06661 0.57097,0.14274 0.4758,0.114193 0.83741,0.228385 0.36161,0.114193 0.59951,0.266449 0.24741,0.152257 0.37112,0.371126 0.12371,0.218869 0.12371,0.532898 0,0.685155 -0.52338,1.084829 -0.52338,0.399673 -1.40837,0.399673 z"
               style="font-style:normal;font-variant:normal;font-weight:normal;font-stretch:normal;font-size:9.51604px;font-family:Raleway;-inkscape-font-specification:'Raleway, Normal';font-variant-ligatures:normal;font-variant-caps:normal;font-variant-numeric:normal;font-variant-east-asian:normal;fill:#ffffff;fill-opacity:1;stroke-width:0.237902"
               id="path1147" />
            <path
               d="m -171.56585,-38.046064 q -0.54242,0 -0.98967,-0.199836 -0.44725,-0.209353 -0.78032,-0.561447 -0.32354,-0.352093 -0.50435,-0.818379 -0.1808,-0.466286 -0.1808,-0.980152 0,-0.523382 0.1808,-0.989668 0.19032,-0.466286 0.51387,-0.81838 0.33306,-0.352093 0.78032,-0.561446 0.44725,-0.209353 0.98015,-0.209353 0.5329,0 0.98015,0.209353 0.45677,0.209353 0.78031,0.561446 0.33307,0.352094 0.51387,0.81838 0.19032,0.466286 0.19032,0.989668 0,0.513866 -0.1808,0.980152 -0.18081,0.466286 -0.51387,0.818379 -0.32354,0.352094 -0.78031,0.561447 -0.44726,0.199836 -0.98967,0.199836 z m -1.79853,-2.550298 q 0,0.418706 0.14274,0.780315 0.14274,0.352094 0.38064,0.628059 0.24741,0.266449 0.57096,0.418705 0.33306,0.152257 0.70419,0.152257 0.37112,0 0.69467,-0.152257 0.33306,-0.161772 0.58048,-0.428221 0.24741,-0.275965 0.39015,-0.637575 0.14274,-0.36161 0.14274,-0.780315 0,-0.40919 -0.14274,-0.770799 -0.14274,-0.371126 -0.39015,-0.637575 -0.24742,-0.275965 -0.58048,-0.428222 -0.32355,-0.161773 -0.69467,-0.161773 -0.37113,0 -0.69467,0.161773 -0.32355,0.152257 -0.57097,0.428222 -0.24741,0.275965 -0.39015,0.647091 -0.14274,0.361609 -0.14274,0.780315 z"
               style="font-style:normal;font-variant:normal;font-weight:normal;font-stretch:normal;font-size:9.51604px;font-family:Raleway;-inkscape-font-specification:'Raleway, Normal';font-variant-ligatures:normal;font-variant-caps:normal;font-variant-numeric:normal;font-variant-east-asian:normal;fill:#ffffff;fill-opacity:1;stroke-width:0.237902"
               id="path1149" />
          </g>
          <g
             aria-label="Unificado"
             id="text5551"
             style="font-style:normal;font-variant:normal;font-weight:900;font-stretch:normal;font-size:9.51604px;line-height:1.25;font-family:Raleway;-inkscape-font-specification:'Raleway, Heavy';font-variant-ligatures:normal;font-variant-caps:normal;font-variant-numeric:normal;font-variant-east-asian:normal;fill:#ffffff;fill-opacity:1;stroke:none;stroke-width:0.237902">
            <path
               d="m -197.72165,-30.754971 q 0.32354,0 0.55193,-0.142741 0.22838,-0.14274 0.37112,-0.371125 0.14274,-0.237901 0.20935,-0.542415 0.0666,-0.304513 0.0666,-0.637574 v -3.473355 h 1.85562 v 3.473355 q 0,0.704187 -0.1808,1.322729 -0.18081,0.609027 -0.56145,1.056281 -0.38064,0.447254 -0.96112,0.704187 -0.57096,0.256933 -1.35127,0.256933 -0.80887,0 -1.38935,-0.266449 -0.57096,-0.275965 -0.94208,-0.732735 -0.37113,-0.45677 -0.54242,-1.056281 -0.17129,-0.609026 -0.17129,-1.284665 v -3.473355 h 1.85563 v 3.473355 q 0,0.333061 0.0666,0.64709 0.0666,0.304514 0.20936,0.542415 0.14274,0.228385 0.3616,0.371125 0.22839,0.133225 0.55194,0.133225 z"
               style="font-style:normal;font-variant:normal;font-weight:900;font-stretch:normal;font-size:9.51604px;font-family:Raleway;-inkscape-font-specification:'Raleway, Heavy';font-variant-ligatures:normal;font-variant-caps:normal;font-variant-numeric:normal;font-variant-east-asian:normal;fill:#ffffff;stroke-width:0.237902;fill-opacity:1"
               id="path1152" />
            <path
               d="m -188.78611,-29.165792 h -1.80805 v -2.816748 q 0,-0.371126 -0.17129,-0.532898 -0.16177,-0.171289 -0.38064,-0.171289 -0.22839,0 -0.48532,0.199837 -0.25693,0.199836 -0.38064,0.513866 v 2.807232 h -1.80805 v -5.005437 h 1.62724 v 0.742251 q 0.26645,-0.40919 0.74226,-0.618543 0.48531,-0.218869 1.14192,-0.218869 0.51387,0 0.80886,0.190321 0.30452,0.180805 0.45677,0.45677 0.16178,0.275965 0.20936,0.589994 0.0476,0.31403 0.0476,0.570963 z"
               style="font-style:normal;font-variant:normal;font-weight:900;font-stretch:normal;font-size:9.51604px;font-family:Raleway;-inkscape-font-specification:'Raleway, Heavy';font-variant-ligatures:normal;font-variant-caps:normal;font-variant-numeric:normal;font-variant-east-asian:normal;fill:#ffffff;stroke-width:0.237902;fill-opacity:1"
               id="path1154" />
            <path
               d="m -187.91065,-29.165792 v -5.005437 h 1.80804 v 5.005437 z m 0,-5.424143 v -1.522567 h 1.80804 v 1.522567 z"
               style="font-style:normal;font-variant:normal;font-weight:900;font-stretch:normal;font-size:9.51604px;font-family:Raleway;-inkscape-font-specification:'Raleway, Heavy';font-variant-ligatures:normal;font-variant-caps:normal;font-variant-numeric:normal;font-variant-east-asian:normal;fill:#ffffff;stroke-width:0.237902;fill-opacity:1"
               id="path1156" />
            <path
               d="m -184.83698,-32.229957 h -0.61854 v -1.360794 h 0.61854 v -0.542414 q 0,-0.466286 0.16177,-0.846928 0.17129,-0.390157 0.47581,-0.656607 0.30451,-0.275965 0.7137,-0.418705 0.4187,-0.152257 0.92305,-0.152257 0.55193,0 1.0658,0.190321 0.52338,0.180805 1.12289,0.570962 l -0.68515,1.37031 q -0.33306,-0.285481 -0.69467,-0.447254 -0.3521,-0.161773 -0.68516,-0.161773 -0.27596,0 -0.43773,0.123709 -0.15226,0.114192 -0.15226,0.361609 v 0.609027 h 2.84529 v 4.424959 h -1.80804 v -3.064165 h -1.03725 v 3.064165 h -1.80805 z"
               style="font-style:normal;font-variant:normal;font-weight:900;font-stretch:normal;font-size:9.51604px;font-family:Raleway;-inkscape-font-specification:'Raleway, Heavy';font-variant-ligatures:normal;font-variant-caps:normal;font-variant-numeric:normal;font-variant-east-asian:normal;fill:#ffffff;stroke-width:0.237902;fill-opacity:1"
               id="path1158" />
            <path
               d="m -179.55559,-31.668511 q 0,-0.513866 0.1808,-0.980152 0.18081,-0.475802 0.52338,-0.827896 0.3521,-0.361609 0.86596,-0.570962 0.51387,-0.218869 1.17999,-0.218869 0.91354,0 1.52257,0.380642 0.61854,0.380641 0.92306,0.980152 l -1.76047,0.532898 q -0.25693,-0.371125 -0.69467,-0.371125 -0.37113,0 -0.62806,0.285481 -0.25693,0.275965 -0.25693,0.789831 0,0.513866 0.25693,0.799347 0.25693,0.275966 0.62806,0.275966 0.43774,0 0.69467,-0.371126 l 1.76047,0.532898 q -0.30452,0.599511 -0.92306,0.980152 -0.60903,0.380642 -1.52257,0.380642 -0.66612,0 -1.17999,-0.209353 -0.51386,-0.218869 -0.86596,-0.570962 -0.34257,-0.36161 -0.52338,-0.827896 -0.1808,-0.475802 -0.1808,-0.989668 z"
               style="font-style:normal;font-variant:normal;font-weight:900;font-stretch:normal;font-size:9.51604px;font-family:Raleway;-inkscape-font-specification:'Raleway, Heavy';font-variant-ligatures:normal;font-variant-caps:normal;font-variant-numeric:normal;font-variant-east-asian:normal;fill:#ffffff;stroke-width:0.237902;fill-opacity:1"
               id="path1160" />
            <path
               d="m -172.31389,-29.070632 q -0.37112,0 -0.69467,-0.123709 -0.32355,-0.123708 -0.56145,-0.333061 -0.22838,-0.218869 -0.36161,-0.513866 -0.13322,-0.294997 -0.13322,-0.637575 0,-0.380641 0.16177,-0.694671 0.16177,-0.314029 0.44726,-0.542414 0.28548,-0.228385 0.67563,-0.352093 0.39968,-0.123709 0.87548,-0.123709 0.60903,0 1.0087,0.190321 v -0.152257 q 0,-0.352093 -0.20935,-0.523382 -0.19984,-0.171289 -0.65661,-0.171289 -0.42822,0 -0.78983,0.142741 -0.36161,0.133224 -0.76128,0.399674 l -0.52339,-1.122893 q 0.98967,-0.637575 2.25531,-0.637575 1.19902,0 1.84611,0.532898 0.64709,0.532899 0.64709,1.598695 v 0.970636 q 0,0.256933 0.0761,0.36161 0.0761,0.09516 0.26645,0.114192 v 1.522567 q -0.21887,0.04758 -0.41871,0.06661 -0.19032,0.02855 -0.34258,0.02855 -0.48532,0 -0.74225,-0.171289 -0.24742,-0.180805 -0.32354,-0.523382 l -0.0381,-0.180805 q -0.33306,0.428222 -0.7708,0.656607 -0.43774,0.218869 -0.93257,0.218869 z m 0.54241,-1.294181 q 0.16178,0 0.33307,-0.04758 0.17128,-0.0571 0.30451,-0.14274 0.10468,-0.07613 0.17129,-0.161773 0.0666,-0.09516 0.0666,-0.190321 v -0.371125 q -0.16177,-0.0571 -0.35209,-0.09516 -0.19032,-0.03806 -0.34258,-0.03806 -0.33306,0 -0.55193,0.161773 -0.21887,0.161772 -0.21887,0.40919 0,0.209352 0.16177,0.342577 0.17129,0.133225 0.42822,0.133225 z"
               style="font-style:normal;font-variant:normal;font-weight:900;font-stretch:normal;font-size:9.51604px;font-family:Raleway;-inkscape-font-specification:'Raleway, Heavy';font-variant-ligatures:normal;font-variant-caps:normal;font-variant-numeric:normal;font-variant-east-asian:normal;fill:#ffffff;stroke-width:0.237902;fill-opacity:1"
               id="path1162" />
            <path
               d="m -165.99525,-29.070632 q -0.51386,0 -0.9516,-0.190321 -0.42822,-0.190321 -0.74225,-0.532898 -0.31403,-0.352094 -0.49484,-0.827896 -0.17129,-0.485318 -0.17129,-1.05628 0,-0.55193 0.16178,-1.027732 0.16177,-0.475802 0.44725,-0.81838 0.295,-0.352093 0.69467,-0.542414 0.39967,-0.199837 0.88499,-0.199837 0.48532,0 0.88499,0.218869 0.40919,0.218869 0.62806,0.618543 v -2.683524 h 1.80805 v 4.948341 q 0,0.256933 0.0761,0.36161 0.0761,0.09516 0.26645,0.114192 v 1.522567 q -0.46629,0.09516 -0.76129,0.09516 -0.92305,0 -1.06579,-0.694671 l -0.0381,-0.180805 q -0.25693,0.45677 -0.69467,0.666123 -0.43773,0.209353 -0.93257,0.209353 z m 0.49484,-1.522566 q 0.49483,0 0.85644,-0.513867 v -0.894507 q -0.13323,-0.333062 -0.39016,-0.532899 -0.25693,-0.209352 -0.54241,-0.209352 -0.19984,0 -0.37113,0.08564 -0.16177,0.08564 -0.28548,0.237901 -0.11419,0.152257 -0.19032,0.352093 -0.0666,0.199837 -0.0666,0.428222 0,0.475802 0.26645,0.761283 0.27596,0.285482 0.72322,0.285482 z"
               style="font-style:normal;font-variant:normal;font-weight:900;font-stretch:normal;font-size:9.51604px;font-family:Raleway;-inkscape-font-specification:'Raleway, Heavy';font-variant-ligatures:normal;font-variant-caps:normal;font-variant-numeric:normal;font-variant-east-asian:normal;fill:#ffffff;stroke-width:0.237902;fill-opacity:1"
               id="path1164" />
            <path
               d="m -159.29596,-29.070632 q -0.67564,0 -1.18951,-0.209353 -0.50435,-0.218869 -0.85644,-0.570962 -0.34258,-0.36161 -0.52338,-0.827896 -0.17129,-0.475802 -0.17129,-0.989668 0,-0.513866 0.17129,-0.980152 0.1808,-0.475802 0.52338,-0.827896 0.35209,-0.361609 0.85644,-0.570962 0.51387,-0.218869 1.18951,-0.218869 0.66612,0 1.17999,0.218869 0.51386,0.209353 0.85644,0.570962 0.35209,0.352094 0.52338,0.827896 0.18081,0.466286 0.18081,0.980152 0,0.513866 -0.18081,0.989668 -0.17129,0.466286 -0.52338,0.827896 -0.34258,0.352093 -0.85644,0.570962 -0.51387,0.209353 -1.17999,0.209353 z m -0.885,-2.597879 q 0,0.50435 0.24742,0.789831 0.24742,0.285482 0.63758,0.285482 0.39015,0 0.63757,-0.285482 0.24742,-0.285481 0.24742,-0.789831 0,-0.50435 -0.24742,-0.789831 -0.24742,-0.285481 -0.63757,-0.285481 -0.39016,0 -0.63758,0.285481 -0.24742,0.285481 -0.24742,0.789831 z"
               style="font-style:normal;font-variant:normal;font-weight:900;font-stretch:normal;font-size:9.51604px;font-family:Raleway;-inkscape-font-specification:'Raleway, Heavy';font-variant-ligatures:normal;font-variant-caps:normal;font-variant-numeric:normal;font-variant-east-asian:normal;fill:#ffffff;stroke-width:0.237902;fill-opacity:1"
               id="path1166" />
          </g>
          <g
             id="g5559"
             transform="matrix(1.0391122,0,0,1.0391122,134.1045,-119.87531)"
             style="fill:#ffffff">
            <path
               style="color:#000000;font-style:normal;font-variant:normal;font-weight:normal;font-stretch:normal;font-size:medium;line-height:normal;font-family:sans-serif;font-variant-ligatures:normal;font-variant-position:normal;font-variant-caps:normal;font-variant-numeric:normal;font-variant-alternates:normal;font-variant-east-asian:normal;font-feature-settings:normal;font-variation-settings:normal;text-indent:0;text-align:start;text-decoration:none;text-decoration-line:none;text-decoration-style:solid;text-decoration-color:#000000;letter-spacing:normal;word-spacing:normal;text-transform:none;writing-mode:lr-tb;direction:ltr;text-orientation:mixed;dominant-baseline:auto;baseline-shift:baseline;text-anchor:start;white-space:normal;shape-padding:0;shape-margin:0;inline-size:0;clip-rule:nonzero;display:inline;overflow:visible;visibility:visible;isolation:auto;mix-blend-mode:normal;color-interpolation:sRGB;color-interpolation-filters:linearRGB;solid-color:#000000;solid-opacity:1;vector-effect:none;fill:#ffffff;fill-opacity:1;fill-rule:nonzero;stroke:none;stroke-linecap:butt;stroke-linejoin:miter;stroke-miterlimit:4;stroke-dasharray:none;stroke-dashoffset:0;stroke-opacity:1;color-rendering:auto;image-rendering:auto;shape-rendering:auto;text-rendering:auto;enable-background:accumulate;stop-color:#000000;stop-opacity:1;opacity:1"
               d="M -278.92969 80.003906 C -279.43067 80.003906 -279.83789 80.411128 -279.83789 80.912109 C -279.83789 81.413091 -279.43067 81.820312 -278.92969 81.820312 C -278.42871 81.820312 -278.02148 81.413091 -278.02148 80.912109 C -278.02148 80.411128 -278.42871 80.003906 -278.92969 80.003906 z M -278.92969 80.142578 C -278.50383 80.142578 -278.16016 80.486249 -278.16016 80.912109 C -278.16016 81.33797 -278.50383 81.681641 -278.92969 81.681641 C -279.35555 81.681641 -279.69922 81.33797 -279.69922 80.912109 C -279.69922 80.486249 -279.35555 80.142578 -278.92969 80.142578 z "
               id="circle5553" />
            <g
               aria-label="R"
               id="text5557"
               style="font-style:normal;font-weight:normal;font-size:1.18858px;line-height:1.25;font-family:sans-serif;fill:#ffffff;fill-opacity:1;stroke:none;stroke-width:0.0297145">
              <path
                 d="m -278.57166,81.34465 h -0.14916 l -0.28902,-0.343574 h -0.16192 v 0.343574 h -0.11491 v -0.864158 h 0.24201 q 0.0784,0 0.13058,0.01045 0.0522,0.0099 0.094,0.03598 0.047,0.0296 0.0731,0.07487 0.0267,0.04469 0.0267,0.113751 0,0.09344 -0.047,0.156697 -0.047,0.06268 -0.12943,0.0946 z m -0.26871,-0.620986 q 0,-0.03714 -0.0134,-0.06558 -0.0128,-0.02902 -0.0429,-0.04875 -0.025,-0.01683 -0.0592,-0.02321 -0.0342,-0.007 -0.0807,-0.007 h -0.13523 v 0.326163 h 0.11608 q 0.0546,0 0.0952,-0.0093 0.0406,-0.0099 0.0691,-0.03598 0.0261,-0.02438 0.0383,-0.05572 0.0128,-0.03192 0.0128,-0.08067 z"
                 style="fill:#ffffff;stroke-width:0.0297145"
                 id="path1169" />
            </g>
          </g>
        </g>
        <g
           id="g5543"
           transform="rotate(-45,-192.85281,-39.301522)">
          <path
             id="path5189-0-6"
             style="fill:url(#linearGradient5400);fill-opacity:1;stroke:none;stroke-width:0.127738;stroke-miterlimit:4;stroke-dasharray:none;stroke-opacity:1;stop-color:#000000"
             d="m -224.02079,-35.895702 c 0,-0.73379 -0.59067,-1.32498 -1.32446,-1.32498 h -8.80877 l 1.48208,1.48207 c 0.21415,0.21415 0.21415,0.55893 0,0.77309 l -1.50016,1.49965 h -0.46199 v 0.0243 h 6.09782 c 0.40794,0 0.73639,0.32846 0.73639,0.7364 v 2.28048 l 1.49965,1.50016 c 0.21415,0.21415 0.55893,0.21415 0.77308,0 l 1.50636,-1.50637 z" />
          <path
             id="path4754-2-90"
             style="color:#000000;font-style:normal;font-variant:normal;font-weight:normal;font-stretch:normal;font-size:medium;line-height:normal;font-family:sans-serif;font-variant-ligatures:normal;font-variant-position:normal;font-variant-caps:normal;font-variant-numeric:normal;font-variant-alternates:normal;font-variant-east-asian:normal;font-feature-settings:normal;font-variation-settings:normal;text-indent:0;text-align:start;text-decoration:none;text-decoration-line:none;text-decoration-style:solid;text-decoration-color:#000000;letter-spacing:normal;word-spacing:normal;text-transform:none;writing-mode:lr-tb;direction:ltr;text-orientation:mixed;dominant-baseline:auto;baseline-shift:baseline;text-anchor:start;white-space:normal;shape-padding:0;shape-margin:0;inline-size:0;clip-rule:nonzero;display:inline;overflow:visible;visibility:visible;isolation:auto;mix-blend-mode:normal;color-interpolation:sRGB;color-interpolation-filters:linearRGB;solid-color:#000000;solid-opacity:1;vector-effect:none;fill:#000000;fill-opacity:0.54878;fill-rule:nonzero;stroke:none;stroke-width:1;stroke-linecap:round;stroke-linejoin:round;stroke-miterlimit:4;stroke-dasharray:none;stroke-dashoffset:0;stroke-opacity:1;paint-order:stroke fill markers;filter:url(#filter10971-2-4-1-2-2-4-9-8);color-rendering:auto;image-rendering:auto;shape-rendering:auto;text-rendering:auto;enable-background:accumulate;stop-color:#000000"
             d="m 113.71922,802.23406 c 0.10745,-0.0601 0.24256,-0.49638 0.30429,-0.6029 l 0.31398,-1.4773 -2.86713,1.49973 1.92213,0.62842 c 0.28536,0.04 0.73701,-0.54182 0.32673,-0.048 z"
             sodipodi:nodetypes="cccccc"
             transform="matrix(0.58319562,-0.98939338,0.98939338,0.58319562,-1092.5095,-390.58946)" />
          <path
             id="path5189-2"
             style="fill:url(#linearGradient5392);fill-opacity:1;stroke:none;stroke-width:0.127738;stroke-miterlimit:4;stroke-dasharray:none;stroke-opacity:1;stop-color:#000000"
             d="m -239.63916,-37.24062 c -0.7338,0 -1.32499,0.590672 -1.32499,1.324467 v 8.808765 l 1.48208,-1.482082 c 0.21414,-0.214148 0.55893,-0.214148 0.77308,0 l 1.49965,1.500167 v 0.461989 h 0.0243 v -6.097821 c 0,-0.407937 0.32845,-0.736388 0.73639,-0.736388 h 2.28048 l 1.50017,-1.49965 c 0.21415,-0.214149 0.21415,-0.558933 0,-0.773078 l -1.50637,-1.506369 z" />
          <path
             id="path4754-2"
             style="color:#000000;font-style:normal;font-variant:normal;font-weight:normal;font-stretch:normal;font-size:medium;line-height:normal;font-family:sans-serif;font-variant-ligatures:normal;font-variant-position:normal;font-variant-caps:normal;font-variant-numeric:normal;font-variant-alternates:normal;font-variant-east-asian:normal;font-feature-settings:normal;font-variation-settings:normal;text-indent:0;text-align:start;text-decoration:none;text-decoration-line:none;text-decoration-style:solid;text-decoration-color:#000000;letter-spacing:normal;word-spacing:normal;text-transform:none;writing-mode:lr-tb;direction:ltr;text-orientation:mixed;dominant-baseline:auto;baseline-shift:baseline;text-anchor:start;white-space:normal;shape-padding:0;shape-margin:0;inline-size:0;clip-rule:nonzero;display:inline;overflow:visible;visibility:visible;opacity:1;isolation:auto;mix-blend-mode:normal;color-interpolation:sRGB;color-interpolation-filters:linearRGB;solid-color:#000000;solid-opacity:1;vector-effect:none;fill:#000000;fill-opacity:0.7;fill-rule:nonzero;stroke:none;stroke-width:1;stroke-linecap:round;stroke-linejoin:round;stroke-miterlimit:4;stroke-dasharray:none;stroke-dashoffset:0;stroke-opacity:1;paint-order:stroke fill markers;filter:url(#filter10971-2-4-1-2-2-4-9);color-rendering:auto;image-rendering:auto;shape-rendering:auto;text-rendering:auto;enable-background:accumulate;stop-color:#000000;stop-opacity:1"
             d="m 113.71922,802.23406 c 0.10745,-0.0601 0.24256,-0.49638 0.30429,-0.6029 l 0.31398,-1.4773 -2.86713,1.49973 1.92213,0.62842 c 0.28536,0.04 0.73701,-0.54182 0.32673,-0.048 z"
             sodipodi:nodetypes="cccccc"
             transform="matrix(-1.0126662,-0.54177814,0.54177814,-1.0126662,-558.6433,845.20389)" />
          <path
             id="path5189-0-9-9"
             style="fill:url(#linearGradient5416);fill-opacity:1;stroke:none;stroke-width:0.127738;stroke-miterlimit:4;stroke-dasharray:none;stroke-opacity:1;stop-color:#000000"
             d="m -240.96414,-21.622231 c 0,0.73379 0.59067,1.32498 1.32446,1.32498 h 8.80877 l -1.48208,-1.48207 c -0.21415,-0.21415 -0.21415,-0.55893 0,-0.77309 l 1.50016,-1.49965 h 0.46199 v -0.0243 h -6.09782 c -0.40794,0 -0.73639,-0.32846 -0.73639,-0.7364 v -2.28048 l -1.49965,-1.50016 c -0.21415,-0.21415 -0.55893,-0.21415 -0.77308,0 l -1.50636,1.50637 z" />
          <path
             id="path4754-2-9"
             style="color:#000000;font-style:normal;font-variant:normal;font-weight:normal;font-stretch:normal;font-size:medium;line-height:normal;font-family:sans-serif;font-variant-ligatures:normal;font-variant-position:normal;font-variant-caps:normal;font-variant-numeric:normal;font-variant-alternates:normal;font-variant-east-asian:normal;font-feature-settings:normal;font-variation-settings:normal;text-indent:0;text-align:start;text-decoration:none;text-decoration-line:none;text-decoration-style:solid;text-decoration-color:#000000;letter-spacing:normal;word-spacing:normal;text-transform:none;writing-mode:lr-tb;direction:ltr;text-orientation:mixed;dominant-baseline:auto;baseline-shift:baseline;text-anchor:start;white-space:normal;shape-padding:0;shape-margin:0;inline-size:0;clip-rule:nonzero;display:inline;overflow:visible;visibility:visible;isolation:auto;mix-blend-mode:normal;color-interpolation:sRGB;color-interpolation-filters:linearRGB;solid-color:#000000;solid-opacity:1;vector-effect:none;fill:#000000;fill-opacity:0.565041;fill-rule:nonzero;stroke:none;stroke-width:1;stroke-linecap:round;stroke-linejoin:round;stroke-miterlimit:4;stroke-dasharray:none;stroke-dashoffset:0;stroke-opacity:1;paint-order:stroke fill markers;filter:url(#filter10971-2-4-1-2-2-4-9-7);color-rendering:auto;image-rendering:auto;shape-rendering:auto;text-rendering:auto;enable-background:accumulate;stop-color:#000000"
             d="m 113.71922,802.23406 c 0.10745,-0.0601 0.24256,-0.49638 0.30429,-0.6029 l 0.31398,-1.4773 -2.86713,1.49973 1.92213,0.62842 c 0.28536,0.04 0.73701,-0.54182 0.32673,-0.048 z"
             sodipodi:nodetypes="cccccc"
             transform="matrix(-0.54177814,-1.0126662,-1.0126662,0.54177814,641.4275,-341.72774)" />
          <path
             id="path5189-9-0"
             style="fill:url(#linearGradient5408);fill-opacity:1;stroke:none;stroke-width:0.127738;stroke-miterlimit:4;stroke-dasharray:none;stroke-opacity:1;stop-color:#000000"
             d="m -225.34577,-20.277313 c 0.73379,0 1.32498,-0.590672 1.32498,-1.324467 v -8.808765 l -1.48207,1.482082 c -0.21415,0.214148 -0.55893,0.214148 -0.77309,0 l -1.49965,-1.500167 v -0.461989 h -0.0243 v 6.097821 c 0,0.407937 -0.32846,0.736388 -0.7364,0.736388 h -2.28048 l -1.50016,1.49965 c -0.21415,0.214149 -0.21415,0.558933 0,0.773078 l 1.50637,1.506369 z" />
        </g>
      </g>
    </g>
  </g>
</svg>
