<?xml version="1.0" encoding="UTF-8" standalone="no"?>
<svg
   xmlns:dc="http://purl.org/dc/elements/1.1/"
   xmlns:cc="http://creativecommons.org/ns#"
   xmlns:rdf="http://www.w3.org/1999/02/22-rdf-syntax-ns#"
   xmlns:svg="http://www.w3.org/2000/svg"
   xmlns="http://www.w3.org/2000/svg"
   xmlns:sodipodi="http://sodipodi.sourceforge.net/DTD/sodipodi-0.dtd"
   xmlns:inkscape="http://www.inkscape.org/namespaces/inkscape"
   width="6.9019814mm"
   height="5.25875mm"
   viewBox="0 0 6.9019814 5.25875"
   version="1.1"
   id="svg19039"
   inkscape:version="1.0.2-2 (e86c870879, 2021-01-15)"
   sodipodi:docname="icon-megafone.svg">
  <defs
     id="defs19033" />
  <sodipodi:namedview
     id="base"
     pagecolor="#ffffff"
     bordercolor="#666666"
     borderopacity="1.0"
     inkscape:pageopacity="0.0"
     inkscape:pageshadow="2"
     inkscape:zoom="7.9195959"
     inkscape:cx="31.006975"
     inkscape:cy="11.728958"
     inkscape:document-units="mm"
     inkscape:current-layer="g15219"
     inkscape:document-rotation="0"
     showgrid="false"
     fit-margin-top="0"
     fit-margin-left="0"
     fit-margin-right="0"
     fit-margin-bottom="0"
     inkscape:window-width="1366"
     inkscape:window-height="705"
     inkscape:window-x="1592"
     inkscape:window-y="129"
     inkscape:window-maximized="1" />
  <metadata
     id="metadata19036">
    <rdf:RDF>
      <cc:Work
         rdf:about="">
        <dc:format>image/svg+xml</dc:format>
        <dc:type
           rdf:resource="http://purl.org/dc/dcmitype/StillImage" />
        <dc:title></dc:title>
      </cc:Work>
    </rdf:RDF>
  </metadata>
  <g
     inkscape:label="Layer 1"
     inkscape:groupmode="layer"
     id="layer1"
     transform="translate(-160.86091,-168.99709)">
    <g
       id="g15219"
       transform="translate(612.38035,957.11586)">
      <g
         id="g15146"
         transform="matrix(0.07210317,-0.01616093,0.01616093,0.07210317,-408.32497,-730.53474)">
        <path
           style="fill:#00b1fc;fill-opacity:1;stroke:none;stroke-width:1.13386;stroke-linecap:square"
           d="m -1500.3067,-3127.7693 c -17.7398,-0.9964 -27.1041,-4.4744 -36.4171,-13.5255 -19.1998,-18.6601 -19.4634,-48.6708 -0.5932,-67.541 10.105,-10.105 19.2939,-13.3494 40.7857,-14.4006 l 13.2056,-0.6459 -2.5653,6.3132 c -6.6398,16.3402 -8.7359,27.0308 -8.6888,44.3133 0.042,15.4456 1.6942,24.0521 7.3073,38.0703 3.5711,8.9185 3.5016,8.4707 1.2855,8.276 -0.9625,-0.085 -7.4064,-0.4715 -14.3197,-0.8598 z"
           id="path15118"
           transform="scale(0.26458333)" />
        <path
           style="fill:#00b1fc;fill-opacity:1;stroke:none;stroke-width:1.13386;stroke-linecap:square"
           d="m -1369.3683,-3078.2327 c -24.4627,-21.4055 -58.747,-38.3473 -90.7791,-44.8588 l -6.4105,-1.3031 -3.6391,-6.4306 c -8.2193,-14.5237 -11.2065,-26.0532 -11.2527,-43.4306 -0.029,-10.9646 0.3799,-14.5542 2.6125,-22.9272 2.7343,-10.2542 6.3929,-19.4586 10.1803,-25.6115 1.9689,-3.1986 2.9344,-3.7126 10.049,-5.3499 32.2492,-7.4214 64.8967,-24.7067 89.4226,-47.345 4.0318,-3.7215 6.9885,-5.8664 6.5703,-4.7664 -1.3674,3.5975 -5.4834,20.8141 -7.0526,29.5 -5.2751,29.2002 -7.4725,66.2053 -5.7129,96.206 1.7227,29.3728 6.1397,58.5139 11.557,76.2474 0.8322,2.7243 1.3581,5.1084 1.1686,5.2979 -0.1896,0.1895 -3.2106,-2.1632 -6.7134,-5.2282 z"
           id="path15120"
           transform="scale(0.26458333)" />
        <path
           style="fill:#fcca0b;fill-opacity:1;stroke:none;stroke-width:1.13386;stroke-linecap:square"
           d="m -1476.3704,-3079.764 c -4.9032,-2.5909 -11.2507,-9.9927 -12.6906,-14.7986 -0.6468,-2.1589 -1.176,-7.4187 -1.176,-11.6884 v -7.7632 l 7.1333,0.7029 c 11.8555,1.1682 23.9733,3.7 37.1378,7.7594 5.1807,1.5975 6.6692,2.4647 6.3373,3.692 -0.2386,0.8823 -0.7063,3.2269 -1.0394,5.2104 -0.8866,5.2787 -5.9698,12.3007 -11.4503,15.8176 -4.3431,2.7869 -5.5377,3.072 -12.7062,3.0319 -5.8086,-0.032 -8.8786,-0.5547 -11.5459,-1.964 z"
           id="path15122"
           transform="scale(0.26458333)" />
        <path
           style="fill:#f58513;fill-opacity:1;stroke:none;stroke-width:1.13386;stroke-linecap:square"
           d="m -1330.253,-3042.0058 c -11.5504,-7.8473 -23.1395,-39.3397 -28.4818,-77.3971 -0.8262,-5.8856 -1.5022,-10.8119 -1.5022,-10.9475 0,-0.1356 1.4625,-0.5671 3.25,-0.9589 10.1646,-2.2281 23.8757,-12.7495 29.0832,-22.3173 5.8056,-10.6669 7.6285,-21.8626 5.3318,-32.7462 -3.6446,-17.2703 -14.2938,-29.5757 -31.0451,-35.873 -3.3659,-1.2654 -6.1073,-2.6853 -6.092,-3.1553 0.1521,-4.6547 2.1212,-17.411 4.4541,-28.8547 6.5863,-32.3071 16.9556,-54.8836 27.3441,-59.5346 5.0186,-2.2469 8.0449,-1.296 13.5409,4.255 16.823,16.9911 29.1593,72.5788 29.1231,131.2295 -0.038,62.4586 -12.9405,118.6244 -30.9968,134.9372 -4.7834,4.3215 -9.0443,4.7361 -14.0093,1.3629 z"
           id="path15124"
           transform="scale(0.26458333)" />
        <path
           style="fill:#fcca0b;fill-opacity:1;stroke:none;stroke-width:1.13386;stroke-linecap:square"
           d="m -1361.7793,-3149.2483 c -0.8627,-6.9043 -0.1895,-60.1096 0.7726,-61.0714 1.3673,-1.3668 13.6164,5.5668 17.1711,9.7198 5.8857,6.876 7.9615,12.2931 8.3965,21.9116 0.3546,7.8397 0.1341,9.1141 -2.5947,15 -4.2111,9.0835 -10.8131,15.4723 -18.9583,18.3461 l -4.1177,1.4528 z"
           id="path15126"
           transform="scale(0.26458333)" />
        <path
           style="fill:#fcca0b;fill-opacity:1;stroke:none;stroke-width:1.13386;stroke-linecap:square"
           d="m -1256.3064,-3145.0963 c -3.7879,-1.878 -3.7255,-6.3966 0.1549,-11.2109 9.6709,-11.9984 10.1667,-27.1112 1.3136,-40.0425 -5.0287,-7.3451 -5.5214,-10.6246 -1.9481,-12.966 3.299,-2.1615 5.8185,-1.1773 9.9126,3.8723 5.008,6.1767 7.7156,12.1839 9.1094,20.2098 2.068,11.9091 -0.2582,22.7956 -7.0611,33.0445 -4.4308,6.6753 -7.9447,8.8461 -11.4813,7.0928 z"
           id="path15128"
           transform="scale(0.26458333)" />
        <path
           style="fill:#fcca0b;fill-opacity:1;stroke:none;stroke-width:1.13386;stroke-linecap:square"
           d="m -1226.0145,-3114.3125 c -3.4535,-2.4189 -2.7433,-5.729 2.5275,-11.7803 13.5703,-15.5799 20.0407,-34.4043 18.961,-55.163 -0.9879,-18.9934 -6.8006,-33.1011 -19.9382,-48.3908 -4.1537,-4.8341 -4.7299,-7.933 -1.9441,-10.4542 3.1646,-2.8639 6.1599,-2.0116 10.8777,3.095 9.3527,10.1236 16.8248,24.1213 20.4183,38.25 3.0656,12.0536 3.0721,31.1342 0.014,43 -3.6204,14.0497 -11.5374,28.6139 -21.0644,38.75 -4.2966,4.5713 -6.3641,5.1365 -9.8523,2.6933 z"
           id="path15130"
           transform="scale(0.26458333)" />
      </g>
    </g>
  </g>
</svg>
