<?xml version="1.0" encoding="UTF-8" standalone="no"?>
<svg
   xmlns:dc="http://purl.org/dc/elements/1.1/"
   xmlns:cc="http://creativecommons.org/ns#"
   xmlns:rdf="http://www.w3.org/1999/02/22-rdf-syntax-ns#"
   xmlns:svg="http://www.w3.org/2000/svg"
   xmlns="http://www.w3.org/2000/svg"
   xmlns:sodipodi="http://sodipodi.sourceforge.net/DTD/sodipodi-0.dtd"
   xmlns:inkscape="http://www.inkscape.org/namespaces/inkscape"
   width="141.42972"
   height="25"
   viewBox="0 0 37.419945 6.6145832"
   version="1.1"
   id="svg7355"
   inkscape:version="1.0.2-2 (e86c870879, 2021-01-15)"
   sodipodi:docname="nercu-icon.svg">
  <defs
     id="defs7349" />
  <sodipodi:namedview
     id="base"
     pagecolor="#ffffff"
     bordercolor="#666666"
     borderopacity="1.0"
     inkscape:pageopacity="0.0"
     inkscape:pageshadow="2"
     inkscape:zoom="3.959798"
     inkscape:cx="46.007791"
     inkscape:cy="-18.678886"
     inkscape:document-units="px"
     inkscape:current-layer="layer1"
     inkscape:document-rotation="0"
     showgrid="false"
     fit-margin-top="0"
     fit-margin-left="0"
     fit-margin-right="0"
     fit-margin-bottom="0"
     units="px"
     inkscape:window-width="1366"
     inkscape:window-height="705"
     inkscape:window-x="1592"
     inkscape:window-y="125"
     inkscape:window-maximized="1" />
  <metadata
     id="metadata7352">
    <rdf:RDF>
      <cc:Work
         rdf:about="">
        <dc:format>image/svg+xml</dc:format>
        <dc:type
           rdf:resource="http://purl.org/dc/dcmitype/StillImage" />
        <dc:title></dc:title>
      </cc:Work>
    </rdf:RDF>
  </metadata>
  <g
     inkscape:label="Layer 1"
     inkscape:groupmode="layer"
     id="layer1"
     transform="translate(-172.49923,-175.10426)">
    <g
       transform="matrix(0.19263594,0,0,0.20503739,114.17123,-43.253513)"
       id="g11199"
       style="display:inline">
      <g
         aria-label="N"
         id="g11169"
         style="font-style:normal;font-variant:normal;font-weight:900;font-stretch:normal;font-size:44.8058px;line-height:100%;font-family:Roboto;-inkscape-font-specification:'Roboto, Heavy';font-variant-ligatures:normal;font-variant-caps:normal;font-variant-numeric:normal;font-feature-settings:normal;text-align:start;letter-spacing:0px;word-spacing:0px;writing-mode:lr-tb;text-anchor:start;fill:#feba14;fill-opacity:1;stroke:none;stroke-width:2.24029px;stroke-linecap:butt;stroke-linejoin:miter;stroke-opacity:1">
        <path
           d="m 311.52589,1081.1406 v 15.6372 h -8.73713 v -31.8121 h 6.81048 l 12.76965,16.1749 v -16.1749 h 8.73713 v 31.8121 h -6.9449 z"
           style="font-style:normal;font-variant:normal;font-weight:900;font-stretch:normal;font-size:44.8058px;font-family:Raleway;-inkscape-font-specification:'Raleway, Heavy';font-variant-ligatures:normal;font-variant-caps:normal;font-variant-numeric:normal;font-variant-east-asian:normal;fill:#feba14;fill-opacity:1;stroke-width:2.24029px"
           id="path11167" />
      </g>
      <g
         aria-label="R"
         id="g11173"
         style="font-style:normal;font-variant:normal;font-weight:900;font-stretch:normal;font-size:44.806px;line-height:100%;font-family:Roboto;-inkscape-font-specification:'Roboto, Heavy';font-variant-ligatures:normal;font-variant-caps:normal;font-variant-numeric:normal;font-feature-settings:normal;text-align:start;letter-spacing:0px;word-spacing:0px;writing-mode:lr-tb;text-anchor:start;fill:#47ad48;fill-opacity:1;stroke:none;stroke-width:2.24029px;stroke-linecap:butt;stroke-linejoin:miter;stroke-opacity:1">
        <path
           d="m 360.35331,1096.778 v -31.8123 h 14.60676 q 2.32991,0 4.30138,0.9857 1.97146,0.941 3.36045,2.5092 1.43379,1.5234 2.2403,3.5396 0.8065,1.9715 0.8065,3.9878 0,2.7779 -1.20976,5.1975 -1.20976,2.3747 -3.36045,3.8981 l 6.7209,11.6944 h -9.85732 l -5.60075,-9.7678 h -3.27084 v 9.7678 z m 8.73717,-17.3848 h 5.51114 q 0.80651,0 1.4786,-0.8961 0.7169,-0.8961 0.7169,-2.5091 0,-1.6579 -0.80651,-2.5092 -0.80651,-0.8961 -1.61302,-0.8961 h -5.28711 z"
           style="font-style:normal;font-variant:normal;font-weight:900;font-stretch:normal;font-size:44.806px;font-family:Raleway;-inkscape-font-specification:'Raleway, Heavy';font-variant-ligatures:normal;font-variant-caps:normal;font-variant-numeric:normal;font-variant-east-asian:normal;fill:#47ad48;fill-opacity:1;stroke-width:2.24029px"
           id="path11171" />
      </g>
      <g
         aria-label="E"
         id="g11177"
         style="font-style:normal;font-variant:normal;font-weight:900;font-stretch:normal;font-size:44.806px;line-height:100%;font-family:Roboto;-inkscape-font-specification:'Roboto, Heavy';font-variant-ligatures:normal;font-variant-caps:normal;font-variant-numeric:normal;font-feature-settings:normal;text-align:start;letter-spacing:0px;word-spacing:0px;writing-mode:lr-tb;text-anchor:start;fill:#28abe2;fill-opacity:1;stroke:none;stroke-width:2.24029px;stroke-linecap:butt;stroke-linejoin:miter;stroke-opacity:1">
        <path
           d="m 357.24158,1089.1609 v 7.6171 h -22.67184 v -31.8123 h 22.26859 v 7.617 h -13.53142 v 4.4806 h 11.55995 v 7.0794 h -11.55995 v 5.0182 z"
           style="font-style:normal;font-variant:normal;font-weight:900;font-stretch:normal;font-size:44.806px;font-family:Raleway;-inkscape-font-specification:'Raleway, Heavy';font-variant-ligatures:normal;font-variant-caps:normal;font-variant-numeric:normal;font-variant-east-asian:normal;stroke-width:2.24029px"
           id="path11175" />
      </g>
      <g
         aria-label="C"
         id="g11181"
         style="font-style:normal;font-variant:normal;font-weight:900;font-stretch:normal;font-size:44.806px;line-height:100%;font-family:Roboto;-inkscape-font-specification:'Roboto, Heavy';font-variant-ligatures:normal;font-variant-caps:normal;font-variant-numeric:normal;font-feature-settings:normal;text-align:start;letter-spacing:0px;word-spacing:0px;writing-mode:lr-tb;text-anchor:start;fill:#87908f;fill-opacity:1;stroke:none;stroke-width:2.24029px;stroke-linecap:butt;stroke-linejoin:miter;stroke-opacity:1">
        <path
           d="m 387.40895,1080.7822 q 0,-2.9124 1.07534,-5.7352 1.12015,-2.8228 3.22604,-5.0631 2.10588,-2.2403 5.10788,-3.6292 3.002,-1.389 6.85532,-1.389 4.61502,0 7.97547,1.9266 3.40525,1.8819 5.06307,5.0183 l -6.67609,4.7494 q -0.44806,-1.1649 -1.20976,-1.9266 -0.7169,-0.7617 -1.61302,-1.2098 -0.89612,-0.448 -1.88185,-0.6273 -0.94093,-0.1792 -1.83705,-0.1792 -1.88185,0 -3.27083,0.7617 -1.34418,0.7169 -2.2403,1.9267 -0.85132,1.1649 -1.29938,2.6883 -0.40325,1.4786 -0.40325,2.9572 0,1.6578 0.49286,3.1812 0.49287,1.5235 1.4338,2.6884 0.94092,1.165 2.2851,1.8819 1.38899,0.6721 3.09162,0.6721 0.89612,0 1.83704,-0.1793 0.94093,-0.224 1.79224,-0.6721 0.89612,-0.4928 1.56821,-1.2097 0.7169,-0.7617 1.12015,-1.8371 l 7.12416,4.2566 q -0.7169,1.7474 -2.1955,3.1364 -1.43379,1.389 -3.31564,2.3299 -1.83705,0.941 -3.98774,1.4338 -2.10588,0.4929 -4.12215,0.4929 -3.53967,0 -6.49687,-1.389 -2.91239,-1.4338 -5.06308,-3.7637 -2.10588,-2.3299 -3.27083,-5.2871 -1.16496,-2.9572 -1.16496,-6.004 z"
           style="font-style:normal;font-variant:normal;font-weight:900;font-stretch:normal;font-size:44.806px;font-family:Raleway;-inkscape-font-specification:'Raleway, Heavy';font-variant-ligatures:normal;font-variant-caps:normal;font-variant-numeric:normal;font-variant-east-asian:normal;stroke-width:2.24029px"
           id="path11179" />
      </g>
      <g
         aria-label="U"
         id="g11185"
         style="font-style:normal;font-variant:normal;font-weight:900;font-stretch:normal;font-size:44.806px;line-height:100%;font-family:Roboto;-inkscape-font-specification:'Roboto, Heavy';font-variant-ligatures:normal;font-variant-caps:normal;font-variant-numeric:normal;font-feature-settings:normal;text-align:start;letter-spacing:0px;word-spacing:0px;writing-mode:lr-tb;text-anchor:start;fill:#d2101a;fill-opacity:1;stroke:none;stroke-width:2.24029px;stroke-linecap:butt;stroke-linejoin:miter;stroke-opacity:1">
        <path
           d="m 433.41877,1089.2954 q 1.52341,0 2.59875,-0.6721 1.07534,-0.6721 1.74743,-1.7475 0.67209,-1.1201 0.98574,-2.5539 0.31364,-1.4338 0.31364,-3.002 v -16.3542 h 8.73717 v 16.3542 q 0,3.3156 -0.85132,6.228 -0.85131,2.8676 -2.64355,4.9735 -1.79224,2.1059 -4.52541,3.3156 -2.68836,1.2098 -6.36245,1.2098 -3.80851,0 -6.54167,-1.2546 -2.68836,-1.2994 -4.4358,-3.45 -1.74743,-2.1507 -2.55394,-4.9735 -0.80651,-2.8676 -0.80651,-6.0488 v -16.3542 h 8.73717 v 16.3542 q 0,1.5682 0.31364,3.0468 0.31365,1.4338 0.98574,2.5539 0.67209,1.0754 1.70262,1.7475 1.07535,0.6273 2.59875,0.6273 z"
           style="font-style:normal;font-variant:normal;font-weight:900;font-stretch:normal;font-size:44.806px;font-family:Raleway;-inkscape-font-specification:'Raleway, Heavy';font-variant-ligatures:normal;font-variant-caps:normal;font-variant-numeric:normal;font-variant-east-asian:normal;stroke-width:2.24029px"
           id="path11183" />
      </g>
      <g
         id="g11197"
         transform="matrix(1,0,0,0.97644424,1.4942418,24.845991)">
        <path
           id="path11187"
           style="color:#000000;clip-rule:nonzero;display:inline;overflow:visible;visibility:visible;opacity:1;isolation:auto;mix-blend-mode:normal;color-interpolation:sRGB;color-interpolation-filters:linearRGB;solid-color:#000000;solid-opacity:1;fill:#413f41;fill-opacity:1;fill-rule:evenodd;stroke:none;stroke-width:1.19923;stroke-linecap:square;stroke-linejoin:miter;stroke-miterlimit:4;stroke-dasharray:none;stroke-dashoffset:0;stroke-opacity:0.505102;paint-order:markers fill stroke;color-rendering:auto;image-rendering:auto;shape-rendering:auto;text-rendering:auto;enable-background:accumulate"
           d="m 455.12704,1065.2115 h 35.18053 c 2.90246,0 5.2391,2.3367 5.2391,5.2391 v 22.4706 c 0,2.9025 -2.33664,5.2391 -5.2391,5.2391 h -35.18053 c -2.90246,0 -5.2391,-2.3366 -5.2391,-5.2391 v -22.4706 c 0,-2.9024 2.33664,-5.2391 5.2391,-5.2391 z" />
        <g
           aria-label="3.0"
           id="g11195"
           style="font-style:normal;font-variant:normal;font-weight:900;font-stretch:normal;font-size:26.996px;line-height:100%;font-family:Roboto;-inkscape-font-specification:'Roboto, Heavy';font-variant-ligatures:normal;font-variant-caps:normal;font-variant-numeric:normal;font-feature-settings:normal;text-align:start;letter-spacing:0px;word-spacing:0px;writing-mode:lr-tb;text-anchor:start;fill:#ffffff;fill-opacity:1;stroke:none;stroke-width:1.3498px;stroke-linecap:butt;stroke-linejoin:miter;stroke-opacity:1">
          <path
             d="m 460.19249,1079.8273 h 2.09588 q 1.19953,0 1.84543,-0.6459 0.6459,-0.6459 0.6459,-1.7927 0,-0.9096 -0.57999,-1.5291 -0.57999,-0.6196 -1.68725,-0.6196 -0.86999,0 -1.52907,0.501 -0.65908,0.5009 -0.65908,1.2918 h -4.32358 l -0.0264,-0.079 q -0.0791,-2.2936 1.80588,-3.7173 1.88498,-1.4236 4.57403,-1.4236 3.12405,0 4.99584,1.4368 1.8718,1.4236 1.8718,4.0468 0,1.305 -0.81727,2.4122 -0.80408,1.0941 -2.16178,1.7136 1.54225,0.5668 2.41224,1.7268 0.86998,1.1468 0.86998,2.755 0,2.6363 -2.01679,4.1522 -2.01679,1.5027 -5.15402,1.5027 -2.70223,0 -4.73221,-1.4104 -2.01679,-1.4236 -1.95088,-4.1127 l 0.0264,-0.079 h 4.34994 q 0,0.9227 0.71181,1.5555 0.72499,0.6195 1.75316,0.6195 1.17317,0 1.87179,-0.6591 0.69863,-0.6591 0.69863,-1.6609 0,-1.3972 -0.73817,-2.0299 -0.72499,-0.6459 -2.05634,-0.6459 h -2.09588 z"
             style="fill:#ffffff;stroke-width:1.3498px"
             id="path11189" />
          <path
             d="m 475.08444,1091.2821 h -4.44221 v -3.7436 h 4.44221 z"
             style="fill:#ffffff;stroke-width:1.3498px"
             id="path11191" />
          <path
             d="m 489.76548,1083.7027 q 0,3.8885 -1.80588,5.879 -1.80589,1.9772 -4.86403,1.9772 -3.0845,0 -4.89039,-1.9772 -1.80588,-1.9905 -1.80588,-5.879 v -4.0336 q 0,-3.8886 1.7927,-5.8659 1.79271,-1.9904 4.87721,-1.9904 3.07132,0 4.87721,1.9904 1.81906,1.9905 1.81906,5.8659 z m -4.44221,-4.3368 q 0,-2.2013 -0.57999,-3.1636 -0.57999,-0.9623 -1.67407,-0.9623 -1.10726,0 -1.67407,0.9623 -0.55363,0.9623 -0.55363,3.1636 v 4.6136 q 0,2.2409 0.56681,3.2031 0.56681,0.9491 1.68725,0.9491 1.09408,0 1.66089,-0.9491 0.56681,-0.9622 0.56681,-3.2031 z"
             style="fill:#ffffff;stroke-width:1.3498px"
             id="path11193" />
        </g>
      </g>
    </g>
  </g>
</svg>
