<?xml version="1.0" encoding="UTF-8" standalone="no"?>
<svg
   xmlns:dc="http://purl.org/dc/elements/1.1/"
   xmlns:cc="http://creativecommons.org/ns#"
   xmlns:rdf="http://www.w3.org/1999/02/22-rdf-syntax-ns#"
   xmlns:svg="http://www.w3.org/2000/svg"
   xmlns="http://www.w3.org/2000/svg"
   xmlns:sodipodi="http://sodipodi.sourceforge.net/DTD/sodipodi-0.dtd"
   xmlns:inkscape="http://www.inkscape.org/namespaces/inkscape"
   width="122.90665"
   height="25"
   viewBox="0 0 32.519051 6.6145832"
   version="1.1"
   id="svg7355"
   inkscape:version="1.0.2-2 (e86c870879, 2021-01-15)"
   sodipodi:docname="treinas-icon.svg">
  <defs
     id="defs7349" />
  <sodipodi:namedview
     id="base"
     pagecolor="#ffffff"
     bordercolor="#666666"
     borderopacity="1.0"
     inkscape:pageopacity="0.0"
     inkscape:pageshadow="2"
     inkscape:zoom="3.959798"
     inkscape:cx="78.419242"
     inkscape:cy="-17.79564"
     inkscape:document-units="px"
     inkscape:current-layer="layer1"
     inkscape:document-rotation="0"
     showgrid="false"
     fit-margin-top="0"
     fit-margin-left="0"
     fit-margin-right="0"
     fit-margin-bottom="0"
     units="px"
     inkscape:window-width="1366"
     inkscape:window-height="705"
     inkscape:window-x="1592"
     inkscape:window-y="125"
     inkscape:window-maximized="1" />
  <metadata
     id="metadata7352">
    <rdf:RDF>
      <cc:Work
         rdf:about="">
        <dc:format>image/svg+xml</dc:format>
        <dc:type
           rdf:resource="http://purl.org/dc/dcmitype/StillImage" />
        <dc:title></dc:title>
      </cc:Work>
    </rdf:RDF>
  </metadata>
  <g
     inkscape:label="Layer 1"
     inkscape:groupmode="layer"
     id="layer1"
     transform="translate(-163.9237,-175.33795)">
    <g
       inkscape:export-ydpi="95.999992"
       inkscape:export-xdpi="95.999992"
       style="display:inline"
       id="g11239"
       transform="matrix(0.28916921,0,0,0.28927495,152.97952,129.91113)">
      <path
         id="path11205"
         style="font-style:normal;font-variant:normal;font-weight:normal;font-stretch:normal;font-size:28.1781px;line-height:1.25;font-family:'Franklin Gothic Heavy';-inkscape-font-specification:'Franklin Gothic Heavy, Normal';font-variant-ligatures:normal;font-variant-caps:normal;font-variant-numeric:normal;font-feature-settings:normal;text-align:start;letter-spacing:0px;word-spacing:0px;writing-mode:lr-tb;text-anchor:start;fill:#ffffff;fill-opacity:1;stroke:none;stroke-width:0.704453"
         d="m 63.952899,160.5154 -3.690515,0.0584 1.742058,1.72196 c 0.334059,0.33114 1.157522,1.38496 0.800932,2.15537 l -4.148748,8.62017 v 0.061 l -0.01428,1.63761 c 0,1.58685 0.395033,2.74264 1.183873,3.46727 0.798012,0.72463 2.04041,1.08612 3.72816,1.08612 1.045673,0 2.109682,-0.10436 3.192043,-0.31533 v -3.90846 c -0.605388,0.15593 -1.127829,0.23357 -1.568112,0.23357 -0.284349,0 -0.559591,-0.0636 -0.825595,-0.19205 -0.266005,-0.13759 -0.399817,-0.5589 -0.399817,-1.26519 v -5.16068 h 2.793524 v -3.5633 h -2.793527 z m -7.387522,6.83592 v 1.36382 h 0.06361 z" />
      <path
         d="m 73.832178,179.1449 h -5.255876 v -13.99274 h 4.567935 v 2.88936 q 0.784253,-3.15078 3.646092,-3.15078 0.288935,0 0.798012,0.055 v 4.88438 q -0.577871,-0.13758 -1.031913,-0.13758 -2.72425,0 -2.72425,3.0407 z"
         style="font-style:normal;font-variant:normal;font-weight:normal;font-stretch:normal;font-size:28.1781px;line-height:1.25;font-family:'Franklin Gothic Heavy';-inkscape-font-specification:'Franklin Gothic Heavy, Normal';font-variant-ligatures:normal;font-variant-caps:normal;font-variant-numeric:normal;font-feature-settings:normal;text-align:start;letter-spacing:0px;word-spacing:0px;writing-mode:lr-tb;text-anchor:start;fill:#ffffff;fill-opacity:1;stroke:none;stroke-width:0.704453"
         id="path11207" />
      <path
         d="m 88.567895,174.12292 5.118287,0.34397 q -0.454041,2.06383 -2.325243,3.52227 -1.857443,1.44467 -5.035735,1.44467 -3.536021,0 -5.641124,-2.0363 -2.105102,-2.05007 -2.105102,-5.07702 0,-3.13701 2.077585,-5.29715 2.077584,-2.16014 5.544811,-2.16014 3.357157,0 5.420983,2.03631 2.077584,2.03631 2.077584,5.54481 0,0.28894 -0.01376,0.79802 h -9.369768 q 0.02752,1.32084 0.4678,1.96751 0.440283,0.63291 1.678578,0.63291 1.788649,0 2.105103,-1.71986 z m -0.35773,-3.63233 q -0.01376,-1.41716 -0.577871,-1.89872 -0.550354,-0.49532 -1.375884,-0.49532 -1.953755,0 -1.953755,2.39404 z"
         style="font-style:normal;font-variant:normal;font-weight:normal;font-stretch:normal;font-size:28.1781px;line-height:1.25;font-family:'Franklin Gothic Heavy';-inkscape-font-specification:'Franklin Gothic Heavy, Normal';font-variant-ligatures:normal;font-variant-caps:normal;font-variant-numeric:normal;font-feature-settings:normal;text-align:start;letter-spacing:0px;word-spacing:0px;writing-mode:lr-tb;text-anchor:start;fill:#ffffff;fill-opacity:1;stroke:none;stroke-width:0.704453"
         id="path11209" />
      <path
         d="M 101.3361,165.15216 V 179.1449 H 95.84632 V 165.15216 Z"
         style="font-style:normal;font-variant:normal;font-weight:normal;font-stretch:normal;font-size:28.1781px;line-height:1.25;font-family:'Franklin Gothic Heavy';-inkscape-font-specification:'Franklin Gothic Heavy, Normal';font-variant-ligatures:normal;font-variant-caps:normal;font-variant-numeric:normal;font-feature-settings:normal;text-align:start;letter-spacing:0px;word-spacing:0px;writing-mode:lr-tb;text-anchor:start;fill:#ffffff;fill-opacity:1;stroke:none;stroke-width:0.704453"
         id="path11211"
         sodipodi:nodetypes="ccccc" />
      <path
         d="m 117.88798,179.1449 h -5.48978 v -8.80566 q 0,-1.08695 -0.34397,-1.38964 -0.33021,-0.3027 -0.83929,-0.3027 -1.49971,0 -1.49971,2.09135 v 8.40665 h -5.48978 v -13.99274 h 5.09077 v 1.98127 q 1.12823,-2.27021 4.03134,-2.27021 1.52723,0 2.5729,0.59163 1.05943,0.57787 1.51348,1.51348 0.45404,0.92184 0.45404,3.21956 z"
         style="font-style:normal;font-variant:normal;font-weight:normal;font-stretch:normal;font-size:28.1781px;line-height:1.25;font-family:'Franklin Gothic Heavy';-inkscape-font-specification:'Franklin Gothic Heavy, Normal';font-variant-ligatures:normal;font-variant-caps:normal;font-variant-numeric:normal;font-feature-settings:normal;text-align:start;letter-spacing:0px;word-spacing:0px;writing-mode:lr-tb;text-anchor:start;fill:#ffffff;fill-opacity:1;stroke:none;stroke-width:0.704453"
         id="path11213" />
      <path
         d="m 134.88014,179.1449 h -5.22835 q -0.19263,-0.89433 -0.19263,-1.95376 -1.48595,2.24269 -4.49914,2.24269 -2.47659,0 -3.71488,-1.26581 -1.22454,-1.26581 -1.22454,-2.90311 0,-2.21518 2.00879,-3.5773 2.02255,-1.37589 7.15459,-1.65106 v -0.31646 q 0,-0.92184 -0.42652,-1.22453 -0.41276,-0.3027 -1.22454,-0.3027 -1.89872,0 -2.11886,1.52723 l -5.00821,-0.4678 q 1.07319,-4.38907 7.30594,-4.38907 1.69234,0 3.1095,0.34397 1.41716,0.33022 2.24269,1.04568 0.82553,0.71546 1.1007,1.51347 0.28894,0.79801 0.28894,3.06822 v 5.58609 q 0,1.59602 0.42652,2.72425 z m -5.69616,-6.54921 q -3.5085,0.37149 -3.5085,2.24269 0,1.26581 1.38964,1.26581 0.88057,0 1.49972,-0.52283 0.61914,-0.52284 0.61914,-2.31149 z"
         style="font-style:normal;font-variant:normal;font-weight:normal;font-stretch:normal;font-size:28.1781px;line-height:1.25;font-family:'Franklin Gothic Heavy';-inkscape-font-specification:'Franklin Gothic Heavy, Normal';font-variant-ligatures:normal;font-variant-caps:normal;font-variant-numeric:normal;font-feature-settings:normal;text-align:start;letter-spacing:0px;word-spacing:0px;writing-mode:lr-tb;text-anchor:start;fill:#ffffff;fill-opacity:1;stroke:none;stroke-width:0.704453"
         id="path11215" />
      <path
         d="m 136.0634,175.18235 4.33403,-0.59163 q 0.37149,1.51347 2.9444,1.51347 2.13262,0 2.13262,-0.82553 0,-0.35773 -0.41277,-0.55035 -0.41276,-0.20638 -1.95375,-0.41276 -4.26524,-0.59163 -5.32468,-1.84369 -1.05943,-1.26581 -1.05943,-2.8068 0,-2.14638 1.78865,-3.46723 1.78865,-1.33461 4.69177,-1.33461 5.09077,0 6.49417,3.67361 l -4.15517,0.78426 q -0.57787,-1.2383 -2.43531,-1.2383 -0.88057,0 -1.32085,0.24766 -0.42653,0.2339 -0.42653,0.4678 0,0.68794 1.32085,0.83929 3.43971,0.38525 4.66425,0.78425 1.22453,0.39901 2.09134,1.45844 0.86681,1.05943 0.86681,2.55914 0,2.29773 -1.92624,3.6461 -1.91248,1.34836 -5.28339,1.34836 -5.6824,0 -7.03077,-4.25148 z"
         style="font-style:normal;font-variant:normal;font-weight:normal;font-stretch:normal;font-size:28.1781px;line-height:1.25;font-family:'Franklin Gothic Heavy';-inkscape-font-specification:'Franklin Gothic Heavy, Normal';font-variant-ligatures:normal;font-variant-caps:normal;font-variant-numeric:normal;font-feature-settings:normal;text-align:start;letter-spacing:0px;word-spacing:0px;writing-mode:lr-tb;text-anchor:start;fill:#ffffff;fill-opacity:1;stroke:none;stroke-width:0.704453"
         id="path11217" />
      <g
         id="g11235"
         transform="matrix(0.49907844,0,0,0.49907844,18.570231,75.733174)"
         style="fill:#a4de1a;fill-opacity:1">
        <g
           transform="matrix(0.35277777,0,0,-0.35277777,50.932393,208.15945)"
           id="g11221"
           style="fill:#a4de1a;fill-opacity:1">
          <path
             inkscape:connector-curvature="0"
             id="path11219"
             style="fill:#a4de1a;fill-opacity:1;fill-rule:nonzero;stroke:none"
             d="m 0,0 -34.888,26.165 v 63.38 c 0,0 0.581,5.814 6.978,3.489 L 12.792,60.472 c 0,0 2.908,-1.163 2.326,-6.397 L 8.141,2.325 C 8.141,2.325 4.651,-4.652 0,0" />
        </g>
        <g
           transform="matrix(0.35277777,0,0,-0.35277777,49.326183,178.72767)"
           id="g11225"
           style="fill:#a4de1a;fill-opacity:1">
          <path
             inkscape:connector-curvature="0"
             id="path11223"
             style="fill:#5db145;fill-opacity:1;fill-rule:nonzero;stroke:none"
             d="m 0,0 27.328,-21.514 c 0,0 4.07,2.326 0.582,-12.211 l -6.977,-48.843 c 0,0 2.326,-4.652 8.14,-1.163 l 20.351,67.45 c 0,0 0.582,2.907 -4.07,6.396 L 7.559,20.351 c 0,0 -4.652,2.326 -7.559,-2.326 z" />
        </g>
        <g
           transform="matrix(0.35277777,0,0,-0.35277777,59.289042,174.32019)"
           id="g11229"
           style="fill:#a4de1a;fill-opacity:1">
          <path
             inkscape:connector-curvature="0"
             id="path11227"
             style="fill:#a4de1a;fill-opacity:1;fill-rule:nonzero;stroke:none"
             d="m 0,0 26.998,-21.415 c 0,0 2.706,1.722 -1.19,-12.223 L 10.135,-94.68 c 0,0 2.326,-6.397 6.977,0 l 30.142,77.157 c 0,0 0.666,2.793 -3.712,6.335 L 8.043,19.427 c 0,0 -4.418,2.418 -7.398,-1.981 z" />
        </g>
        <g
           transform="matrix(0.35277777,0,0,-0.35277777,70.249248,169.52771)"
           id="g11233"
           style="fill:#a4de1a;fill-opacity:1">
          <path
             inkscape:connector-curvature="0"
             id="path11231"
             style="fill:#5db145;fill-opacity:1;fill-rule:nonzero;stroke:none"
             d="m 0,0 25.366,-24.49 c 0,0 2.845,1.48 -2.247,-12.073 l -26.996,-72.365 c 0,0 3.489,-5.815 8.917,1.551 l 40.843,85.007 c 0,0 0.906,2.725 -3.148,6.635 L 10.024,17.842 c 0,0 -4.192,2.792 -7.542,-1.332 z" />
        </g>
      </g>
      <path
         id="path11237"
         style="opacity:1;vector-effect:none;fill:#a4de1a;fill-opacity:1;stroke:none;stroke-width:0.307983;stroke-linecap:round;stroke-linejoin:round;stroke-miterlimit:4;stroke-dasharray:none;stroke-dashoffset:0;stroke-opacity:1"
         d="m 95.841065,162.06226 h 5.496765 v 2.01491 h -5.496765 z" />
    </g>
  </g>
</svg>
