<?xml version="1.0" encoding="UTF-8" standalone="no"?>
<svg
   xmlns:dc="http://purl.org/dc/elements/1.1/"
   xmlns:cc="http://creativecommons.org/ns#"
   xmlns:rdf="http://www.w3.org/1999/02/22-rdf-syntax-ns#"
   xmlns:svg="http://www.w3.org/2000/svg"
   xmlns="http://www.w3.org/2000/svg"
   xmlns:sodipodi="http://sodipodi.sourceforge.net/DTD/sodipodi-0.dtd"
   xmlns:inkscape="http://www.inkscape.org/namespaces/inkscape"
   viewBox="0 0 20 20"
   version="1.1"
   id="svg4"
   sodipodi:docname="view-light.svg"
   inkscape:version="1.0.2-2 (e86c870879, 2021-01-15)">
  <metadata
     id="metadata10">
    <rdf:RDF>
      <cc:Work
         rdf:about="">
        <dc:format>image/svg+xml</dc:format>
        <dc:type
           rdf:resource="http://purl.org/dc/dcmitype/StillImage" />
        <dc:title></dc:title>
      </cc:Work>
    </rdf:RDF>
  </metadata>
  <defs
     id="defs8" />
  <sodipodi:namedview
     pagecolor="#ffffff"
     bordercolor="#666666"
     borderopacity="1"
     objecttolerance="10"
     gridtolerance="10"
     guidetolerance="10"
     inkscape:pageopacity="0"
     inkscape:pageshadow="2"
     inkscape:window-width="1600"
     inkscape:window-height="837"
     id="namedview6"
     showgrid="false"
     inkscape:zoom="12.162237"
     inkscape:cx="29.404365"
     inkscape:cy="6.5927514"
     inkscape:window-x="-8"
     inkscape:window-y="-8"
     inkscape:window-maximized="1"
     inkscape:current-layer="svg4"
     inkscape:snap-global="false"
     inkscape:document-rotation="0" />
  <path
     id="path875"
     style="color:#000000;font-style:normal;font-variant:normal;font-weight:normal;font-stretch:normal;font-size:medium;line-height:normal;font-family:sans-serif;font-variant-ligatures:normal;font-variant-position:normal;font-variant-caps:normal;font-variant-numeric:normal;font-variant-alternates:normal;font-variant-east-asian:normal;font-feature-settings:normal;font-variation-settings:normal;text-indent:0;text-align:start;text-decoration:none;text-decoration-line:none;text-decoration-style:solid;text-decoration-color:#000000;letter-spacing:normal;word-spacing:normal;text-transform:none;writing-mode:lr-tb;direction:ltr;text-orientation:mixed;dominant-baseline:auto;baseline-shift:baseline;text-anchor:start;white-space:normal;shape-padding:0;shape-margin:0;inline-size:0;clip-rule:nonzero;display:inline;overflow:visible;visibility:visible;isolation:auto;mix-blend-mode:normal;color-interpolation:sRGB;color-interpolation-filters:linearRGB;solid-color:#000000;solid-opacity:1;vector-effect:none;fill:#ffffff;fill-opacity:1;fill-rule:nonzero;stroke:none;stroke-linecap:round;stroke-linejoin:miter;stroke-miterlimit:4;stroke-dasharray:none;stroke-dashoffset:0;stroke-opacity:1;color-rendering:auto;image-rendering:auto;shape-rendering:auto;text-rendering:auto;enable-background:accumulate;stop-color:#000000;stop-opacity:1;opacity:1"
     d="M 10.609375 3.2050781 C 7.4532338 3.0580905 4.2854781 4.9813958 1.0898438 8.9042969 A 1.0124201 1.0124201 0 0 0 0.88671875 9.7695312 A 1.0124201 1.0124201 0 0 0 1.03125 10.810547 C 4.2268843 14.733448 7.3946406 16.658706 10.550781 16.511719 C 13.706922 16.364731 16.484917 14.18 18.974609 10.710938 A 1.0124201 1.0124201 0 0 0 19.152344 9.9667969 A 1.0124201 1.0124201 0 0 0 19.033203 9.0058594 C 16.543511 5.5367954 13.765516 3.3520658 10.609375 3.2050781 z M 10.515625 5.2285156 C 12.690192 5.3297895 14.893491 6.8571818 17.107422 9.8203125 C 14.873866 12.835207 12.650698 14.386118 10.457031 14.488281 C 8.2702155 14.590125 5.7693489 13.276841 2.9121094 9.890625 C 5.7931022 6.4541852 8.3143697 5.1259989 10.515625 5.2285156 z M 9.8515625 6.84375 A 2.8352301 2.7906978 0 0 0 7.0644531 9.6328125 A 2.8352301 2.7906978 0 0 0 9.8984375 12.423828 A 2.8352301 2.7906978 0 0 0 12.734375 9.6328125 A 2.8352301 2.7906978 0 0 0 12.373047 8.2695312 L 11.541016 8.8203125 L 10.894531 9.3398438 A 0.98837215 0.94204217 0 0 1 10.958984 9.6738281 A 0.98837215 0.94204217 0 0 1 9.9707031 10.617188 A 0.98837215 0.94204217 0 0 1 8.9824219 9.6738281 A 0.98837215 0.94204217 0 0 1 9.9707031 8.7324219 A 0.98837215 0.94204217 0 0 1 10.048828 8.7363281 L 11.076172 7.0957031 A 2.8352301 2.7906978 0 0 0 9.8984375 6.84375 A 2.8352301 2.7906978 0 0 0 9.8515625 6.84375 z " />
</svg>
