<?xml version="1.0" encoding="UTF-8" standalone="no"?>
<svg
   xmlns:dc="http://purl.org/dc/elements/1.1/"
   xmlns:cc="http://creativecommons.org/ns#"
   xmlns:rdf="http://www.w3.org/1999/02/22-rdf-syntax-ns#"
   xmlns:svg="http://www.w3.org/2000/svg"
   xmlns="http://www.w3.org/2000/svg"
   xmlns:sodipodi="http://sodipodi.sourceforge.net/DTD/sodipodi-0.dtd"
   xmlns:inkscape="http://www.inkscape.org/namespaces/inkscape"
   viewBox="0 0 20 20"
   version="1.1"
   id="svg4"
   sodipodi:docname="view.svg"
   inkscape:version="1.0.2-2 (e86c870879, 2021-01-15)">
  <metadata
     id="metadata10">
    <rdf:RDF>
      <cc:Work
         rdf:about="">
        <dc:format>image/svg+xml</dc:format>
        <dc:type
           rdf:resource="http://purl.org/dc/dcmitype/StillImage" />
        <dc:title></dc:title>
      </cc:Work>
    </rdf:RDF>
  </metadata>
  <defs
     id="defs8" />
  <sodipodi:namedview
     pagecolor="#ffffff"
     bordercolor="#666666"
     borderopacity="1"
     objecttolerance="10"
     gridtolerance="10"
     guidetolerance="10"
     inkscape:pageopacity="0"
     inkscape:pageshadow="2"
     inkscape:window-width="1600"
     inkscape:window-height="837"
     id="namedview6"
     showgrid="false"
     inkscape:zoom="12.162237"
     inkscape:cx="29.404365"
     inkscape:cy="6.5927514"
     inkscape:window-x="-8"
     inkscape:window-y="-8"
     inkscape:window-maximized="1"
     inkscape:current-layer="svg4"
     inkscape:snap-global="false" />
  <g
     id="g910"
     transform="translate(0,1.2333258)">
    <path
       style="fill:none;stroke:#000000;stroke-width:2.02484;stroke-linecap:round;stroke-linejoin:miter;stroke-miterlimit:4;stroke-dasharray:none;stroke-opacity:1"
       d="M 1.8157228,8.9384463 C 7.9999272,16.53006 13.354057,15.571919 18.152136,8.8864163"
       id="path875"
       sodipodi:nodetypes="cc" />
    <path
       style="fill:none;stroke:#000000;stroke-width:2.02484;stroke-linecap:round;stroke-linejoin:miter;stroke-miterlimit:4;stroke-dasharray:none;stroke-opacity:1"
       d="M 1.8738623,8.3111305 C 8.0580667,0.71951649 13.412197,1.6776575 18.210276,8.3631605"
       id="path873"
       sodipodi:nodetypes="cc" />
    <path
       id="path899"
       style="fill:#000000;stroke-width:0.714894;stroke-linecap:round;stroke-linejoin:round;stroke-miterlimit:4;stroke-dasharray:none"
       d="M 9.851562,5.6113281 A 2.8352301,2.7906978 0 0 0 7.064453,8.4003906 2.8352301,2.7906978 0 0 0 9.898438,11.191406 2.8352301,2.7906978 0 0 0 12.734375,8.4003906 2.8352301,2.7906978 0 0 0 12.373047,7.0371094 L 11.541016,7.5878906 10.894531,8.1074219 A 0.98837215,0.94204217 0 0 1 10.958984,8.4414062 0.98837215,0.94204217 0 0 1 9.970703,9.3847656 0.98837215,0.94204217 0 0 1 8.982422,8.4414062 0.98837215,0.94204217 0 0 1 9.970703,7.5 a 0.98837215,0.94204217 0 0 1 0.07813,0.00391 l 1.027344,-1.640625 a 2.8352301,2.7906978 0 0 0 -1.177734,-0.2519531 2.8352301,2.7906978 0 0 0 -0.04688,0 z" />
  </g>
</svg>
